<svg width="225" height="225" viewBox="0 0 225 225" fill="none" xmlns="http://www.w3.org/2000/svg">
<circle cx="112.5" cy="112.5" r="112.5" fill="#FFF9EE"/>
<path d="M121.621 57.106C132.963 57.106 142.503 58.378 150.241 60.922C157.979 63.36 163.756 66.646 167.572 70.78C171.388 74.808 173.296 79.207 173.296 83.977C173.296 85.673 173.084 87.21 172.66 88.588C171.176 93.888 167.943 97.969 162.961 100.831C158.085 103.693 151.301 105.548 142.609 106.396C148.863 110.106 153.792 113.975 157.396 118.003C161 121.925 162.802 126.43 162.802 131.518C162.802 133.002 162.537 134.91 162.007 137.242C159.675 145.828 154.216 152.506 145.63 157.276C137.044 161.94 124.165 164.272 106.993 164.272C96.711 164.272 87.86 163.212 80.44 161.092C73.02 158.866 67.349 155.792 63.427 151.87C59.611 147.842 57.703 143.178 57.703 137.878C57.703 135.758 58.021 133.585 58.657 131.359C61.625 120.441 72.702 113.286 91.888 109.894C86.058 105.654 81.5 101.52 78.214 97.492C75.034 93.464 73.444 89.012 73.444 84.136C73.444 82.758 73.709 81.009 74.239 78.889C76.253 71.681 81.235 66.275 89.185 62.671C97.135 58.961 107.947 57.106 121.621 57.106ZM111.763 78.094C111.445 79.048 111.286 80.002 111.286 80.956C111.286 83.712 112.399 86.309 114.625 88.747C116.957 91.079 120.296 93.57 124.642 96.22C128.034 93.57 130.472 89.701 131.956 84.613C132.38 83.341 132.592 82.016 132.592 80.638C132.592 77.67 131.585 75.338 129.571 73.642C127.557 71.84 125.119 70.939 122.257 70.939C119.395 70.939 117.116 71.522 115.42 72.688C113.724 73.854 112.505 75.656 111.763 78.094ZM118.6 139.627C118.812 138.991 118.918 138.09 118.918 136.924C118.918 134.062 117.858 131.306 115.738 128.656C113.618 126.006 110.544 123.197 106.516 120.229C101.004 123.303 97.4 127.861 95.704 133.903C95.28 135.599 95.068 137.242 95.068 138.832C95.068 142.33 96.075 144.98 98.089 146.782C100.103 148.584 102.647 149.485 105.721 149.485C112.505 149.485 116.798 146.199 118.6 139.627Z" fill="#1C0F0F"/>
</svg>
