<svg width="509" height="509" viewBox="0 0 509 509" fill="none" xmlns="http://www.w3.org/2000/svg">
<circle cx="254.5" cy="254.5" r="254.5" fill="url(#paint0_linear_35_3)" fill-opacity="0.01"/>
<mask id="mask0_35_3" style="mask-type:alpha" maskUnits="userSpaceOnUse" x="20" y="20" width="234" height="468">
<path d="M63 254C63 383.235 125 488 254 488C124.765 488 20 383.235 20 254C20 124.765 124.765 20 254 20C157 20 63 119 63 254Z" fill="url(#paint1_linear_35_3)"/>
</mask>
<g mask="url(#mask0_35_3)">
<path d="M66.9147 207L40.9893 157C77.8539 76.1759 159.367 20 254 20C168.657 20 85.6356 96.6359 66.9147 207Z" fill="url(#paint2_linear_35_3)"/>
<path d="M63 254C63 383.235 125 488 254 488C124.765 488 20 383.235 20 254C20 228.509 24.0759 203.971 31.6115 181L63.3644 239.5C63.1229 244.284 63 249.119 63 254Z" fill="url(#paint3_linear_35_3)"/>
</g>
<defs>
<linearGradient id="paint0_linear_35_3" x1="464" y1="-223" x2="24" y2="621" gradientUnits="userSpaceOnUse">
<stop stop-color="#FFC4C4"/>
<stop offset="0.375" stop-color="#0F1C17"/>
<stop offset="0.692958" stop-color="#1C0F0F"/>
<stop offset="1" stop-color="#981C45"/>
</linearGradient>
<linearGradient id="paint1_linear_35_3" x1="137" y1="20" x2="137" y2="488" gradientUnits="userSpaceOnUse">
<stop stop-color="white"/>
<stop offset="1" stop-color="white" stop-opacity="0"/>
</linearGradient>
<linearGradient id="paint2_linear_35_3" x1="137" y1="20" x2="137" y2="488" gradientUnits="userSpaceOnUse">
<stop stop-color="white"/>
<stop offset="1" stop-color="white" stop-opacity="0"/>
</linearGradient>
<linearGradient id="paint3_linear_35_3" x1="137" y1="20" x2="137" y2="488" gradientUnits="userSpaceOnUse">
<stop stop-color="white"/>
<stop offset="1" stop-color="white" stop-opacity="0"/>
</linearGradient>
</defs>
</svg>
