<svg width="644" height="863" viewBox="0 0 644 863" fill="none" xmlns="http://www.w3.org/2000/svg">
<path d="M90.6958 172.529C91.1776 173.107 91.7198 173.592 92.3224 173.985C92.8324 174.317 93.3181 174.535 93.7796 174.638C94.1947 174.71 94.5635 174.752 94.8859 174.764C95.1922 174.7 95.4068 174.674 95.5297 174.688C96.2954 174.527 96.9101 174.597 97.3736 174.899C97.4663 174.96 97.6679 175.157 97.9784 175.492C98.5065 176.1 98.6982 176.819 98.5534 177.65C98.3924 178.403 97.8889 179.429 97.043 180.727L86.3027 197.207C85.6682 198.181 85.0075 198.84 84.3204 199.185C83.6636 199.483 83.057 199.451 82.5007 199.089C82.2226 198.907 81.9666 198.641 81.7327 198.291C81.4525 197.91 81.2952 197.543 81.2608 197.191C81.2103 196.762 81.197 196.225 81.221 195.58C81.2872 194.566 81.2164 193.661 81.0085 192.865C80.8007 192.07 80.2231 191.132 79.2756 190.052L74.4738 184.347L67.4042 195.194L70.1442 199.655C71.3458 201.561 72.4334 202.831 73.4069 203.465C73.9632 203.828 74.4872 204.037 74.9789 204.094C75.4242 204.12 75.9532 204.068 76.5657 203.939C77.1481 203.856 77.6085 203.859 77.9471 203.948C78.2695 203.96 78.6091 204.148 78.9659 204.512C79.5404 205.151 79.7704 205.862 79.6558 206.646C79.525 207.354 79.0518 208.333 78.2361 209.585L71.4837 219.946C70.7888 221.012 70.0747 221.702 69.3413 222.017C68.5615 222.301 67.8471 222.232 67.1981 221.809C66.4564 221.326 66.0582 220.67 66.0035 219.842C65.8723 219.03 65.8991 217.924 66.0841 216.526C66.2951 214.682 66.348 213.131 66.2428 211.874C66.0912 210.586 65.6092 209.248 64.7967 207.86L47.2044 178.76C44.4563 174.261 43.0324 170.163 42.9324 166.465C42.8164 162.691 44.133 158.695 46.8823 154.476C49.9639 149.748 53.3241 146.72 56.963 145.393C60.5555 144.036 64.067 144.475 67.4975 146.71C68.9346 147.647 70.2669 148.846 71.4946 150.306L90.6958 172.529ZM68.8797 177.729L59.0432 166.067C58.6078 165.519 58.0887 165.049 57.4861 164.656C56.6053 164.082 55.7901 163.914 55.0405 164.152C54.2749 164.314 53.605 164.835 53.031 165.716C52.3059 166.828 52.011 167.99 52.1464 169.201C52.2818 170.412 52.9272 171.955 54.0824 173.831L62.5352 187.464L68.8797 177.729Z" fill="#FF869E"/>
<path d="M87.9713 125.324C91.2487 122.106 94.3627 119.631 97.3134 117.897C100.304 116.125 102.954 115.152 105.264 114.978C107.613 114.765 109.447 115.329 110.765 116.672C112.122 118.054 112.674 119.722 112.421 121.676C112.208 123.591 111.134 125.499 109.199 127.398C107.224 129.336 105.062 130.49 102.711 130.86C100.399 131.19 98.5067 130.606 97.0337 129.105C96.5298 128.592 96.1242 128.021 95.817 127.392C94.9124 127.892 94.1837 128.414 93.6309 128.956C92.6438 129.925 92.0471 130.976 91.841 132.109C91.6744 133.203 92.0372 134.165 92.9295 134.995C93.9373 136.022 95.3034 136.386 97.0278 136.089C98.7522 135.792 101.283 135.053 104.62 133.871C107.447 132.801 109.86 132.021 111.86 131.531C113.861 130.963 115.839 130.805 117.793 131.058C119.786 131.272 121.52 132.129 122.993 133.63C123.303 133.945 123.805 134.615 124.5 135.639C126.465 138.905 126.763 142.723 125.392 147.092C124.021 151.462 120.986 155.953 116.287 160.566C110.996 165.76 106.093 169.178 101.578 170.819C97.1028 172.421 93.6441 171.978 91.202 169.49C89.5352 167.792 88.7887 166.005 88.9626 164.128C89.1364 162.252 90.0723 160.48 91.7702 158.813C93.7446 156.875 96.0236 155.84 98.6073 155.707C101.23 155.536 103.472 156.398 105.333 158.293C105.837 158.807 106.301 159.398 106.725 160.067C107.905 159.373 108.93 158.6 109.799 157.748C110.825 156.74 111.403 155.63 111.532 154.418C111.66 153.206 111.24 152.107 110.271 151.12C109.34 150.25 108.13 149.926 106.641 150.147C105.113 150.329 102.956 150.896 100.169 151.848C97.578 152.763 95.3611 153.427 93.5183 153.841C91.6367 154.215 89.7386 154.256 87.824 153.964C85.9489 153.634 84.2748 152.718 82.8018 151.218C79.6232 147.98 78.4462 144.095 79.2706 139.564C80.0958 134.955 82.996 130.208 87.9713 125.324Z" fill="#FF869E"/>
<path d="M149.669 80.3707C152.335 78.6845 154.936 78.0867 157.472 78.5773C160.026 78.9916 161.968 80.2508 163.299 82.3551C164.719 84.5997 165.151 86.7822 164.593 88.9027C164.036 91.0231 162.658 92.7785 160.461 94.1689C158.497 95.4113 156.666 95.8817 154.969 95.5801C153.243 95.2317 152.004 94.4115 151.252 93.1193C150.725 93.3216 150.446 93.7601 150.415 94.4348C150.383 95.1095 150.609 96.2432 151.093 97.836C151.421 98.8724 151.495 99.9717 151.313 101.134C154.641 99.3563 157.461 98.5872 159.773 98.8268C162.086 99.0664 163.848 100.145 165.061 102.062C165.653 102.997 166.081 104.036 166.345 105.178L167.159 107.708C167.214 108.001 167.359 108.334 167.596 108.708C168.01 109.363 168.521 109.498 169.129 109.114C169.69 108.759 170.01 108.229 170.088 107.525C170.184 106.744 170.301 106.309 170.442 106.221C170.676 106.073 170.966 106.118 171.313 106.357C171.631 106.548 171.923 106.855 172.189 107.276C173.094 108.602 173.516 110.201 173.456 112.073C173.413 113.868 172.769 115.748 171.525 117.714C170.298 119.603 168.445 121.332 165.966 122.9C162.974 124.793 159.999 125.628 157.041 125.403C154.131 125.149 151.906 123.807 150.368 121.375C149.806 120.486 149.357 119.363 149.021 118.004L148.135 113.654C147.836 112.664 147.569 111.982 147.332 111.608C146.947 111 146.456 110.689 145.858 110.675C145.306 110.631 144.609 110.875 143.768 111.407L142.365 112.295L145.731 124.603C145.946 125.253 146.186 125.788 146.453 126.209C146.837 126.817 147.265 127.234 147.735 127.46C148.176 127.639 148.71 127.76 149.338 127.821C149.873 127.941 150.284 128.074 150.572 128.219C150.831 128.317 151.017 128.559 151.131 128.946C151.281 129.702 151.095 130.442 150.571 131.166C150.047 131.89 149.06 132.711 147.61 133.628L131.618 143.745C130.402 144.514 129.395 144.889 128.597 144.87C127.77 144.804 127.243 144.385 127.016 143.612C126.848 142.932 127.028 142.131 127.557 141.207C128.022 140.389 128.325 139.575 128.467 138.765C128.61 137.955 128.489 136.885 128.107 135.556L116.626 93.8096C116.5 93.3 116.349 92.9049 116.171 92.6243C115.846 92.11 115.439 91.7778 114.952 91.628C114.511 91.4486 113.976 91.3283 113.348 91.2672C112.644 91.189 112.086 91.0835 111.675 90.9508C111.31 90.7886 111.05 90.4293 110.895 89.8729C110.495 88.6199 111.376 86.7528 113.539 84.2717C115.702 81.7906 118.232 79.633 121.132 77.7989C123.844 76.0831 126.157 75.3403 128.07 75.5703C129.954 75.7536 131.458 76.7337 132.582 78.5107C133.262 79.5862 133.749 80.7185 134.043 81.9076L140.543 105.689L142.858 104.224C143.793 103.633 144.363 102.879 144.57 101.963C144.823 101.017 144.772 99.9028 144.419 98.6202C143.399 94.4203 143.248 90.8168 143.965 87.8098C144.681 84.8028 146.583 82.3231 149.669 80.3707Z" fill="#FF869E"/>
<path d="M209.573 56.5586C215.669 54.7339 220.887 54.4137 225.227 55.5983C229.551 56.7298 232.403 59.6015 233.784 64.2133C234.307 65.9626 234.584 68.0457 234.615 70.4625L234.639 82.4113C234.65 82.6392 234.703 82.9122 234.798 83.2302C235.052 84.0784 235.523 84.3993 236.212 84.193C236.848 84.0026 237.299 83.5789 237.565 82.9219C237.867 82.1959 238.098 81.8092 238.257 81.7616C238.522 81.6823 238.79 81.8043 239.06 82.1278C239.383 82.4354 239.616 82.8277 239.759 83.3048C240.24 84.7202 240.12 86.3446 239.398 88.1779C238.729 89.9954 237.583 91.6668 235.96 93.1922C234.338 94.7176 232.387 95.8215 230.107 96.5038C227.351 97.3289 224.841 97.5314 222.578 97.1114C220.315 96.6913 218.519 95.6117 217.19 93.8725C216.171 96.2568 214.733 98.3044 212.877 100.015C211.006 101.673 208.824 102.875 206.332 103.62C203.523 104.461 201.005 104.637 198.78 104.148C196.538 103.607 194.686 102.63 193.224 101.22C191.8 99.74 190.802 98.046 190.23 96.1377C189.977 95.2895 189.81 94.4441 189.731 93.6013C189.484 89.6898 190.488 86.3859 192.742 83.6896C195.049 80.9774 198.164 79.0342 202.087 77.86C206.487 76.543 211.013 75.9389 215.667 76.0477L216.084 70.2047C216.106 67.7721 215.935 65.9461 215.57 64.7269C215.136 63.4706 214.427 62.6433 213.441 62.2452C212.456 61.8471 211.141 61.894 209.498 62.3859C210.07 63.1389 210.491 63.9659 210.76 64.8671C211.347 66.8284 211.113 68.7469 210.057 70.6224C209.001 72.498 207.095 73.8483 204.339 74.6734C201.741 75.4509 199.534 75.5052 197.716 74.8363C195.936 74.0986 194.792 72.8815 194.284 71.1852C193.491 68.5347 194.317 65.8906 196.761 63.2527C199.206 60.6148 203.477 58.3834 209.573 56.5586ZM212.332 81.9843C210.848 82.4286 209.803 83.3767 209.198 84.8285C208.63 86.2114 208.544 87.5655 208.941 88.8908C209.195 89.7389 209.587 90.3725 210.116 90.7915C210.699 91.1947 211.362 91.2852 212.104 91.063C212.793 90.8567 213.456 90.3695 214.092 89.6014C214.766 88.7644 215.122 87.7338 215.159 86.5096L215.425 81.3184C214.476 81.4291 213.445 81.6511 212.332 81.9843Z" fill="#FF869E"/>
<path d="M292.724 74.3341C292.64 74.5672 292.626 74.9035 292.679 75.3429C292.726 75.7274 292.845 76.0195 293.036 76.2192C293.283 76.4122 293.571 76.4886 293.9 76.4486C294.56 76.3684 295.075 76.027 295.448 75.4243C295.869 74.76 296.162 74.4178 296.327 74.3978C296.601 74.3644 296.844 74.5299 297.056 74.8944C297.261 75.204 297.393 75.6059 297.453 76.1003C297.702 77.6865 297.37 79.3154 296.459 80.987C295.54 82.6036 294.07 84.0365 292.048 85.2857C290.075 86.4732 287.605 87.2473 284.638 87.6079C281.013 88.0486 278.029 87.5752 275.687 86.1878C273.337 84.7454 271.965 82.6269 271.57 79.8322C271.322 77.7998 271.54 75.4601 272.221 72.8132L275.311 60.3977C275.498 59.6502 275.566 59.0568 275.512 58.6173C275.425 57.9032 275.111 57.384 274.57 57.0596C274.077 56.6736 273.501 56.5206 272.842 56.6008C271.634 56.7477 270.55 57.4647 269.592 58.7517C268.627 59.9839 267.998 61.4539 267.704 63.1619L264.638 80.5911C264.492 81.2221 264.452 81.8122 264.519 82.3615C264.599 83.0206 264.803 83.5532 265.132 83.9593C265.453 84.3104 265.887 84.6756 266.435 85.0549C266.86 85.3378 267.171 85.6065 267.369 85.8611C267.568 86.1157 267.635 86.4419 267.572 86.8398C267.439 87.5806 266.981 88.1658 266.197 88.5956C265.413 89.0253 264.142 89.347 262.384 89.5607L243.599 91.8444C242.171 92.018 241.128 91.9219 240.47 91.5559C239.751 91.1416 239.427 90.54 239.498 89.751C239.638 89.0651 240.144 88.4183 241.018 87.8104C241.789 87.2708 242.412 86.6655 242.888 85.9945C243.363 85.3235 243.713 84.3055 243.938 82.9404L248.376 58.2373C248.452 57.9493 248.461 57.5581 248.401 57.0638C248.327 56.4595 248.133 56.0093 247.818 55.7131C247.558 55.4103 247.124 55.0451 246.515 54.6175C245.912 54.2448 245.481 53.9071 245.221 53.6042C244.961 53.3013 244.88 52.8652 244.978 52.2959C245.154 50.9925 246.751 49.6836 249.768 48.3692C252.779 46.9998 255.987 46.1081 259.393 45.6941C262.139 45.3603 264.402 45.8655 266.182 47.2099C267.956 48.4993 268.923 50.4998 269.086 53.2113C270.944 49.6967 273.063 47.1817 275.443 45.666C277.816 44.0955 280.486 43.13 283.452 42.7694C286.802 42.362 289.617 43.051 291.897 44.8363C294.231 46.615 295.595 49.1247 295.989 52.3655C296.196 54.0683 296.125 55.777 295.776 57.4916L292.724 74.3341Z" fill="#FF869E"/>
<path d="M347.659 74.0257C347.539 74.4659 347.477 74.7691 347.474 74.935C347.466 75.3223 347.57 75.6288 347.787 75.8547C348.003 76.0806 348.278 76.197 348.61 76.2038C349.273 76.2176 349.832 75.9525 350.286 75.4084C350.797 74.8102 351.135 74.5128 351.301 74.5162C351.578 74.522 351.795 74.7202 351.953 75.1109C352.111 75.5016 352.185 75.9459 352.174 76.4438C352.199 77.9386 351.586 79.4479 350.337 80.9717C349.143 82.4966 347.54 83.7363 345.528 84.6908C343.516 85.6453 341.348 86.0985 339.025 86.0503C336.258 85.993 333.863 85.4176 331.838 84.324C329.813 83.2305 328.431 81.8182 327.692 80.0872C326.158 81.9925 324.413 83.3953 322.457 84.2957C320.502 85.196 318.445 85.6238 316.287 85.5791C313.743 85.5263 311.377 84.8408 309.19 83.5226C307.059 82.2055 305.354 80.3714 304.074 78.0204C302.851 75.6152 302.271 72.9189 302.333 69.9316C302.437 64.8973 303.475 60.1868 305.448 55.8001C307.477 51.3592 310.235 47.8189 313.721 45.1792C317.208 42.4842 321.137 41.182 325.507 41.2726C327.886 41.3219 329.9 41.6404 331.548 42.228C333.251 42.8168 334.783 43.6787 336.143 44.8138L339.157 35.5782C339.334 35.0838 339.425 34.6706 339.432 34.3387C339.445 33.7301 339.289 33.2288 338.965 32.8347C338.697 32.4417 338.317 32.0464 337.828 31.6488C337.283 31.1948 336.877 30.799 336.607 30.4613C336.392 30.1248 336.374 29.6816 336.551 29.1319C336.91 27.8663 338.675 26.796 341.848 25.9209C345.021 25.0458 348.322 24.6438 351.752 24.7149C354.961 24.7814 357.299 25.4387 358.768 26.6867C360.292 27.9359 361.032 29.6116 360.988 31.7138C360.963 32.9309 360.745 34.1163 360.333 35.27L347.659 74.0257ZM334.284 50.4204C333.415 49.6276 332.455 49.2203 331.403 49.1985C329.799 49.1652 328.198 50.322 326.6 52.6687C325.001 55.0154 323.697 57.8663 322.686 61.2214C321.676 64.5766 321.17 67.6101 321.17 70.322C321.107 73.3646 322.071 74.9066 324.062 74.9479C324.782 74.9628 325.396 74.6988 325.905 74.1559C326.416 73.5577 326.906 72.5993 327.376 71.2808L334.284 50.4204Z" fill="#FF869E"/>
<path d="M406.566 49.6717C411.057 50.6319 414.839 51.865 417.912 53.3708C421.039 54.8881 423.313 56.5624 424.732 58.3936C426.205 60.2364 426.745 62.0776 426.352 63.9174C425.947 65.8113 424.859 67.1914 423.09 68.0579C421.374 68.936 419.191 69.0916 416.539 68.5247C413.834 67.9462 411.679 66.7782 410.074 65.0205C408.524 63.2744 407.968 61.3732 408.408 59.317C408.558 58.6136 408.811 57.9603 409.166 57.3573C408.25 56.8785 407.413 56.5581 406.656 56.3962C405.303 56.1069 404.097 56.1886 403.039 56.6413C402.034 57.1055 401.432 57.9386 401.231 59.1406C400.93 60.5475 401.379 61.8883 402.578 63.1631C403.776 64.4379 405.789 66.1413 408.615 68.2733C411.066 70.0421 413.047 71.6257 414.559 73.024C416.136 74.3798 417.358 75.9425 418.225 77.7121C419.145 79.4933 419.386 81.412 418.946 83.4682C418.854 83.9011 418.572 84.6896 418.101 85.8337C416.46 89.274 413.439 91.627 409.038 92.8928C404.636 94.1586 399.216 94.1031 392.777 92.7263C385.526 91.1761 379.972 88.97 376.114 86.1081C372.309 83.2577 370.772 80.128 371.501 76.7191C371.998 74.3923 373.078 72.7841 374.739 71.8945C376.4 71.0049 378.394 70.8088 380.721 71.3063C383.427 71.8847 385.547 73.2151 387.082 75.2975C388.672 77.3914 389.189 79.737 388.633 82.3343C388.483 83.0377 388.246 83.7509 387.921 84.4737C389.151 85.076 390.36 85.5044 391.551 85.759C392.958 86.0597 394.202 85.9297 395.284 85.3688C396.366 84.808 397.051 83.8512 397.34 82.4984C397.552 81.2423 397.156 80.0541 396.15 78.9338C395.157 77.7594 393.494 76.2723 391.163 74.4724C388.971 72.8155 387.194 71.3323 385.834 70.0228C384.484 68.6592 383.403 67.0984 382.591 65.3403C381.833 63.5939 381.673 61.6925 382.113 59.6363C383.062 55.1993 385.653 52.0754 389.888 50.2649C394.189 48.4117 399.748 48.214 406.566 49.6717Z" fill="#FF869E"/>
<path d="M467.471 104.887C467.285 105.05 467.108 105.337 466.941 105.747C466.795 106.106 466.757 106.419 466.827 106.686C466.948 106.975 467.163 107.182 467.47 107.307C468.085 107.558 468.702 107.51 469.321 107.165C470.012 106.789 470.434 106.633 470.588 106.696C470.844 106.8 470.976 107.063 470.983 107.484C471.012 107.854 470.932 108.27 470.744 108.731C470.19 110.238 469.108 111.5 467.498 112.517C465.909 113.483 463.928 114.019 461.553 114.127C459.251 114.205 456.717 113.68 453.95 112.552C450.568 111.173 448.191 109.308 446.819 106.957C445.468 104.554 445.3 102.035 446.314 99.4009C447.086 97.505 448.414 95.5665 450.297 93.5853L459.036 84.2404C459.563 83.6787 459.911 83.1929 460.078 82.783C460.349 82.1168 460.328 81.5104 460.013 80.9638C459.77 80.3868 459.341 79.973 458.726 79.7223C457.753 79.3255 456.565 79.3794 455.165 79.8841C453.836 80.3583 452.457 81.4694 451.028 83.2171L451.09 83.0634L439.889 96.6925C439.484 97.2447 439.188 97.7514 439 98.2126C438.729 98.8787 438.637 99.469 438.727 99.9833C438.837 100.446 439.049 100.951 439.364 101.498C439.576 102.003 439.707 102.415 439.757 102.734C439.827 103.001 439.738 103.293 439.489 103.61C438.961 104.172 438.25 104.45 437.356 104.444C436.463 104.438 435.221 104.112 433.633 103.464L416.109 96.3216C414.776 95.7785 413.886 95.1768 413.439 94.5162C413.012 93.8044 413.047 93.1316 413.544 92.4978C414 91.9665 414.757 91.6477 415.816 91.5416C416.752 91.445 417.591 91.2192 418.333 90.8644C419.075 90.5096 419.876 89.7905 420.736 88.7069L448.051 55.1151C448.393 54.7166 448.627 54.3636 448.752 54.0562C448.982 53.4926 449.016 52.9687 448.855 52.4847C448.745 52.0216 448.532 51.5168 448.217 50.9701C447.872 50.3513 447.634 49.836 447.503 49.4241C447.423 49.0332 447.565 48.6128 447.927 48.163C448.715 47.1098 450.747 46.7429 454.022 47.0622C457.298 47.3816 460.525 48.1887 463.701 49.4836C466.673 50.6949 468.621 52.1462 469.545 53.8374C470.521 55.5495 470.612 57.3791 469.818 59.3262C469.358 60.4535 468.73 61.4821 467.933 62.4119L458.269 74.2477C461.332 72.449 464.174 71.4862 466.795 71.3595C469.468 71.2536 472.111 71.7332 474.724 72.7984C477.849 74.0724 479.974 76.0437 481.097 78.7123C482.271 81.4019 482.243 84.2582 481.01 87.2814C480.363 88.8699 479.47 90.3283 478.331 91.6567L467.471 104.887Z" fill="#FF869E"/>
<path d="M515.967 96.736C521.231 100.312 524.774 104.156 526.595 108.27C528.447 112.337 528.021 116.362 525.316 120.345C524.29 121.855 522.849 123.385 520.994 124.934L511.743 132.497C511.573 132.649 511.395 132.862 511.208 133.137C510.711 133.869 510.759 134.437 511.354 134.842C511.904 135.215 512.517 135.297 513.194 135.088C513.948 134.864 514.394 134.799 514.531 134.892C514.76 135.048 514.834 135.332 514.754 135.746C514.719 136.191 514.562 136.619 514.282 137.031C513.488 138.298 512.153 139.23 510.275 139.828C508.443 140.456 506.424 140.623 504.216 140.328C502.009 140.032 499.921 139.216 497.953 137.879C495.573 136.262 493.831 134.444 492.728 132.424C491.626 130.404 491.329 128.329 491.839 126.2C489.346 126.915 486.851 127.093 484.352 126.734C481.885 126.329 479.575 125.396 477.424 123.934C474.998 122.286 473.272 120.445 472.246 118.41C471.252 116.33 470.84 114.277 471.011 112.253C471.259 110.214 471.942 108.371 473.062 106.723C473.559 105.99 474.11 105.328 474.713 104.734C477.591 102.073 480.787 100.766 484.301 100.812C487.861 100.889 491.335 102.078 494.722 104.379C498.521 106.959 501.847 110.088 504.7 113.766L509.495 110.4C511.396 108.882 512.704 107.597 513.419 106.544C514.119 105.414 514.313 104.342 513.999 103.326C513.686 102.31 512.82 101.32 511.401 100.357C511.178 101.276 510.802 102.124 510.274 102.902C509.123 104.596 507.487 105.625 505.366 105.99C503.245 106.356 500.995 105.73 498.614 104.113C496.372 102.59 494.936 100.912 494.307 99.0801C493.755 97.2337 493.977 95.5781 494.972 94.1134C496.527 91.8248 499.098 90.7959 502.688 91.0265C506.277 91.2572 510.704 93.1604 515.967 96.736ZM497.991 114.928C496.709 114.057 495.315 113.845 493.807 114.293C492.376 114.725 491.272 115.514 490.494 116.658C489.997 117.39 489.753 118.094 489.762 118.77C489.817 119.476 490.166 120.047 490.806 120.482C491.401 120.886 492.198 121.093 493.195 121.102C494.269 121.095 495.293 120.721 496.267 119.977L500.46 116.906C499.775 116.24 498.952 115.58 497.991 114.928Z" fill="#FF869E"/>
<path d="M575.332 150.802C577.479 153.113 578.543 155.56 578.526 158.144C578.586 160.73 577.705 162.87 575.88 164.565C573.934 166.372 571.867 167.196 569.681 167.037C567.494 166.878 565.516 165.845 563.746 163.939C562.165 162.236 561.367 160.523 561.352 158.8C561.378 157.039 561.957 155.67 563.09 154.694C562.794 154.214 562.312 154.02 561.643 154.112C560.974 154.205 559.901 154.635 558.424 155.403C557.465 155.915 556.398 156.189 555.222 156.224C557.58 159.169 558.853 161.801 559.041 164.118C559.229 166.435 558.492 168.365 556.83 169.909C556.019 170.662 555.076 171.273 554.002 171.742L551.664 173.006C551.386 173.113 551.085 173.318 550.761 173.619C550.193 174.146 550.154 174.673 550.643 175.2C551.095 175.687 551.674 175.904 552.381 175.852C553.166 175.803 553.615 175.839 553.728 175.96C553.916 176.163 553.925 176.457 553.754 176.842C553.624 177.19 553.376 177.533 553.011 177.872C551.873 179.005 550.378 179.713 548.528 179.997C546.755 180.283 544.789 179.995 542.628 179.132C540.546 178.272 538.507 176.767 536.511 174.618C534.101 172.023 532.736 169.252 532.414 166.303C532.13 163.395 533.043 160.962 535.151 159.004C535.921 158.289 536.944 157.642 538.218 157.062L542.332 155.394C543.25 154.919 543.872 154.531 544.196 154.23C544.723 153.74 544.939 153.2 544.843 152.609C544.785 152.059 544.418 151.419 543.74 150.689L542.61 149.473L531.128 155.038C530.528 155.368 530.046 155.703 529.681 156.042C529.154 156.531 528.823 157.028 528.686 157.532C528.591 157.998 528.571 158.545 528.626 159.174C528.605 159.721 528.55 160.15 528.461 160.46C528.411 160.732 528.207 160.96 527.848 161.142C527.133 161.429 526.371 161.381 525.563 160.999C524.755 160.616 523.767 159.797 522.6 158.54L509.723 144.673C508.744 143.618 508.191 142.697 508.063 141.91C507.976 141.084 508.292 140.489 509.01 140.124C509.648 139.834 510.469 139.865 511.474 140.215C512.363 140.522 513.219 140.671 514.041 140.663C514.864 140.654 515.893 140.34 517.13 139.72L556.065 120.782C556.542 120.565 556.903 120.343 557.146 120.117C557.592 119.703 557.844 119.243 557.902 118.736C557.998 118.269 558.018 117.722 557.963 117.094C557.911 116.387 557.912 115.819 557.967 115.391C558.06 115.002 558.366 114.681 558.884 114.426C560.042 113.803 562.039 114.328 564.875 115.999C567.71 117.67 570.295 119.762 572.63 122.276C574.814 124.628 575.968 126.765 576.092 128.689C576.257 130.574 575.57 132.232 574.029 133.663C573.096 134.529 572.072 135.215 570.957 135.722L548.771 146.471L550.634 148.478C551.387 149.289 552.233 149.712 553.171 149.746C554.148 149.822 555.234 149.568 556.43 148.986C560.372 147.213 563.886 146.404 566.974 146.557C570.061 146.711 572.847 148.126 575.332 150.802Z" fill="#FF869E"/>
<path d="M598.612 185.62C602.17 191.68 603.77 196.644 603.411 200.512C603.1 204.353 601.441 207.156 598.435 208.921C597.529 209.453 596.638 209.848 595.762 210.106C592.193 211.24 588.749 210.567 585.432 208.087C582.191 205.627 579.267 202.178 576.661 197.741C575.344 195.498 574.254 193.315 573.392 191.191C570.883 192.6 569.533 194.291 569.344 196.263C569.155 198.235 569.789 200.462 571.246 202.943C571.918 204.088 572.682 205.115 573.537 206.025C574.44 206.906 575.63 208.004 577.107 209.318C578.369 210.374 579.14 211.141 579.42 211.618C579.729 212.143 579.573 212.587 578.952 212.951C577.31 213.98 575.181 214.396 572.563 214.201C569.994 213.977 567.322 212.98 564.549 211.207C561.775 209.435 559.338 206.76 557.236 203.181C554.126 197.885 552.912 192.758 553.594 187.802C554.277 182.845 557.171 178.867 562.276 175.869C563.708 175.028 565.49 174.238 567.622 173.499C574.192 171.245 580.132 171.254 585.444 173.524C590.832 175.815 595.221 179.847 598.612 185.62ZM577.98 189.17C578.045 189.389 578.175 189.665 578.371 189.999C579.548 192.003 581.375 192.983 583.852 192.94C586.33 192.897 588.699 192.179 590.962 190.787C592.27 189.954 592.713 189.18 592.293 188.465C591.985 187.94 591.191 187.572 589.912 187.36C588.681 187.121 587.02 187.134 584.929 187.399C582.867 187.712 580.551 188.302 577.98 189.17Z" fill="#FF869E"/>
</svg>
