<svg width="644" height="863" viewBox="0 0 644 863" fill="none" xmlns="http://www.w3.org/2000/svg">
<g clip-path="url(#clip0_136_14)">
<path d="M90.6962 179.529C91.178 180.107 91.7202 180.592 92.3228 180.985C92.8328 181.317 93.3185 181.535 93.78 181.638C94.1951 181.71 94.5639 181.752 94.8863 181.764C95.1926 181.7 95.4072 181.674 95.5301 181.688C96.2958 181.527 96.9105 181.597 97.374 181.899C97.4667 181.96 97.6683 182.157 97.9788 182.492C98.5069 183.1 98.6986 183.819 98.5538 184.65C98.3928 185.403 97.8893 186.429 97.0434 187.727L86.3031 204.207C85.6686 205.181 85.0079 205.84 84.3208 206.185C83.664 206.483 83.0574 206.451 82.5011 206.089C82.223 205.907 81.967 205.641 81.7331 205.291C81.4529 204.91 81.2956 204.543 81.2612 204.191C81.2107 203.762 81.1974 203.225 81.2214 202.58C81.2876 201.566 81.2168 200.661 81.0089 199.865C80.8011 199.07 80.2235 198.132 79.276 197.052L74.4742 191.347L67.4046 202.194L70.1446 206.655C71.3462 208.561 72.4338 209.831 73.4073 210.465C73.9636 210.828 74.4876 211.037 74.9793 211.094C75.4246 211.12 75.9536 211.068 76.5661 210.939C77.1485 210.856 77.6089 210.859 77.9475 210.948C78.2699 210.96 78.6095 211.148 78.9663 211.512C79.5408 212.151 79.7708 212.862 79.6562 213.646C79.5254 214.354 79.0522 215.333 78.2365 216.585L71.4841 226.946C70.7892 228.012 70.0751 228.702 69.3417 229.017C68.5619 229.301 67.8475 229.232 67.1985 228.809C66.4568 228.326 66.0586 227.67 66.0039 226.842C65.8727 226.03 65.8995 224.924 66.0845 223.526C66.2955 221.682 66.3484 220.131 66.2432 218.874C66.0916 217.586 65.6096 216.248 64.7971 214.86L47.2048 185.76C44.4567 181.261 43.0328 177.163 42.9328 173.465C42.8168 169.691 44.1334 165.695 46.8827 161.476C49.9643 156.748 53.3245 153.72 56.9634 152.393C60.5559 151.036 64.0674 151.475 67.4979 153.71C68.935 154.647 70.2673 155.846 71.495 157.306L90.6962 179.529ZM68.8801 184.729L59.0436 173.067C58.6082 172.519 58.0891 172.049 57.4865 171.656C56.6057 171.082 55.7905 170.914 55.0409 171.152C54.2753 171.314 53.6054 171.835 53.0314 172.716C52.3063 173.828 52.0114 174.99 52.1468 176.201C52.2822 177.412 52.9276 178.955 54.0828 180.831L62.5356 194.464L68.8801 184.729Z" fill="#FF869E"/>
<path d="M87.971 132.324C91.2484 129.106 94.3624 126.631 97.3131 124.897C100.304 123.125 102.954 122.152 105.264 121.978C107.613 121.765 109.447 122.329 110.765 123.672C112.122 125.054 112.674 126.722 112.421 128.676C112.208 130.591 111.134 132.499 109.199 134.398C107.224 136.336 105.062 137.49 102.711 137.86C100.399 138.19 98.5064 137.606 97.0334 136.105C96.5295 135.592 96.1239 135.021 95.8167 134.392C94.9121 134.892 94.1834 135.414 93.6306 135.956C92.6435 136.925 92.0468 137.976 91.8407 139.109C91.6741 140.203 92.0369 141.165 92.9292 141.995C93.937 143.022 95.3031 143.386 97.0275 143.089C98.7519 142.792 101.283 142.053 104.62 140.871C107.447 139.801 109.86 139.021 111.86 138.531C113.861 137.963 115.839 137.805 117.793 138.058C119.786 138.272 121.52 139.129 122.993 140.63C123.303 140.945 123.805 141.615 124.5 142.639C126.465 145.905 126.763 149.723 125.392 154.092C124.021 158.462 120.986 162.953 116.287 167.566C110.996 172.76 106.093 176.178 101.578 177.819C97.1025 179.421 93.6438 178.978 91.2017 176.49C89.5349 174.792 88.7884 173.005 88.9623 171.128C89.1361 169.252 90.072 167.48 91.7699 165.813C93.7443 163.875 96.0233 162.84 98.607 162.707C101.23 162.536 103.472 163.398 105.333 165.293C105.837 165.807 106.301 166.398 106.725 167.067C107.905 166.373 108.93 165.6 109.799 164.748C110.825 163.74 111.403 162.63 111.532 161.418C111.66 160.206 111.24 159.107 110.271 158.12C109.34 157.25 108.13 156.926 106.641 157.147C105.113 157.329 102.956 157.896 100.169 158.848C97.5777 159.763 95.3608 160.427 93.518 160.841C91.6364 161.215 89.7383 161.256 87.8237 160.964C85.9486 160.634 84.2745 159.718 82.8015 158.218C79.6229 154.98 78.4459 151.095 79.2703 146.564C80.0955 141.955 82.9957 137.208 87.971 132.324Z" fill="#FF869E"/>
<path d="M149.669 87.3707C152.335 85.6845 154.936 85.0867 157.472 85.5773C160.026 85.9916 161.968 87.2508 163.299 89.3551C164.719 91.5997 165.151 93.7822 164.593 95.9027C164.036 98.0231 162.658 99.7785 160.461 101.169C158.497 102.411 156.666 102.882 154.969 102.58C153.243 102.232 152.004 101.412 151.252 100.119C150.725 100.322 150.446 100.76 150.415 101.435C150.383 102.11 150.609 103.243 151.093 104.836C151.421 105.872 151.495 106.972 151.313 108.134C154.641 106.356 157.461 105.587 159.773 105.827C162.086 106.066 163.848 107.145 165.061 109.062C165.653 109.997 166.081 111.036 166.345 112.178L167.159 114.708C167.214 115.001 167.359 115.334 167.596 115.708C168.01 116.363 168.521 116.498 169.129 116.114C169.69 115.759 170.01 115.229 170.088 114.525C170.184 113.744 170.301 113.309 170.442 113.221C170.676 113.073 170.966 113.118 171.313 113.357C171.631 113.548 171.923 113.855 172.189 114.276C173.094 115.602 173.516 117.201 173.456 119.073C173.413 120.868 172.769 122.748 171.525 124.714C170.298 126.603 168.445 128.332 165.966 129.9C162.974 131.793 159.999 132.628 157.041 132.403C154.131 132.149 151.906 130.807 150.368 128.375C149.806 127.486 149.357 126.363 149.021 125.004L148.135 120.654C147.836 119.664 147.569 118.982 147.332 118.608C146.947 118 146.456 117.689 145.858 117.675C145.306 117.631 144.609 117.875 143.768 118.407L142.365 119.295L145.731 131.603C145.946 132.253 146.186 132.788 146.453 133.209C146.837 133.817 147.265 134.234 147.735 134.46C148.176 134.639 148.71 134.76 149.338 134.821C149.873 134.941 150.284 135.074 150.572 135.219C150.831 135.317 151.017 135.559 151.131 135.946C151.281 136.702 151.095 137.442 150.571 138.166C150.047 138.89 149.06 139.711 147.61 140.628L131.618 150.745C130.402 151.514 129.395 151.889 128.597 151.87C127.77 151.804 127.243 151.385 127.016 150.612C126.848 149.932 127.028 149.131 127.557 148.207C128.022 147.389 128.325 146.575 128.467 145.765C128.61 144.955 128.489 143.885 128.107 142.556L116.626 100.81C116.5 100.3 116.349 99.9049 116.171 99.6243C115.846 99.11 115.439 98.7778 114.952 98.628C114.511 98.4486 113.976 98.3283 113.348 98.2672C112.644 98.189 112.086 98.0835 111.675 97.9508C111.31 97.7886 111.05 97.4293 110.895 96.8729C110.495 95.6199 111.376 93.7528 113.539 91.2717C115.702 88.7906 118.232 86.633 121.132 84.7989C123.844 83.0831 126.157 82.3403 128.07 82.5703C129.954 82.7536 131.458 83.7337 132.582 85.5107C133.262 86.5862 133.749 87.7185 134.043 88.9076L140.543 112.689L142.858 111.224C143.793 110.633 144.363 109.879 144.57 108.963C144.823 108.017 144.772 106.903 144.419 105.62C143.399 101.42 143.248 97.8168 143.965 94.8098C144.681 91.8028 146.583 89.3231 149.669 87.3707Z" fill="#FF869E"/>
<path d="M209.573 63.5586C215.669 61.7339 220.887 61.4137 225.227 62.5983C229.551 63.7298 232.403 66.6015 233.784 71.2133C234.307 72.9626 234.584 75.0457 234.615 77.4625L234.639 89.4113C234.65 89.6392 234.703 89.9122 234.798 90.2302C235.052 91.0784 235.523 91.3993 236.212 91.193C236.848 91.0026 237.299 90.5789 237.565 89.9219C237.867 89.1959 238.098 88.8092 238.257 88.7616C238.522 88.6823 238.79 88.8043 239.06 89.1278C239.383 89.4354 239.616 89.8277 239.759 90.3048C240.24 91.7202 240.12 93.3446 239.398 95.1779C238.729 96.9954 237.583 98.6668 235.96 100.192C234.338 101.718 232.387 102.822 230.107 103.504C227.351 104.329 224.841 104.531 222.578 104.111C220.315 103.691 218.519 102.612 217.19 100.873C216.171 103.257 214.733 105.304 212.877 107.015C211.006 108.673 208.824 109.875 206.332 110.62C203.523 111.461 201.005 111.637 198.78 111.148C196.538 110.607 194.686 109.63 193.224 108.22C191.8 106.74 190.802 105.046 190.23 103.138C189.977 102.29 189.81 101.444 189.731 100.601C189.484 96.6898 190.488 93.3859 192.742 90.6896C195.049 87.9774 198.164 86.0342 202.087 84.86C206.487 83.543 211.013 82.9389 215.667 83.0477L216.084 77.2047C216.106 74.7721 215.935 72.9461 215.57 71.7269C215.136 70.4706 214.427 69.6433 213.441 69.2452C212.456 68.8471 211.141 68.894 209.498 69.3859C210.07 70.1389 210.491 70.9659 210.76 71.8671C211.347 73.8284 211.113 75.7469 210.057 77.6224C209.001 79.498 207.095 80.8483 204.339 81.6734C201.741 82.4509 199.534 82.5052 197.716 81.8363C195.936 81.0986 194.792 79.8815 194.284 78.1852C193.491 75.5347 194.317 72.8906 196.761 70.2527C199.206 67.6148 203.477 65.3834 209.573 63.5586ZM212.332 88.9843C210.848 89.4286 209.803 90.3767 209.198 91.8285C208.63 93.2114 208.544 94.5655 208.941 95.8908C209.195 96.7389 209.587 97.3725 210.116 97.7915C210.699 98.1947 211.362 98.2852 212.104 98.063C212.793 97.8567 213.456 97.3695 214.092 96.6014C214.766 95.7644 215.122 94.7338 215.159 93.5096L215.425 88.3184C214.476 88.4291 213.445 88.6511 212.332 88.9843Z" fill="#FF869E"/>
<path d="M292.724 81.3341C292.64 81.5672 292.626 81.9035 292.679 82.3429C292.726 82.7274 292.845 83.0195 293.036 83.2192C293.283 83.4122 293.571 83.4886 293.9 83.4486C294.56 83.3684 295.075 83.027 295.448 82.4243C295.869 81.76 296.162 81.4178 296.327 81.3978C296.601 81.3644 296.844 81.5299 297.056 81.8944C297.261 82.204 297.393 82.6059 297.453 83.1003C297.702 84.6865 297.37 86.3154 296.459 87.987C295.54 89.6036 294.07 91.0365 292.048 92.2857C290.075 93.4732 287.605 94.2473 284.638 94.6079C281.013 95.0486 278.029 94.5752 275.687 93.1878C273.337 91.7454 271.965 89.6269 271.57 86.8322C271.322 84.7998 271.54 82.4601 272.221 79.8132L275.311 67.3977C275.498 66.6502 275.566 66.0568 275.512 65.6173C275.425 64.9032 275.111 64.384 274.57 64.0596C274.077 63.6736 273.501 63.5206 272.842 63.6008C271.634 63.7477 270.55 64.4647 269.592 65.7517C268.627 66.9839 267.998 68.4539 267.704 70.1619L264.638 87.5911C264.492 88.2221 264.452 88.8122 264.519 89.3615C264.599 90.0206 264.803 90.5532 265.132 90.9593C265.453 91.3104 265.887 91.6756 266.435 92.0549C266.86 92.3378 267.171 92.6065 267.369 92.8611C267.568 93.1157 267.635 93.4419 267.572 93.8398C267.439 94.5806 266.981 95.1658 266.197 95.5956C265.413 96.0253 264.142 96.347 262.384 96.5607L243.599 98.8444C242.171 99.018 241.128 98.9219 240.47 98.5559C239.751 98.1416 239.427 97.54 239.498 96.751C239.638 96.0651 240.144 95.4183 241.018 94.8104C241.789 94.2708 242.412 93.6655 242.888 92.9945C243.363 92.3235 243.713 91.3055 243.938 89.9404L248.376 65.2373C248.452 64.9493 248.461 64.5581 248.401 64.0638C248.327 63.4595 248.133 63.0093 247.818 62.7131C247.558 62.4103 247.124 62.0451 246.515 61.6175C245.912 61.2448 245.481 60.9071 245.221 60.6042C244.961 60.3013 244.88 59.8652 244.978 59.2959C245.154 57.9925 246.751 56.6836 249.768 55.3692C252.779 53.9998 255.987 53.1081 259.393 52.6941C262.139 52.3603 264.402 52.8655 266.182 54.2099C267.956 55.4993 268.923 57.4998 269.086 60.2113C270.944 56.6967 273.063 54.1817 275.443 52.666C277.816 51.0955 280.486 50.13 283.452 49.7694C286.802 49.362 289.617 50.051 291.897 51.8363C294.231 53.615 295.595 56.1247 295.989 59.3655C296.196 61.0683 296.125 62.777 295.776 64.4916L292.724 81.3341Z" fill="#FF869E"/>
<path d="M347.659 81.0257C347.539 81.4659 347.477 81.7691 347.474 81.935C347.466 82.3223 347.57 82.6288 347.787 82.8547C348.003 83.0806 348.278 83.197 348.61 83.2038C349.273 83.2176 349.832 82.9525 350.286 82.4084C350.797 81.8102 351.135 81.5128 351.301 81.5162C351.578 81.522 351.795 81.7202 351.953 82.1109C352.111 82.5016 352.185 82.9459 352.174 83.4438C352.199 84.9386 351.586 86.4479 350.337 87.9717C349.143 89.4966 347.54 90.7363 345.528 91.6908C343.516 92.6453 341.348 93.0985 339.025 93.0503C336.258 92.993 333.863 92.4176 331.838 91.324C329.813 90.2305 328.431 88.8182 327.692 87.0872C326.158 88.9925 324.413 90.3953 322.457 91.2957C320.502 92.196 318.445 92.6238 316.287 92.5791C313.743 92.5263 311.377 91.8408 309.19 90.5226C307.059 89.2055 305.354 87.3714 304.074 85.0204C302.851 82.6152 302.271 79.9189 302.333 76.9316C302.437 71.8973 303.475 67.1868 305.448 62.8001C307.477 58.3592 310.235 54.8189 313.721 52.1792C317.208 49.4842 321.137 48.182 325.507 48.2726C327.886 48.3219 329.9 48.6404 331.548 49.228C333.251 49.8168 334.783 50.6787 336.143 51.8138L339.157 42.5782C339.334 42.0838 339.425 41.6706 339.432 41.3387C339.445 40.7301 339.289 40.2288 338.965 39.8347C338.697 39.4417 338.317 39.0464 337.828 38.6488C337.283 38.1948 336.877 37.799 336.607 37.4613C336.392 37.1248 336.374 36.6816 336.551 36.1319C336.91 34.8663 338.675 33.796 341.848 32.9209C345.021 32.0458 348.322 31.6438 351.752 31.7149C354.961 31.7814 357.299 32.4387 358.768 33.6867C360.292 34.9359 361.032 36.6116 360.988 38.7138C360.963 39.9309 360.745 41.1163 360.333 42.27L347.659 81.0257ZM334.284 57.4204C333.415 56.6276 332.455 56.2203 331.403 56.1985C329.799 56.1652 328.198 57.322 326.6 59.6687C325.001 62.0154 323.697 64.8663 322.686 68.2214C321.676 71.5766 321.17 74.6101 321.17 77.322C321.107 80.3646 322.071 81.9066 324.062 81.9479C324.782 81.9628 325.396 81.6988 325.905 81.1559C326.416 80.5577 326.906 79.5993 327.376 78.2808L334.284 57.4204Z" fill="#FF869E"/>
<path d="M406.566 56.6717C411.057 57.6319 414.839 58.865 417.912 60.3708C421.039 61.8881 423.313 63.5624 424.732 65.3936C426.205 67.2364 426.745 69.0776 426.352 70.9174C425.947 72.8113 424.859 74.1914 423.09 75.0579C421.374 75.936 419.191 76.0916 416.539 75.5247C413.834 74.9462 411.679 73.7782 410.074 72.0205C408.524 70.2744 407.968 68.3732 408.408 66.317C408.558 65.6136 408.811 64.9603 409.166 64.3573C408.25 63.8785 407.413 63.5581 406.656 63.3962C405.303 63.1069 404.097 63.1886 403.039 63.6413C402.034 64.1055 401.432 64.9386 401.231 66.1406C400.93 67.5475 401.379 68.8883 402.578 70.1631C403.776 71.4379 405.789 73.1413 408.615 75.2733C411.066 77.0421 413.047 78.6257 414.559 80.024C416.136 81.3798 417.358 82.9425 418.225 84.7121C419.145 86.4933 419.386 88.412 418.946 90.4682C418.854 90.9011 418.572 91.6896 418.101 92.8337C416.46 96.274 413.439 98.627 409.038 99.8928C404.636 101.159 399.216 101.103 392.777 99.7263C385.526 98.1761 379.972 95.97 376.114 93.1081C372.309 90.2577 370.772 87.128 371.501 83.7191C371.998 81.3923 373.078 79.7841 374.739 78.8945C376.4 78.0049 378.394 77.8088 380.721 78.3063C383.427 78.8847 385.547 80.2151 387.082 82.2975C388.672 84.3914 389.189 86.737 388.633 89.3343C388.483 90.0377 388.246 90.7509 387.921 91.4737C389.151 92.076 390.36 92.5044 391.551 92.759C392.958 93.0597 394.202 92.9297 395.284 92.3688C396.366 91.808 397.051 90.8512 397.34 89.4984C397.552 88.2423 397.156 87.0541 396.15 85.9338C395.157 84.7594 393.494 83.2723 391.163 81.4724C388.971 79.8155 387.194 78.3323 385.834 77.0228C384.484 75.6592 383.403 74.0984 382.591 72.3403C381.833 70.5939 381.673 68.6925 382.113 66.6363C383.062 62.1993 385.653 59.0754 389.888 57.2649C394.189 55.4117 399.748 55.214 406.566 56.6717Z" fill="#FF869E"/>
<path d="M467.471 111.887C467.285 112.05 467.108 112.337 466.941 112.747C466.795 113.106 466.757 113.419 466.827 113.686C466.948 113.975 467.163 114.182 467.47 114.307C468.085 114.558 468.702 114.51 469.321 114.165C470.012 113.789 470.434 113.633 470.588 113.696C470.844 113.8 470.976 114.063 470.983 114.484C471.012 114.854 470.932 115.27 470.744 115.731C470.19 117.238 469.108 118.5 467.498 119.517C465.909 120.483 463.928 121.019 461.553 121.127C459.251 121.205 456.717 120.68 453.95 119.552C450.568 118.173 448.191 116.308 446.819 113.957C445.468 111.554 445.3 109.035 446.314 106.401C447.086 104.505 448.414 102.567 450.297 100.585L459.036 91.2404C459.563 90.6787 459.911 90.1929 460.078 89.783C460.349 89.1168 460.328 88.5104 460.013 87.9638C459.77 87.3868 459.341 86.973 458.726 86.7223C457.753 86.3255 456.565 86.3794 455.165 86.8841C453.836 87.3583 452.457 88.4694 451.028 90.2171L451.09 90.0634L439.889 103.693C439.484 104.245 439.188 104.751 439 105.213C438.729 105.879 438.637 106.469 438.727 106.983C438.837 107.446 439.049 107.951 439.364 108.498C439.576 109.003 439.707 109.415 439.757 109.734C439.827 110.001 439.738 110.293 439.489 110.61C438.961 111.172 438.25 111.45 437.356 111.444C436.463 111.438 435.221 111.112 433.633 110.464L416.109 103.322C414.776 102.779 413.886 102.177 413.439 101.516C413.012 100.804 413.047 100.132 413.544 99.4978C414 98.9665 414.757 98.6477 415.816 98.5416C416.752 98.445 417.591 98.2192 418.333 97.8644C419.075 97.5096 419.876 96.7905 420.736 95.7069L448.051 62.1151C448.393 61.7166 448.627 61.3636 448.752 61.0562C448.982 60.4926 449.016 59.9687 448.855 59.4847C448.745 59.0216 448.532 58.5168 448.217 57.9701C447.872 57.3513 447.634 56.836 447.503 56.4241C447.423 56.0332 447.565 55.6128 447.927 55.163C448.715 54.1098 450.747 53.7429 454.022 54.0622C457.298 54.3816 460.525 55.1887 463.701 56.4836C466.673 57.6949 468.621 59.1462 469.545 60.8374C470.521 62.5495 470.612 64.3791 469.818 66.3262C469.358 67.4535 468.73 68.4821 467.933 69.4119L458.269 81.2477C461.332 79.449 464.174 78.4862 466.795 78.3595C469.468 78.2536 472.111 78.7332 474.724 79.7984C477.849 81.0724 479.974 83.0437 481.097 85.7123C482.271 88.4019 482.243 91.2582 481.01 94.2814C480.363 95.8699 479.47 97.3283 478.331 98.6567L467.471 111.887Z" fill="#FF869E"/>
<path d="M515.967 103.736C521.231 107.312 524.774 111.156 526.595 115.27C528.447 119.337 528.021 123.362 525.316 127.345C524.29 128.855 522.849 130.385 520.994 131.934L511.743 139.497C511.573 139.649 511.395 139.862 511.208 140.137C510.711 140.869 510.759 141.437 511.354 141.842C511.904 142.215 512.517 142.297 513.194 142.088C513.948 141.864 514.394 141.799 514.531 141.892C514.76 142.048 514.834 142.332 514.754 142.746C514.719 143.191 514.562 143.619 514.282 144.031C513.488 145.298 512.153 146.23 510.275 146.828C508.443 147.456 506.424 147.623 504.216 147.328C502.009 147.032 499.921 146.216 497.953 144.879C495.573 143.262 493.831 141.444 492.728 139.424C491.626 137.404 491.329 135.329 491.839 133.2C489.346 133.915 486.851 134.093 484.352 133.734C481.885 133.329 479.575 132.396 477.424 130.934C474.998 129.286 473.272 127.445 472.246 125.41C471.252 123.33 470.84 121.277 471.011 119.253C471.259 117.214 471.942 115.371 473.062 113.723C473.559 112.99 474.11 112.328 474.713 111.734C477.591 109.073 480.787 107.766 484.301 107.812C487.861 107.889 491.335 109.078 494.722 111.379C498.521 113.959 501.847 117.088 504.7 120.766L509.495 117.4C511.396 115.882 512.704 114.597 513.419 113.544C514.119 112.414 514.313 111.342 513.999 110.326C513.686 109.31 512.82 108.32 511.401 107.357C511.178 108.276 510.802 109.124 510.274 109.902C509.123 111.596 507.487 112.625 505.366 112.99C503.245 113.356 500.995 112.73 498.614 111.113C496.372 109.59 494.936 107.912 494.307 106.08C493.755 104.234 493.977 102.578 494.972 101.113C496.527 98.8248 499.098 97.7959 502.688 98.0265C506.277 98.2572 510.704 100.16 515.967 103.736ZM497.991 121.928C496.709 121.057 495.315 120.845 493.807 121.293C492.376 121.725 491.272 122.514 490.494 123.658C489.997 124.39 489.753 125.094 489.762 125.77C489.817 126.476 490.166 127.047 490.806 127.482C491.401 127.886 492.198 128.093 493.195 128.102C494.269 128.095 495.293 127.721 496.267 126.977L500.46 123.906C499.775 123.24 498.952 122.58 497.991 121.928Z" fill="#FF869E"/>
<path d="M575.332 157.802C577.479 160.113 578.543 162.56 578.526 165.144C578.586 167.73 577.705 169.87 575.88 171.565C573.934 173.372 571.867 174.196 569.681 174.037C567.494 173.878 565.516 172.845 563.746 170.939C562.165 169.236 561.367 167.523 561.352 165.8C561.378 164.039 561.957 162.67 563.09 161.694C562.794 161.214 562.312 161.02 561.643 161.112C560.974 161.205 559.901 161.635 558.424 162.403C557.465 162.915 556.398 163.189 555.222 163.224C557.58 166.169 558.853 168.801 559.041 171.118C559.229 173.435 558.492 175.365 556.83 176.909C556.019 177.662 555.076 178.273 554.002 178.742L551.664 180.006C551.386 180.113 551.085 180.318 550.761 180.619C550.193 181.146 550.154 181.673 550.643 182.2C551.095 182.687 551.674 182.904 552.381 182.852C553.166 182.803 553.615 182.839 553.728 182.96C553.916 183.163 553.925 183.457 553.754 183.842C553.624 184.19 553.376 184.533 553.011 184.872C551.873 186.005 550.378 186.713 548.528 186.997C546.755 187.283 544.789 186.995 542.628 186.132C540.546 185.272 538.507 183.767 536.511 181.618C534.101 179.023 532.736 176.252 532.414 173.303C532.13 170.395 533.043 167.962 535.151 166.004C535.921 165.289 536.944 164.642 538.218 164.062L542.332 162.394C543.25 161.919 543.872 161.531 544.196 161.23C544.723 160.74 544.939 160.2 544.843 159.609C544.785 159.059 544.418 158.419 543.74 157.689L542.61 156.473L531.128 162.038C530.528 162.368 530.046 162.703 529.681 163.042C529.154 163.531 528.823 164.028 528.686 164.532C528.591 164.998 528.571 165.545 528.626 166.174C528.605 166.721 528.55 167.15 528.461 167.46C528.411 167.732 528.207 167.96 527.848 168.142C527.133 168.429 526.371 168.381 525.563 167.999C524.755 167.616 523.767 166.797 522.6 165.54L509.723 151.673C508.744 150.618 508.191 149.697 508.063 148.91C507.976 148.084 508.292 147.489 509.01 147.124C509.648 146.834 510.469 146.865 511.474 147.215C512.363 147.522 513.219 147.671 514.041 147.663C514.864 147.654 515.893 147.34 517.13 146.72L556.065 127.782C556.542 127.565 556.903 127.343 557.146 127.117C557.592 126.703 557.844 126.243 557.902 125.736C557.998 125.269 558.018 124.722 557.963 124.094C557.911 123.387 557.912 122.819 557.967 122.391C558.06 122.002 558.366 121.681 558.884 121.426C560.042 120.803 562.039 121.328 564.875 122.999C567.71 124.67 570.295 126.762 572.63 129.276C574.814 131.628 575.968 133.765 576.092 135.689C576.257 137.574 575.57 139.232 574.029 140.663C573.096 141.529 572.072 142.215 570.957 142.722L548.771 153.471L550.634 155.478C551.387 156.289 552.233 156.712 553.171 156.746C554.148 156.822 555.234 156.568 556.43 155.986C560.372 154.213 563.886 153.404 566.974 153.557C570.061 153.711 572.847 155.126 575.332 157.802Z" fill="#FF869E"/>
<path d="M598.612 192.62C602.17 198.68 603.77 203.644 603.411 207.512C603.1 211.353 601.441 214.156 598.435 215.921C597.529 216.453 596.638 216.848 595.762 217.106C592.193 218.24 588.749 217.567 585.432 215.087C582.191 212.627 579.267 209.178 576.661 204.741C575.344 202.498 574.254 200.315 573.392 198.191C570.883 199.6 569.533 201.291 569.344 203.263C569.155 205.235 569.789 207.462 571.246 209.943C571.918 211.088 572.682 212.115 573.537 213.025C574.44 213.906 575.63 215.004 577.107 216.318C578.369 217.374 579.14 218.141 579.42 218.618C579.729 219.143 579.573 219.587 578.952 219.951C577.31 220.98 575.181 221.396 572.563 221.201C569.994 220.977 567.322 219.98 564.549 218.207C561.775 216.435 559.338 213.76 557.236 210.181C554.126 204.885 552.912 199.758 553.594 194.802C554.277 189.845 557.171 185.867 562.276 182.869C563.708 182.028 565.49 181.238 567.622 180.499C574.192 178.245 580.132 178.254 585.444 180.524C590.832 182.815 595.221 186.847 598.612 192.62ZM577.98 196.17C578.045 196.389 578.175 196.665 578.371 196.999C579.548 199.003 581.375 199.983 583.852 199.94C586.33 199.897 588.699 199.179 590.962 197.787C592.27 196.954 592.713 196.18 592.293 195.465C591.985 194.94 591.191 194.572 589.912 194.36C588.681 194.121 587.02 194.134 584.929 194.399C582.867 194.712 580.551 195.302 577.98 196.17Z" fill="#FF869E"/>
<path d="M90.6962 172.529C91.178 173.107 91.7202 173.592 92.3228 173.985C92.8328 174.317 93.3185 174.535 93.78 174.638C94.1951 174.71 94.5639 174.752 94.8863 174.764C95.1926 174.7 95.4072 174.674 95.5301 174.688C96.2958 174.527 96.9105 174.597 97.374 174.899C97.4667 174.96 97.6683 175.157 97.9788 175.492C98.5069 176.1 98.6986 176.819 98.5538 177.65C98.3928 178.403 97.8893 179.429 97.0434 180.727L86.3031 197.207C85.6686 198.181 85.0079 198.84 84.3208 199.185C83.664 199.483 83.0574 199.451 82.5011 199.089C82.223 198.907 81.967 198.641 81.7331 198.291C81.4529 197.91 81.2956 197.543 81.2612 197.191C81.2107 196.762 81.1974 196.225 81.2214 195.58C81.2876 194.566 81.2168 193.661 81.0089 192.865C80.8011 192.07 80.2235 191.132 79.276 190.052L74.4742 184.347L67.4046 195.194L70.1446 199.655C71.3462 201.561 72.4338 202.831 73.4073 203.465C73.9636 203.828 74.4876 204.037 74.9793 204.094C75.4246 204.12 75.9536 204.068 76.5661 203.939C77.1485 203.856 77.6089 203.859 77.9475 203.948C78.2699 203.96 78.6095 204.148 78.9663 204.512C79.5408 205.151 79.7708 205.862 79.6562 206.646C79.5254 207.354 79.0522 208.333 78.2365 209.585L71.4841 219.946C70.7892 221.012 70.0751 221.702 69.3417 222.017C68.5619 222.301 67.8475 222.232 67.1985 221.809C66.4568 221.326 66.0586 220.67 66.0039 219.842C65.8727 219.03 65.8995 217.924 66.0845 216.526C66.2955 214.682 66.3484 213.131 66.2432 211.874C66.0916 210.586 65.6096 209.248 64.7971 207.86L47.2048 178.76C44.4567 174.261 43.0328 170.163 42.9328 166.465C42.8168 162.691 44.1334 158.695 46.8827 154.476C49.9643 149.748 53.3245 146.72 56.9634 145.393C60.5559 144.036 64.0674 144.475 67.4979 146.71C68.935 147.647 70.2673 148.846 71.495 150.306L90.6962 172.529ZM68.8801 177.729L59.0436 166.067C58.6082 165.519 58.0891 165.049 57.4865 164.656C56.6057 164.082 55.7905 163.914 55.0409 164.152C54.2753 164.314 53.6054 164.835 53.0314 165.716C52.3063 166.828 52.0114 167.99 52.1468 169.201C52.2822 170.412 52.9276 171.955 54.0828 173.831L62.5356 187.464L68.8801 177.729Z" fill="#A10035"/>
<path d="M87.971 125.324C91.2484 122.106 94.3624 119.631 97.3131 117.897C100.304 116.125 102.954 115.152 105.264 114.978C107.613 114.765 109.447 115.329 110.765 116.672C112.122 118.054 112.674 119.722 112.421 121.676C112.208 123.591 111.134 125.499 109.199 127.398C107.224 129.336 105.062 130.49 102.711 130.86C100.399 131.19 98.5064 130.606 97.0334 129.105C96.5295 128.592 96.1239 128.021 95.8167 127.392C94.9121 127.892 94.1834 128.414 93.6306 128.956C92.6435 129.925 92.0468 130.976 91.8407 132.109C91.6741 133.203 92.0369 134.165 92.9292 134.995C93.937 136.022 95.3031 136.386 97.0275 136.089C98.7519 135.792 101.283 135.053 104.62 133.871C107.447 132.801 109.86 132.021 111.86 131.531C113.861 130.963 115.839 130.805 117.793 131.058C119.786 131.272 121.52 132.129 122.993 133.63C123.303 133.945 123.805 134.615 124.5 135.639C126.465 138.905 126.763 142.723 125.392 147.092C124.021 151.462 120.986 155.953 116.287 160.566C110.996 165.76 106.093 169.178 101.578 170.819C97.1025 172.421 93.6438 171.978 91.2017 169.49C89.5349 167.792 88.7884 166.005 88.9623 164.128C89.1361 162.252 90.072 160.48 91.7699 158.813C93.7443 156.875 96.0233 155.84 98.607 155.707C101.23 155.536 103.472 156.398 105.333 158.293C105.837 158.807 106.301 159.398 106.725 160.067C107.905 159.373 108.93 158.6 109.799 157.748C110.825 156.74 111.403 155.63 111.532 154.418C111.66 153.206 111.24 152.107 110.271 151.12C109.34 150.25 108.13 149.926 106.641 150.147C105.113 150.329 102.956 150.896 100.169 151.848C97.5777 152.763 95.3608 153.427 93.518 153.841C91.6364 154.215 89.7383 154.256 87.8237 153.964C85.9486 153.634 84.2745 152.718 82.8015 151.218C79.6229 147.98 78.4459 144.095 79.2703 139.564C80.0955 134.955 82.9957 130.208 87.971 125.324Z" fill="#A10035"/>
<path d="M149.669 80.3707C152.335 78.6845 154.936 78.0867 157.472 78.5773C160.026 78.9916 161.968 80.2508 163.299 82.3551C164.719 84.5997 165.151 86.7822 164.593 88.9027C164.036 91.0231 162.658 92.7785 160.461 94.1689C158.497 95.4113 156.666 95.8817 154.969 95.5801C153.243 95.2317 152.004 94.4115 151.252 93.1193C150.725 93.3216 150.446 93.7601 150.415 94.4348C150.383 95.1095 150.609 96.2432 151.093 97.836C151.421 98.8724 151.495 99.9717 151.313 101.134C154.641 99.3563 157.461 98.5872 159.773 98.8268C162.086 99.0664 163.848 100.145 165.061 102.062C165.653 102.997 166.081 104.036 166.345 105.178L167.159 107.708C167.214 108.001 167.359 108.334 167.596 108.708C168.01 109.363 168.521 109.498 169.129 109.114C169.69 108.759 170.01 108.229 170.088 107.525C170.184 106.744 170.301 106.309 170.442 106.221C170.676 106.073 170.966 106.118 171.313 106.357C171.631 106.548 171.923 106.855 172.189 107.276C173.094 108.602 173.516 110.201 173.456 112.073C173.413 113.868 172.769 115.748 171.525 117.714C170.298 119.603 168.445 121.332 165.966 122.9C162.974 124.793 159.999 125.628 157.041 125.403C154.131 125.149 151.906 123.807 150.368 121.375C149.806 120.486 149.357 119.363 149.021 118.004L148.135 113.654C147.836 112.664 147.569 111.982 147.332 111.608C146.947 111 146.456 110.689 145.858 110.675C145.306 110.631 144.609 110.875 143.768 111.407L142.365 112.295L145.731 124.603C145.946 125.253 146.186 125.788 146.453 126.209C146.837 126.817 147.265 127.234 147.735 127.46C148.176 127.639 148.71 127.76 149.338 127.821C149.873 127.941 150.284 128.074 150.572 128.219C150.831 128.317 151.017 128.559 151.131 128.946C151.281 129.702 151.095 130.442 150.571 131.166C150.047 131.89 149.06 132.711 147.61 133.628L131.618 143.745C130.402 144.514 129.395 144.889 128.597 144.87C127.77 144.804 127.243 144.385 127.016 143.612C126.848 142.932 127.028 142.131 127.557 141.207C128.022 140.389 128.325 139.575 128.467 138.765C128.61 137.955 128.489 136.885 128.107 135.556L116.626 93.8096C116.5 93.3 116.349 92.9049 116.171 92.6243C115.846 92.11 115.439 91.7778 114.952 91.628C114.511 91.4486 113.976 91.3283 113.348 91.2672C112.644 91.189 112.086 91.0835 111.675 90.9508C111.31 90.7886 111.05 90.4293 110.895 89.8729C110.495 88.6199 111.376 86.7528 113.539 84.2717C115.702 81.7906 118.232 79.633 121.132 77.7989C123.844 76.0831 126.157 75.3403 128.07 75.5703C129.954 75.7536 131.458 76.7337 132.582 78.5107C133.262 79.5862 133.749 80.7185 134.043 81.9076L140.543 105.689L142.858 104.224C143.793 103.633 144.363 102.879 144.57 101.963C144.823 101.017 144.772 99.9028 144.419 98.6202C143.399 94.4203 143.248 90.8168 143.965 87.8098C144.681 84.8028 146.583 82.3231 149.669 80.3707Z" fill="#A10035"/>
<path d="M209.573 56.5586C215.669 54.7339 220.887 54.4137 225.227 55.5983C229.551 56.7298 232.403 59.6015 233.784 64.2133C234.307 65.9626 234.584 68.0457 234.615 70.4625L234.639 82.4113C234.65 82.6392 234.703 82.9122 234.798 83.2302C235.052 84.0784 235.523 84.3993 236.212 84.193C236.848 84.0026 237.299 83.5789 237.565 82.9219C237.867 82.1959 238.098 81.8092 238.257 81.7616C238.522 81.6823 238.79 81.8043 239.06 82.1278C239.383 82.4354 239.616 82.8277 239.759 83.3048C240.24 84.7202 240.12 86.3446 239.398 88.1779C238.729 89.9954 237.583 91.6668 235.96 93.1922C234.338 94.7176 232.387 95.8215 230.107 96.5038C227.351 97.3289 224.841 97.5314 222.578 97.1114C220.315 96.6913 218.519 95.6117 217.19 93.8725C216.171 96.2568 214.733 98.3044 212.877 100.015C211.006 101.673 208.824 102.875 206.332 103.62C203.523 104.461 201.005 104.637 198.78 104.148C196.538 103.607 194.686 102.63 193.224 101.22C191.8 99.74 190.802 98.046 190.23 96.1377C189.977 95.2895 189.81 94.4441 189.731 93.6013C189.484 89.6898 190.488 86.3859 192.742 83.6896C195.049 80.9774 198.164 79.0342 202.087 77.86C206.487 76.543 211.013 75.9389 215.667 76.0477L216.084 70.2047C216.106 67.7721 215.935 65.9461 215.57 64.7269C215.136 63.4706 214.427 62.6433 213.441 62.2452C212.456 61.8471 211.141 61.894 209.498 62.3859C210.07 63.1389 210.491 63.9659 210.76 64.8671C211.347 66.8284 211.113 68.7469 210.057 70.6224C209.001 72.498 207.095 73.8483 204.339 74.6734C201.741 75.4509 199.534 75.5052 197.716 74.8363C195.936 74.0986 194.792 72.8815 194.284 71.1852C193.491 68.5347 194.317 65.8906 196.761 63.2527C199.206 60.6148 203.477 58.3834 209.573 56.5586ZM212.332 81.9843C210.848 82.4286 209.803 83.3767 209.198 84.8285C208.63 86.2114 208.544 87.5655 208.941 88.8908C209.195 89.7389 209.587 90.3725 210.116 90.7915C210.699 91.1947 211.362 91.2852 212.104 91.063C212.793 90.8567 213.456 90.3695 214.092 89.6014C214.766 88.7644 215.122 87.7338 215.159 86.5096L215.425 81.3184C214.476 81.4291 213.445 81.6511 212.332 81.9843Z" fill="#A10035"/>
<path d="M292.724 74.3341C292.64 74.5672 292.626 74.9035 292.679 75.3429C292.726 75.7274 292.845 76.0195 293.036 76.2192C293.283 76.4122 293.571 76.4886 293.9 76.4486C294.56 76.3684 295.075 76.027 295.448 75.4243C295.869 74.76 296.162 74.4178 296.327 74.3978C296.601 74.3644 296.844 74.5299 297.056 74.8944C297.261 75.204 297.393 75.6059 297.453 76.1003C297.702 77.6865 297.37 79.3154 296.459 80.987C295.54 82.6036 294.07 84.0365 292.048 85.2857C290.075 86.4732 287.605 87.2473 284.638 87.6079C281.013 88.0486 278.029 87.5752 275.687 86.1878C273.337 84.7454 271.965 82.6269 271.57 79.8322C271.322 77.7998 271.54 75.4601 272.221 72.8132L275.311 60.3977C275.498 59.6502 275.566 59.0568 275.512 58.6173C275.425 57.9032 275.111 57.384 274.57 57.0596C274.077 56.6736 273.501 56.5206 272.842 56.6008C271.634 56.7477 270.55 57.4647 269.592 58.7517C268.627 59.9839 267.998 61.4539 267.704 63.1619L264.638 80.5911C264.492 81.2221 264.452 81.8122 264.519 82.3615C264.599 83.0206 264.803 83.5532 265.132 83.9593C265.453 84.3104 265.887 84.6756 266.435 85.0549C266.86 85.3378 267.171 85.6065 267.369 85.8611C267.568 86.1157 267.635 86.4419 267.572 86.8398C267.439 87.5806 266.981 88.1658 266.197 88.5956C265.413 89.0253 264.142 89.347 262.384 89.5607L243.599 91.8444C242.171 92.018 241.128 91.9219 240.47 91.5559C239.751 91.1416 239.427 90.54 239.498 89.751C239.638 89.0651 240.144 88.4183 241.018 87.8104C241.789 87.2708 242.412 86.6655 242.888 85.9945C243.363 85.3235 243.713 84.3055 243.938 82.9404L248.376 58.2373C248.452 57.9493 248.461 57.5581 248.401 57.0638C248.327 56.4595 248.133 56.0093 247.818 55.7131C247.558 55.4103 247.124 55.0451 246.515 54.6175C245.912 54.2448 245.481 53.9071 245.221 53.6042C244.961 53.3013 244.88 52.8652 244.978 52.2959C245.154 50.9925 246.751 49.6836 249.768 48.3692C252.779 46.9998 255.987 46.1081 259.393 45.6941C262.139 45.3603 264.402 45.8655 266.182 47.2099C267.956 48.4993 268.923 50.4998 269.086 53.2113C270.944 49.6967 273.063 47.1817 275.443 45.666C277.816 44.0955 280.486 43.13 283.452 42.7694C286.802 42.362 289.617 43.051 291.897 44.8363C294.231 46.615 295.595 49.1247 295.989 52.3655C296.196 54.0683 296.125 55.777 295.776 57.4916L292.724 74.3341Z" fill="#A10035"/>
<path d="M347.659 74.0257C347.539 74.4659 347.477 74.7691 347.474 74.935C347.466 75.3223 347.57 75.6288 347.787 75.8547C348.003 76.0806 348.278 76.197 348.61 76.2038C349.273 76.2176 349.832 75.9525 350.286 75.4084C350.797 74.8102 351.135 74.5128 351.301 74.5162C351.578 74.522 351.795 74.7202 351.953 75.1109C352.111 75.5016 352.185 75.9459 352.174 76.4438C352.199 77.9386 351.586 79.4479 350.337 80.9717C349.143 82.4966 347.54 83.7363 345.528 84.6908C343.516 85.6453 341.348 86.0985 339.025 86.0503C336.258 85.993 333.863 85.4176 331.838 84.324C329.813 83.2305 328.431 81.8182 327.692 80.0872C326.158 81.9925 324.413 83.3953 322.457 84.2957C320.502 85.196 318.445 85.6238 316.287 85.5791C313.743 85.5263 311.377 84.8408 309.19 83.5226C307.059 82.2055 305.354 80.3714 304.074 78.0204C302.851 75.6152 302.271 72.9189 302.333 69.9316C302.437 64.8973 303.475 60.1868 305.448 55.8001C307.477 51.3592 310.235 47.8189 313.721 45.1792C317.208 42.4842 321.137 41.182 325.507 41.2726C327.886 41.3219 329.9 41.6404 331.548 42.228C333.251 42.8168 334.783 43.6787 336.143 44.8138L339.157 35.5782C339.334 35.0838 339.425 34.6706 339.432 34.3387C339.445 33.7301 339.289 33.2288 338.965 32.8347C338.697 32.4417 338.317 32.0464 337.828 31.6488C337.283 31.1948 336.877 30.799 336.607 30.4613C336.392 30.1248 336.374 29.6816 336.551 29.1319C336.91 27.8663 338.675 26.796 341.848 25.9209C345.021 25.0458 348.322 24.6438 351.752 24.7149C354.961 24.7814 357.299 25.4387 358.768 26.6867C360.292 27.9359 361.032 29.6116 360.988 31.7138C360.963 32.9309 360.745 34.1163 360.333 35.27L347.659 74.0257ZM334.284 50.4204C333.415 49.6276 332.455 49.2203 331.403 49.1985C329.799 49.1652 328.198 50.322 326.6 52.6687C325.001 55.0154 323.697 57.8663 322.686 61.2214C321.676 64.5766 321.17 67.6101 321.17 70.322C321.107 73.3646 322.071 74.9066 324.062 74.9479C324.782 74.9628 325.396 74.6988 325.905 74.1559C326.416 73.5577 326.906 72.5993 327.376 71.2808L334.284 50.4204Z" fill="#A10035"/>
<path d="M406.566 49.6717C411.057 50.6319 414.839 51.865 417.912 53.3708C421.039 54.8881 423.313 56.5624 424.732 58.3936C426.205 60.2364 426.745 62.0776 426.352 63.9174C425.947 65.8113 424.859 67.1914 423.09 68.0579C421.374 68.936 419.191 69.0916 416.539 68.5247C413.834 67.9462 411.679 66.7782 410.074 65.0205C408.524 63.2744 407.968 61.3732 408.408 59.317C408.558 58.6136 408.811 57.9603 409.166 57.3573C408.25 56.8785 407.413 56.5581 406.656 56.3962C405.303 56.1069 404.097 56.1886 403.039 56.6413C402.034 57.1055 401.432 57.9386 401.231 59.1406C400.93 60.5475 401.379 61.8883 402.578 63.1631C403.776 64.4379 405.789 66.1413 408.615 68.2733C411.066 70.0421 413.047 71.6257 414.559 73.024C416.136 74.3798 417.358 75.9425 418.225 77.7121C419.145 79.4933 419.386 81.412 418.946 83.4682C418.854 83.9011 418.572 84.6896 418.101 85.8337C416.46 89.274 413.439 91.627 409.038 92.8928C404.636 94.1586 399.216 94.1031 392.777 92.7263C385.526 91.1761 379.972 88.97 376.114 86.1081C372.309 83.2577 370.772 80.128 371.501 76.7191C371.998 74.3923 373.078 72.7841 374.739 71.8945C376.4 71.0049 378.394 70.8088 380.721 71.3063C383.427 71.8847 385.547 73.2151 387.082 75.2975C388.672 77.3914 389.189 79.737 388.633 82.3343C388.483 83.0377 388.246 83.7509 387.921 84.4737C389.151 85.076 390.36 85.5044 391.551 85.759C392.958 86.0597 394.202 85.9297 395.284 85.3688C396.366 84.808 397.051 83.8512 397.34 82.4984C397.552 81.2423 397.156 80.0541 396.15 78.9338C395.157 77.7594 393.494 76.2723 391.163 74.4724C388.971 72.8155 387.194 71.3323 385.834 70.0228C384.484 68.6592 383.403 67.0984 382.591 65.3403C381.833 63.5939 381.673 61.6925 382.113 59.6363C383.062 55.1993 385.653 52.0754 389.888 50.2649C394.189 48.4117 399.748 48.214 406.566 49.6717Z" fill="#A10035"/>
<path d="M467.471 104.887C467.285 105.05 467.108 105.337 466.941 105.747C466.795 106.106 466.757 106.419 466.827 106.686C466.948 106.975 467.163 107.182 467.47 107.307C468.085 107.558 468.702 107.51 469.321 107.165C470.012 106.789 470.434 106.633 470.588 106.696C470.844 106.8 470.976 107.063 470.983 107.484C471.012 107.854 470.932 108.27 470.744 108.731C470.19 110.238 469.108 111.5 467.498 112.517C465.909 113.483 463.928 114.019 461.553 114.127C459.251 114.205 456.717 113.68 453.95 112.552C450.568 111.173 448.191 109.308 446.819 106.957C445.468 104.554 445.3 102.035 446.314 99.4009C447.086 97.505 448.414 95.5665 450.297 93.5853L459.036 84.2404C459.563 83.6787 459.911 83.1929 460.078 82.783C460.349 82.1168 460.328 81.5104 460.013 80.9638C459.77 80.3868 459.341 79.973 458.726 79.7223C457.753 79.3255 456.565 79.3794 455.165 79.8841C453.836 80.3583 452.457 81.4694 451.028 83.2171L451.09 83.0634L439.889 96.6925C439.484 97.2447 439.188 97.7514 439 98.2126C438.729 98.8787 438.637 99.469 438.727 99.9833C438.837 100.446 439.049 100.951 439.364 101.498C439.576 102.003 439.707 102.415 439.757 102.734C439.827 103.001 439.738 103.293 439.489 103.61C438.961 104.172 438.25 104.45 437.356 104.444C436.463 104.438 435.221 104.112 433.633 103.464L416.109 96.3216C414.776 95.7785 413.886 95.1768 413.439 94.5162C413.012 93.8044 413.047 93.1316 413.544 92.4978C414 91.9665 414.757 91.6477 415.816 91.5416C416.752 91.445 417.591 91.2192 418.333 90.8644C419.075 90.5096 419.876 89.7905 420.736 88.7069L448.051 55.1151C448.393 54.7166 448.627 54.3636 448.752 54.0562C448.982 53.4926 449.016 52.9687 448.855 52.4847C448.745 52.0216 448.532 51.5168 448.217 50.9701C447.872 50.3513 447.634 49.836 447.503 49.4241C447.423 49.0332 447.565 48.6128 447.927 48.163C448.715 47.1098 450.747 46.7429 454.022 47.0622C457.298 47.3816 460.525 48.1887 463.701 49.4836C466.673 50.6949 468.621 52.1462 469.545 53.8374C470.521 55.5495 470.612 57.3791 469.818 59.3262C469.358 60.4535 468.73 61.4821 467.933 62.4119L458.269 74.2477C461.332 72.449 464.174 71.4862 466.795 71.3595C469.468 71.2536 472.111 71.7332 474.724 72.7984C477.849 74.0724 479.974 76.0437 481.097 78.7123C482.271 81.4019 482.243 84.2582 481.01 87.2814C480.363 88.8699 479.47 90.3283 478.331 91.6567L467.471 104.887Z" fill="#A10035"/>
<path d="M515.967 96.736C521.231 100.312 524.774 104.156 526.595 108.27C528.447 112.337 528.021 116.362 525.316 120.345C524.29 121.855 522.849 123.385 520.994 124.934L511.743 132.497C511.573 132.649 511.395 132.862 511.208 133.137C510.711 133.869 510.759 134.437 511.354 134.842C511.904 135.215 512.517 135.297 513.194 135.088C513.948 134.864 514.394 134.799 514.531 134.892C514.76 135.048 514.834 135.332 514.754 135.746C514.719 136.191 514.562 136.619 514.282 137.031C513.488 138.298 512.153 139.23 510.275 139.828C508.443 140.456 506.424 140.623 504.216 140.328C502.009 140.032 499.921 139.216 497.953 137.879C495.573 136.262 493.831 134.444 492.728 132.424C491.626 130.404 491.329 128.329 491.839 126.2C489.346 126.915 486.851 127.093 484.352 126.734C481.885 126.329 479.575 125.396 477.424 123.934C474.998 122.286 473.272 120.445 472.246 118.41C471.252 116.33 470.84 114.277 471.011 112.253C471.259 110.214 471.942 108.371 473.062 106.723C473.559 105.99 474.11 105.328 474.713 104.734C477.591 102.073 480.787 100.766 484.301 100.812C487.861 100.889 491.335 102.078 494.722 104.379C498.521 106.959 501.847 110.088 504.7 113.766L509.495 110.4C511.396 108.882 512.704 107.597 513.419 106.544C514.119 105.414 514.313 104.342 513.999 103.326C513.686 102.31 512.82 101.32 511.401 100.357C511.178 101.276 510.802 102.124 510.274 102.902C509.123 104.596 507.487 105.625 505.366 105.99C503.245 106.356 500.995 105.73 498.614 104.113C496.372 102.59 494.936 100.912 494.307 99.0801C493.755 97.2337 493.977 95.5781 494.972 94.1134C496.527 91.8248 499.098 90.7959 502.688 91.0265C506.277 91.2572 510.704 93.1604 515.967 96.736ZM497.991 114.928C496.709 114.057 495.315 113.845 493.807 114.293C492.376 114.725 491.272 115.514 490.494 116.658C489.997 117.39 489.753 118.094 489.762 118.77C489.817 119.476 490.166 120.047 490.806 120.482C491.401 120.886 492.198 121.093 493.195 121.102C494.269 121.095 495.293 120.721 496.267 119.977L500.46 116.906C499.775 116.24 498.952 115.58 497.991 114.928Z" fill="#A10035"/>
<path d="M575.332 150.802C577.479 153.113 578.543 155.56 578.526 158.144C578.586 160.73 577.705 162.87 575.88 164.565C573.934 166.372 571.867 167.196 569.681 167.037C567.494 166.878 565.516 165.845 563.746 163.939C562.165 162.236 561.367 160.523 561.352 158.8C561.378 157.039 561.957 155.67 563.09 154.694C562.794 154.214 562.312 154.02 561.643 154.112C560.974 154.205 559.901 154.635 558.424 155.403C557.465 155.915 556.398 156.189 555.222 156.224C557.58 159.169 558.853 161.801 559.041 164.118C559.229 166.435 558.492 168.365 556.83 169.909C556.019 170.662 555.076 171.273 554.002 171.742L551.664 173.006C551.386 173.113 551.085 173.318 550.761 173.619C550.193 174.146 550.154 174.673 550.643 175.2C551.095 175.687 551.674 175.904 552.381 175.852C553.166 175.803 553.615 175.839 553.728 175.96C553.916 176.163 553.925 176.457 553.754 176.842C553.624 177.19 553.376 177.533 553.011 177.872C551.873 179.005 550.378 179.713 548.528 179.997C546.755 180.283 544.789 179.995 542.628 179.132C540.546 178.272 538.507 176.767 536.511 174.618C534.101 172.023 532.736 169.252 532.414 166.303C532.13 163.395 533.043 160.962 535.151 159.004C535.921 158.289 536.944 157.642 538.218 157.062L542.332 155.394C543.25 154.919 543.872 154.531 544.196 154.23C544.723 153.74 544.939 153.2 544.843 152.609C544.785 152.059 544.418 151.419 543.74 150.689L542.61 149.473L531.128 155.038C530.528 155.368 530.046 155.703 529.681 156.042C529.154 156.531 528.823 157.028 528.686 157.532C528.591 157.998 528.571 158.545 528.626 159.174C528.605 159.721 528.55 160.15 528.461 160.46C528.411 160.732 528.207 160.96 527.848 161.142C527.133 161.429 526.371 161.381 525.563 160.999C524.755 160.616 523.767 159.797 522.6 158.54L509.723 144.673C508.744 143.618 508.191 142.697 508.063 141.91C507.976 141.084 508.292 140.489 509.01 140.124C509.648 139.834 510.469 139.865 511.474 140.215C512.363 140.522 513.219 140.671 514.041 140.663C514.864 140.654 515.893 140.34 517.13 139.72L556.065 120.782C556.542 120.565 556.903 120.343 557.146 120.117C557.592 119.703 557.844 119.243 557.902 118.736C557.998 118.269 558.018 117.722 557.963 117.094C557.911 116.387 557.912 115.819 557.967 115.391C558.06 115.002 558.366 114.681 558.884 114.426C560.042 113.803 562.039 114.328 564.875 115.999C567.71 117.67 570.295 119.762 572.63 122.276C574.814 124.628 575.968 126.765 576.092 128.689C576.257 130.574 575.57 132.232 574.029 133.663C573.096 134.529 572.072 135.215 570.957 135.722L548.771 146.471L550.634 148.478C551.387 149.289 552.233 149.712 553.171 149.746C554.148 149.822 555.234 149.568 556.43 148.986C560.372 147.213 563.886 146.404 566.974 146.557C570.061 146.711 572.847 148.126 575.332 150.802Z" fill="#A10035"/>
<path d="M598.612 185.62C602.17 191.68 603.77 196.644 603.411 200.512C603.1 204.353 601.441 207.156 598.435 208.921C597.529 209.453 596.638 209.848 595.762 210.106C592.193 211.24 588.749 210.567 585.432 208.087C582.191 205.627 579.267 202.178 576.661 197.741C575.344 195.498 574.254 193.315 573.392 191.191C570.883 192.6 569.533 194.291 569.344 196.263C569.155 198.235 569.789 200.462 571.246 202.943C571.918 204.088 572.682 205.115 573.537 206.025C574.44 206.906 575.63 208.004 577.107 209.318C578.369 210.374 579.14 211.141 579.42 211.618C579.729 212.143 579.573 212.587 578.952 212.951C577.31 213.98 575.181 214.396 572.563 214.201C569.994 213.977 567.322 212.98 564.549 211.207C561.775 209.435 559.338 206.76 557.236 203.181C554.126 197.885 552.912 192.758 553.594 187.802C554.277 182.845 557.171 178.867 562.276 175.869C563.708 175.028 565.49 174.238 567.622 173.499C574.192 171.245 580.132 171.254 585.444 173.524C590.832 175.815 595.221 179.847 598.612 185.62ZM577.98 189.17C578.045 189.389 578.175 189.665 578.371 189.999C579.548 192.003 581.375 192.983 583.852 192.94C586.33 192.897 588.699 192.179 590.962 190.787C592.27 189.954 592.713 189.18 592.293 188.465C591.985 187.94 591.191 187.572 589.912 187.36C588.681 187.121 587.02 187.134 584.929 187.399C582.867 187.712 580.551 188.302 577.98 189.17Z" fill="#A10035"/>
</g>
<defs>
<clipPath id="clip0_136_14">
<rect width="644" height="863" fill="white"/>
</clipPath>
</defs>
</svg>
