<svg width="669" height="862" viewBox="0 0 669 862" fill="none" xmlns="http://www.w3.org/2000/svg">
<path d="M94.4498 175.442C94.8188 176.098 95.2639 176.674 95.7854 177.169C96.2266 177.589 96.6648 177.891 97.1 178.075C97.4951 178.222 97.8501 178.33 98.165 178.4C98.4779 178.392 98.6936 178.406 98.8119 178.443C99.5942 178.423 100.186 178.603 100.587 178.984C100.667 179.061 100.83 179.291 101.074 179.677C101.483 180.371 101.541 181.113 101.248 181.903C100.953 182.615 100.272 183.533 99.2048 184.656L85.6535 198.914C84.853 199.757 84.0837 200.285 83.3455 200.5C82.6454 200.674 82.0547 200.532 81.5734 200.075C81.3328 199.846 81.1293 199.538 80.9628 199.151C80.7563 198.726 80.6682 198.337 80.6983 197.984C80.7265 197.552 80.8108 197.022 80.9514 196.392C81.2003 195.407 81.2947 194.505 81.2347 193.684C81.1747 192.864 80.7768 191.837 80.0409 190.603L76.3535 184.122L67.4336 193.507L69.3191 198.391C70.1552 200.483 70.9943 201.929 71.8366 202.73C72.3179 203.187 72.7952 203.488 73.2686 203.633C73.7018 203.739 74.2313 203.784 74.8572 203.768C75.4449 203.793 75.8972 203.879 76.2141 204.027C76.529 204.098 76.8288 204.344 77.1135 204.768C77.5627 205.5 77.6598 206.241 77.4049 206.991C77.148 207.663 76.505 208.541 75.4758 209.624L66.9562 218.588C66.0795 219.51 65.252 220.06 64.4737 220.236C63.6553 220.374 62.9653 220.177 62.4038 219.643C61.762 219.033 61.4894 218.316 61.5858 217.492C61.604 216.669 61.8309 215.587 62.2664 214.245C62.8084 212.47 63.1417 210.955 63.2663 209.699C63.3508 208.406 63.1194 207.002 62.5721 205.49L50.5495 173.682C48.663 168.759 48.006 164.471 48.5784 160.816C49.1488 157.083 51.1684 153.392 54.6372 149.742C58.5254 145.651 62.3791 143.283 66.1983 142.638C69.9774 141.955 73.351 143.023 76.3191 145.844C77.5624 147.026 78.6553 148.446 79.5977 150.105L94.4498 175.442ZM72.0525 176.599L64.4942 163.347C64.1653 162.729 63.7402 162.172 63.2188 161.677C62.4567 160.952 61.6855 160.639 60.9053 160.737C60.123 160.757 59.3697 161.148 58.6454 161.91C57.7306 162.873 57.2299 163.962 57.1434 165.178C57.0569 166.393 57.4116 168.028 58.2075 170.082L64.0475 185.022L72.0525 176.599Z" fill="#FF869E"/>
<path d="M97.4601 127.896C101.073 125.06 104.442 122.944 107.566 121.548C110.734 120.117 113.475 119.442 115.79 119.525C118.149 119.573 119.909 120.337 121.071 121.817C122.266 123.34 122.631 125.059 122.163 126.973C121.739 128.853 120.461 130.63 118.328 132.304C116.152 134.012 113.875 134.92 111.497 135.027C109.163 135.1 107.347 134.31 106.049 132.656C105.605 132.09 105.265 131.477 105.029 130.818C104.075 131.215 103.293 131.653 102.683 132.131C101.595 132.985 100.886 133.964 100.556 135.067C100.269 136.136 100.524 137.132 101.319 138.056C102.207 139.188 103.524 139.701 105.271 139.596C107.018 139.492 109.614 139.037 113.062 138.231C115.99 137.48 118.475 136.972 120.517 136.706C122.568 136.362 124.551 136.424 126.465 136.891C128.422 137.324 130.05 138.368 131.348 140.022C131.622 140.37 132.047 141.092 132.625 142.186C134.217 145.649 134.09 149.476 132.245 153.668C130.399 157.859 126.887 161.987 121.707 166.052C115.874 170.63 110.623 173.484 105.954 174.616C101.329 175.713 97.9404 174.891 95.7883 172.148C94.3194 170.277 93.775 168.418 94.1553 166.572C94.5355 164.726 95.6616 163.069 97.5334 161.6C99.7098 159.892 102.089 159.115 104.672 159.269C107.298 159.388 109.431 160.493 111.07 162.582C111.515 163.148 111.91 163.787 112.258 164.499C113.508 163.94 114.611 163.285 115.569 162.534C116.701 161.646 117.398 160.606 117.659 159.416C117.921 158.226 117.625 157.087 116.771 155.999C115.942 155.032 114.775 154.576 113.271 154.631C111.732 154.642 109.526 154.967 106.651 155.606C103.974 156.229 101.698 156.644 99.8204 156.851C97.909 157.015 96.018 156.846 94.1474 156.344C92.3203 155.809 90.7577 154.714 89.4596 153.06C86.6585 149.49 85.9181 145.499 87.2384 141.087C88.5681 136.597 91.9753 132.2 97.4601 127.896Z" fill="#FF869E"/>
<path d="M161.766 87.5505C164.511 85.9965 167.138 85.5266 169.647 86.1405C172.178 86.6791 174.056 88.0318 175.283 90.1986C176.592 92.5099 176.916 94.7109 176.255 96.8016C175.595 98.8922 174.133 100.578 171.87 101.86C169.848 103.004 167.997 103.385 166.317 103.001C164.609 102.568 163.412 101.689 162.724 100.361C162.188 100.538 161.888 100.962 161.823 101.634C161.759 102.307 161.929 103.45 162.335 105.064C162.612 106.116 162.631 107.217 162.393 108.369C165.804 106.756 168.658 106.126 170.956 106.478C173.254 106.831 174.962 107.994 176.079 109.968C176.625 110.931 177.001 111.99 177.209 113.143L177.899 115.71C177.939 116.005 178.068 116.345 178.286 116.73C178.668 117.405 179.172 117.564 179.798 117.21C180.376 116.883 180.721 116.369 180.834 115.67C180.967 114.895 181.106 114.466 181.25 114.385C181.491 114.248 181.779 114.308 182.115 114.563C182.423 114.77 182.699 115.09 182.945 115.524C183.783 116.893 184.127 118.511 183.975 120.377C183.845 122.168 183.11 124.014 181.771 125.917C180.453 127.744 178.517 129.38 175.965 130.825C172.884 132.57 169.871 133.258 166.929 132.889C164.034 132.494 161.878 131.044 160.46 128.54C159.942 127.625 159.549 126.481 159.279 125.107L158.607 120.719C158.357 119.716 158.123 119.021 157.905 118.636C157.551 118.01 157.075 117.675 156.478 117.632C155.929 117.561 155.222 117.771 154.355 118.262L152.91 119.08L155.671 131.537C155.854 132.197 156.068 132.743 156.313 133.177C156.668 133.803 157.074 134.24 157.533 134.489C157.965 134.69 158.493 134.836 159.117 134.928C159.645 135.074 160.049 135.226 160.33 135.385C160.583 135.496 160.757 135.747 160.852 136.139C160.966 136.901 160.743 137.631 160.184 138.329C159.626 139.027 158.6 139.799 157.107 140.644L140.639 149.967C139.387 150.676 138.363 151.001 137.567 150.943C136.744 150.837 136.238 150.392 136.049 149.609C135.915 148.922 136.134 148.13 136.707 147.234C137.211 146.439 137.554 145.641 137.736 144.839C137.918 144.037 137.85 142.962 137.533 141.616L128.106 99.3586C128.005 98.8434 127.873 98.4414 127.709 98.1525C127.409 97.6228 127.02 97.2712 126.54 97.0977C126.108 96.897 125.58 96.7507 124.956 96.659C124.257 96.5464 123.705 96.4138 123.3 96.2612C122.944 96.0814 122.702 95.7098 122.574 95.1465C122.236 93.8754 123.207 92.0537 125.488 89.6812C127.77 87.3087 130.403 85.2773 133.388 83.5871C136.181 82.006 138.527 81.377 140.427 81.7003C142.3 81.9754 143.754 83.0279 144.79 84.8576C145.417 85.9651 145.848 87.1199 146.084 88.3219L151.413 112.392L153.797 111.043C154.76 110.497 155.367 109.772 155.617 108.867C155.916 107.935 155.921 106.82 155.631 105.522C154.817 101.277 154.842 97.6703 155.705 94.7019C156.568 91.7335 158.588 89.3497 161.766 87.5505Z" fill="#FF869E"/>
<path d="M220.865 64.2665C226.94 62.3709 232.154 61.99 236.507 63.124C240.844 64.2051 243.729 67.0433 245.164 71.6388C245.708 73.3819 246.009 75.4616 246.067 77.8778L246.231 89.8256C246.244 90.0533 246.3 90.3257 246.399 90.6426C246.663 91.4877 247.138 91.8032 247.824 91.5889C248.458 91.3911 248.904 90.9621 249.162 90.302C249.456 89.5727 249.682 89.1832 249.841 89.1338C250.105 89.0514 250.374 89.1703 250.648 89.4906C250.974 89.7944 251.212 90.184 251.36 90.6594C251.858 92.0691 251.757 93.6947 251.056 95.5364C250.408 97.3615 249.282 99.0462 247.677 100.59C246.073 102.135 244.134 103.261 241.863 103.97C239.116 104.827 236.609 105.059 234.342 104.665C232.074 104.271 230.266 103.213 228.916 101.489C227.925 103.885 226.511 105.949 224.675 107.682C222.823 109.361 220.655 110.588 218.173 111.363C215.373 112.237 212.858 112.442 210.627 111.979C208.379 111.463 206.516 110.508 205.038 109.115C203.596 107.652 202.578 105.97 201.985 104.068C201.721 103.223 201.545 102.379 201.456 101.538C201.164 97.6293 202.129 94.314 204.352 91.5916C206.627 88.8527 209.719 86.8734 213.628 85.6536C218.012 84.2854 222.531 83.6287 227.185 83.6833L227.534 77.8359C227.529 75.4031 227.336 73.5793 226.957 72.3644C226.509 71.1132 225.789 70.2943 224.799 69.9077C223.809 69.5211 222.495 69.5833 220.858 70.0943C221.439 70.8405 221.869 71.6626 222.149 72.5606C222.759 74.515 222.547 76.436 221.513 78.3237C220.479 80.2114 218.589 81.5839 215.842 82.441C213.254 83.2487 211.047 83.3287 209.222 82.681C207.433 81.964 206.275 80.7604 205.748 79.0701C204.924 76.4291 205.718 73.7754 208.132 71.1093C210.547 68.4431 214.791 66.1622 220.865 64.2665ZM223.92 89.6583C222.441 90.1199 221.408 91.08 220.819 92.5388C220.268 93.9283 220.198 95.2833 220.61 96.6038C220.874 97.4489 221.273 98.0779 221.807 98.4907C222.395 98.8871 223.058 98.9699 223.798 98.7391C224.484 98.5248 225.141 98.0299 225.769 97.2545C226.433 96.4097 226.776 95.375 226.8 94.1504L227.005 88.9565C226.058 89.0782 225.029 89.3122 223.92 89.6583Z" fill="#FF869E"/>
<path d="M321.494 90.848C321.195 92.4856 321.073 93.6075 321.127 94.2138C321.191 94.9303 321.4 95.4116 321.755 95.6578C322.166 95.899 322.784 95.9829 323.611 95.9094C324.327 95.8457 325.172 95.6595 326.144 95.3508C327.177 95.0923 327.831 94.9508 328.107 94.9263C328.768 94.8675 329.138 95.279 329.216 96.1608C329.339 97.5387 328.642 99.0728 327.126 100.763C325.609 102.453 323.573 103.912 321.015 105.14C318.463 106.422 315.836 107.183 313.136 107.424C309.167 107.777 306.035 107.222 303.738 105.759C301.447 104.352 300.171 102.188 299.911 99.267C299.779 97.7789 299.872 96.3263 300.19 94.9091L301.775 87.4353C298.677 91.3218 294.785 93.4733 290.1 93.8899C287.62 94.1105 285.281 93.7352 283.084 92.764C280.937 91.7329 279.154 90.1138 277.736 87.9067C276.367 85.6397 275.539 82.8802 275.25 79.6284C275.009 76.9277 275.11 74.3079 275.551 71.7688C276.301 67.0913 277.752 63.1014 279.902 59.7993C282.103 56.4371 284.736 53.8698 287.8 52.0974C290.915 50.265 294.208 49.1943 297.68 48.8855C300.932 48.5963 303.702 48.8222 305.99 49.5631C308.333 50.2991 310.472 51.5532 312.408 53.3254L314.629 51.128C315.698 50.033 316.737 49.2185 317.745 48.6844C318.748 48.0952 319.993 47.7345 321.481 47.6021L325.202 47.2713C326.58 47.1487 327.654 47.3587 328.424 47.9013C329.245 48.3838 329.702 49.1487 329.795 50.1959C329.819 50.4715 329.761 51.06 329.618 51.9614L321.494 90.848ZM306.827 63.6544L307.183 62.0395C307.38 61.1331 307.437 60.2115 307.354 59.2745C307.192 57.4557 306.284 56.6198 304.631 56.7668C303.253 56.8894 302.034 57.8588 300.973 59.6753C299.913 61.4917 298.892 64.6934 297.911 69.2803C297.189 72.3999 296.928 75.0896 297.129 77.3493C297.281 79.0579 297.669 80.3011 298.294 81.0788C298.973 81.8516 299.782 82.1963 300.719 82.113C301.435 82.0493 302.042 81.6898 302.539 81.0345C303.032 80.3241 303.465 79.2579 303.838 77.8359L306.827 63.6544Z" fill="#FF869E"/>
<path d="M378.056 81.6191C377.916 82.0536 377.839 82.3812 377.825 82.6021C377.799 82.9886 377.862 83.2977 378.013 83.5294C378.22 83.7648 378.488 83.8934 378.82 83.9151C379.482 83.9586 380.053 83.7188 380.531 83.1957C381.067 82.621 381.419 82.3391 381.584 82.3499C381.86 82.3681 382.068 82.5758 382.209 82.9732C382.408 83.319 382.491 83.7404 382.458 84.2373C382.412 85.7869 381.758 87.2967 380.497 88.7665C379.24 90.1811 377.53 91.3165 375.366 92.1725C373.203 93.0286 370.823 93.3714 368.228 93.2009C364.971 92.987 362.419 92.1539 360.574 90.7019C358.728 89.2498 357.6 87.429 357.189 85.2393C355.057 87.3173 352.737 88.8563 350.232 89.8563C347.785 90.8046 345.319 91.1972 342.835 91.034C338.97 90.7801 335.774 89.6275 333.247 87.5762C330.779 85.4732 329.657 82.7101 329.882 79.2868C329.983 77.7408 330.365 76.1577 331.026 74.5376L337.463 57.576C337.661 57.0899 337.771 56.6813 337.793 56.35C337.833 55.7426 337.726 55.2642 337.471 54.9148C337.221 54.5102 336.832 54.0965 336.305 53.6737C335.782 53.1957 335.421 52.7839 335.222 52.4381C335.023 52.0923 335.024 51.6487 335.226 51.1075C335.641 49.8593 337.453 48.8693 340.662 48.1373C343.874 47.3502 347.192 47.069 350.615 47.2939C353.818 47.5042 356.124 48.2657 357.535 49.5783C358.946 50.891 359.583 52.5963 359.445 54.6945C359.362 55.9644 359.089 57.1664 358.626 58.3006L352.277 75.1847C352.016 75.7776 351.868 76.3501 351.831 76.9022C351.781 77.6752 351.963 78.2695 352.38 78.685C352.796 79.1005 353.363 79.3318 354.081 79.379C355.13 79.4479 356.006 79.2004 356.708 78.6366C357.411 78.0727 358.14 77.0948 358.897 75.7027L365.043 59.3874C365.241 58.9014 365.351 58.4927 365.373 58.1614C365.413 57.5541 365.305 57.0757 365.051 56.7263C364.8 56.3216 364.439 55.9097 363.968 55.4906C363.445 55.0126 363.083 54.6007 362.884 54.255C362.685 53.9092 362.687 53.4656 362.889 52.9244C363.248 51.6726 365.032 50.6807 368.241 49.9488C371.454 49.1616 374.771 48.8805 378.195 49.1053C381.397 49.3156 383.704 50.0771 385.115 51.3898C386.581 52.706 387.247 54.3856 387.113 56.4286C387.044 57.4776 386.742 58.7054 386.206 60.112L378.056 81.6191Z" fill="#FF869E"/>
<path d="M418.394 55.7137C425.271 57.1619 430.018 59.321 432.637 62.1909C435.267 65.0067 436.223 68.1202 435.505 71.5314C435.288 72.5601 434.98 73.4849 434.581 74.3056C433.016 77.7082 430.201 79.8012 426.134 80.5846C422.133 81.3252 417.614 81.1653 412.579 80.1048C410.034 79.5689 407.686 78.9047 405.534 78.1123C404.887 80.9165 405.229 83.0524 406.56 84.5202C407.89 85.9879 409.964 87.0183 412.779 87.6112C414.079 87.8849 415.353 88.0118 416.601 87.992C417.86 87.918 419.473 87.777 421.44 87.5691C423.07 87.3469 424.156 87.2929 424.697 87.4069C425.293 87.5323 425.516 87.947 425.368 88.6509C425.023 90.5574 423.897 92.4125 421.991 94.2163C420.096 95.966 417.559 97.2696 414.381 98.1272C411.204 98.9847 407.585 98.9859 403.524 98.1306C397.514 96.8649 392.906 94.3111 389.7 90.4694C386.494 86.6276 385.501 81.8099 386.721 76.0163C387.063 74.392 387.679 72.5425 388.568 70.4679C391.325 64.093 395.33 59.706 400.586 57.3069C405.906 54.865 411.843 54.3339 418.394 55.7137ZM407.129 73.3589C407.334 73.4587 407.626 73.5485 408.005 73.6283C410.279 74.1072 412.235 73.4163 413.87 71.5555C415.506 69.6947 416.571 67.4591 417.064 64.8487C417.329 63.3212 417.056 62.4719 416.244 62.3009C415.648 62.1754 414.841 62.5145 413.824 63.3181C412.818 64.0675 411.709 65.3043 410.498 67.0283C409.341 68.7638 408.218 70.874 407.129 73.3589Z" fill="#FF869E"/>
<path d="M467.507 69.6751C471.831 71.2238 475.416 72.9486 478.261 74.8495C481.159 76.769 483.19 78.7306 484.353 80.7341C485.568 82.7564 485.858 84.6531 485.224 86.4242C484.571 88.2475 483.31 89.4709 481.441 90.0945C479.624 90.7367 477.439 90.6007 474.887 89.6865C472.282 88.7535 470.301 87.3094 468.944 85.354C467.64 83.4173 467.342 81.4592 468.051 79.4797C468.294 78.8025 468.631 78.1887 469.063 77.6382C468.219 77.0419 467.432 76.6131 466.703 76.3519C465.4 75.8854 464.195 75.8061 463.085 76.1141C462.028 76.4406 461.32 77.1863 460.961 78.351C460.476 79.7054 460.743 81.094 461.762 82.5168C462.78 83.9395 464.548 85.8953 467.066 88.384C469.26 90.4629 471.013 92.2958 472.326 93.8827C473.709 95.4361 474.712 97.1473 475.336 99.0164C476.012 100.904 475.995 102.838 475.286 104.817C475.137 105.234 474.753 105.978 474.134 107.049C472.05 110.241 468.743 112.172 464.213 112.841C459.682 113.511 454.317 112.735 448.118 110.515C441.138 108.015 435.926 105.09 432.482 101.741C429.091 98.41 427.983 95.1037 429.158 91.8219C429.961 89.5819 431.244 88.1315 433.009 87.4705C434.774 86.8096 436.776 86.8803 439.016 87.6826C441.621 88.6156 443.546 90.216 444.791 92.4839C446.088 94.7705 446.288 97.164 445.393 99.6644C445.15 100.342 444.82 101.017 444.403 101.69C445.541 102.451 446.683 103.036 447.829 103.446C449.183 103.932 450.434 103.968 451.581 103.556C452.728 103.144 453.534 102.287 454.001 100.984C454.378 99.7676 454.143 98.5372 453.295 97.2933C452.466 95.9972 451.016 94.3023 448.945 92.2086C446.992 90.275 445.429 88.5688 444.254 87.0901C443.098 85.5592 442.234 83.8686 441.663 82.0181C441.143 80.1864 441.238 78.2807 441.947 76.3012C443.477 72.0296 446.461 69.278 450.899 68.0463C455.407 66.7812 460.944 67.3242 467.507 69.6751Z" fill="#FF869E"/>
<path d="M521.912 96.0673C522.854 96.5337 523.475 97.088 523.775 97.7303C524.124 98.397 524.126 99.0775 523.783 99.7718C523.684 99.9701 523.463 100.293 523.118 100.739C521.393 102.602 519.366 102.957 517.035 101.803L512.721 99.6671L498.046 115.278C497.43 115.899 496.926 116.606 496.533 117.4C496.091 118.292 496.032 119.035 496.356 119.628C496.68 120.22 497.288 120.737 498.181 121.179C498.974 121.572 500.015 121.964 501.304 122.355C501.972 122.501 502.53 122.684 502.976 122.905C503.323 123.077 503.51 123.324 503.536 123.645C503.636 123.942 503.6 124.264 503.428 124.611C502.987 125.627 501.642 126.474 499.392 127.151C497.217 127.803 494.583 128.011 491.488 127.776C488.419 127.491 485.322 126.575 482.198 125.029C478.826 123.359 476.504 121.253 475.232 118.709C473.96 116.165 473.986 113.554 475.312 110.876C475.926 109.637 476.713 108.545 477.675 107.601L489.727 95.2295C490.392 94.5092 490.847 93.9011 491.093 93.4052C491.584 92.4135 491.753 91.4477 491.601 90.508C491.498 89.5928 491.21 88.5546 490.735 87.3934C490.335 86.3309 490.096 85.5028 490.02 84.9092C489.968 84.266 490.176 83.6589 490.644 83.0879C491.161 82.5415 491.828 82.2543 492.645 82.2263C493.461 82.1983 494.564 82.528 495.952 83.2154L500.118 85.2776L507.124 82.9114C509.57 82.0851 511.623 81.681 513.281 81.6992C514.988 81.742 516.933 82.3034 519.115 83.3836C522.239 84.9303 523.212 86.8937 522.034 89.274C521.665 90.0178 521.223 90.663 520.705 91.2095L517.97 94.1156L521.912 96.0673Z" fill="#FF869E"/>
<path d="M542.002 107.236C544.735 108.918 546.418 110.67 547.052 112.49C547.686 114.31 547.451 116.115 546.349 117.905C545.682 118.989 544.878 119.924 543.939 120.71L524.424 137.838C523.934 138.316 523.559 138.767 523.298 139.191C522.921 139.804 522.734 140.371 522.737 140.893C522.77 141.368 522.897 141.901 523.117 142.492C523.244 143.025 523.306 143.453 523.302 143.775C523.327 144.051 523.191 144.324 522.894 144.596C522.281 145.064 521.534 145.221 520.653 145.068C519.773 144.916 518.602 144.39 517.141 143.49L501.028 133.567C499.803 132.813 499.024 132.073 498.69 131.348C498.386 130.576 498.531 129.918 499.126 129.374C499.663 128.925 500.462 128.735 501.524 128.804C502.463 128.863 503.327 128.778 504.118 128.549C504.908 128.321 505.816 127.743 506.843 126.816L525.569 110.178C525.972 109.841 526.26 109.531 526.434 109.248C526.753 108.73 526.882 108.257 526.821 107.829C526.788 107.354 526.638 106.807 526.37 106.187C526.131 105.52 526.004 104.987 525.99 104.588C525.975 104.189 526.184 103.798 526.615 103.414C527.565 102.504 529.63 102.476 532.809 103.329C536.017 104.134 539.081 105.437 542.002 107.236ZM556.356 94.5327C558.193 95.6643 559.347 97.2198 559.818 99.1992C560.318 101.131 560.031 102.969 558.957 104.713C558.203 105.938 557.133 106.936 555.748 107.708C554.41 108.508 552.92 108.923 551.278 108.951C549.712 108.962 548.222 108.532 546.809 107.661C545.018 106.559 543.873 105.041 543.374 103.109C542.95 101.159 543.266 99.2737 544.322 97.4543C545.047 96.2764 546.064 95.3106 547.373 94.557C548.711 93.7563 550.177 93.3272 551.772 93.2697C553.367 93.2122 554.895 93.6332 556.356 94.5327Z" fill="#FF869E"/>
<path d="M577.39 132.705C583.293 137.373 586.69 141.998 587.58 146.582C588.514 151.2 587.454 155.44 584.399 159.304C583.37 160.606 582.046 161.922 580.429 163.254C576.79 166.161 572.779 168.068 568.394 168.974C564.043 169.838 559.635 169.703 555.17 168.571C550.782 167.429 546.678 165.348 542.858 162.328C536.825 157.558 533.298 152.829 532.277 148.143C531.334 143.447 532.442 139.103 535.599 135.109C536.663 133.764 538.02 132.403 539.672 131.029C543.173 128.295 547.104 126.536 551.464 125.75C555.901 124.956 560.357 125.164 564.832 126.374C569.384 127.575 573.57 129.685 577.39 132.705ZM572.613 138.346C571.701 137.625 570.073 137.677 567.727 138.503C565.459 139.32 561.846 141.436 556.888 144.852C551.929 148.268 548.73 150.887 547.288 152.71C546.533 153.665 546.17 154.437 546.2 155.024C546.263 155.568 546.556 156.046 547.076 156.458C547.919 157.265 549.47 157.222 551.729 156.328C554.032 155.467 557.808 153.234 563.059 149.626C567.734 146.479 570.826 143.951 572.336 142.041C573.057 141.13 573.402 140.38 573.373 139.793C573.387 139.24 573.134 138.757 572.613 138.346Z" fill="#FF869E"/>
<path d="M609.037 208.81C608.8 208.878 608.518 209.063 608.193 209.363C607.908 209.626 607.741 209.893 607.691 210.165C607.678 210.478 607.785 210.757 608.01 211C608.46 211.488 609.039 211.707 609.746 211.657C610.531 211.61 610.98 211.648 611.092 211.77C611.28 211.973 611.288 212.267 611.116 212.652C610.984 212.999 610.736 213.341 610.37 213.679C609.228 214.808 607.713 215.492 605.824 215.729C603.975 215.93 601.953 215.575 599.758 214.665C597.64 213.758 595.568 212.206 593.542 210.011C591.064 207.327 589.704 204.63 589.46 201.918C589.257 199.169 590.173 196.817 592.209 194.862C593.713 193.473 595.739 192.282 598.284 191.287L610.163 186.535C610.879 186.25 611.4 185.958 611.725 185.657C612.254 185.169 612.492 184.611 612.438 183.982C612.463 183.357 612.251 182.8 611.8 182.312C610.975 181.418 609.76 180.958 608.155 180.933C606.591 180.871 605.031 181.219 603.473 181.979L587.541 189.683C586.944 189.933 586.442 190.246 586.035 190.621C585.547 191.071 585.234 191.548 585.097 192.052C585 192.518 584.958 193.084 584.97 193.75C584.989 194.26 584.953 194.67 584.862 194.979C584.772 195.289 584.546 195.535 584.187 195.716C583.508 196.041 582.765 196.012 581.958 195.627C581.151 195.242 580.147 194.399 578.946 193.098L566.11 179.193C565.135 178.136 564.603 177.233 564.515 176.486C564.431 175.66 564.73 175.046 565.411 174.642C566.049 174.354 566.87 174.387 567.874 174.741C568.763 175.05 569.618 175.202 570.441 175.196C571.263 175.189 572.294 174.878 573.532 174.262L596.168 163.42C596.447 163.314 596.769 163.092 597.135 162.754C597.582 162.341 597.834 161.92 597.89 161.492C597.984 161.104 598.026 160.538 598.017 159.794C597.967 159.087 597.989 158.539 598.082 158.152C598.176 157.764 598.483 157.443 599.002 157.19C600.162 156.57 602.158 157.101 604.988 158.78C607.859 160.422 610.458 162.503 612.785 165.024C614.662 167.057 615.575 169.189 615.525 171.419C615.516 173.611 614.459 175.566 612.354 177.283C616.292 176.736 619.571 176.984 622.192 178.029C624.854 179.036 627.198 180.637 629.224 182.833C631.514 185.313 632.601 188 632.485 190.893C632.407 193.826 631.168 196.401 628.769 198.615C627.509 199.778 626.081 200.72 624.486 201.439L609.037 208.81Z" fill="#FF869E"/>
<path d="M89.4498 170.442C89.8188 171.098 90.2639 171.674 90.7854 172.169C91.2266 172.589 91.6648 172.891 92.1 173.075C92.4951 173.222 92.8501 173.33 93.165 173.4C93.4779 173.392 93.6936 173.406 93.8119 173.443C94.5942 173.423 95.1859 173.603 95.587 173.984C95.6672 174.061 95.8296 174.291 96.0742 174.677C96.4833 175.371 96.5413 176.113 96.2483 176.903C95.9533 177.615 95.2721 178.533 94.2048 179.656L80.6535 193.914C79.853 194.757 79.0837 195.285 78.3455 195.5C77.6454 195.674 77.0547 195.532 76.5734 195.075C76.3328 194.846 76.1293 194.538 75.9628 194.151C75.7563 193.726 75.6682 193.337 75.6983 192.984C75.7265 192.552 75.8108 192.022 75.9514 191.392C76.2003 190.407 76.2947 189.505 76.2347 188.684C76.1747 187.864 75.7768 186.837 75.0409 185.603L71.3535 179.122L62.4336 188.507L64.3191 193.391C65.1552 195.483 65.9943 196.929 66.8366 197.73C67.3179 198.187 67.7952 198.488 68.2686 198.633C68.7018 198.739 69.2313 198.784 69.8572 198.768C70.4449 198.793 70.8972 198.879 71.2141 199.027C71.529 199.098 71.8288 199.344 72.1135 199.768C72.5627 200.5 72.6598 201.241 72.4049 201.991C72.148 202.663 71.505 203.541 70.4758 204.624L61.9562 213.588C61.0795 214.51 60.252 215.06 59.4737 215.236C58.6553 215.374 57.9653 215.177 57.4038 214.643C56.762 214.033 56.4894 213.316 56.5858 212.492C56.604 211.669 56.8309 210.587 57.2664 209.245C57.8084 207.47 58.1417 205.955 58.2663 204.699C58.3508 203.406 58.1194 202.002 57.5721 200.49L45.5495 168.682C43.663 163.759 43.006 159.471 43.5784 155.816C44.1488 152.083 46.1684 148.392 49.6372 144.742C53.5254 140.651 57.3791 138.283 61.1983 137.638C64.9774 136.955 68.351 138.023 71.3191 140.844C72.5624 142.026 73.6553 143.446 74.5977 145.105L89.4498 170.442ZM67.0525 171.599L59.4942 158.347C59.1653 157.729 58.7402 157.172 58.2188 156.677C57.4567 155.952 56.6855 155.639 55.9053 155.737C55.123 155.757 54.3697 156.148 53.6454 156.91C52.7306 157.873 52.2299 158.962 52.1434 160.178C52.0569 161.393 52.4116 163.028 53.2075 165.082L59.0475 180.022L67.0525 171.599Z" fill="#A10035"/>
<path d="M92.4601 122.896C96.0731 120.06 99.4417 117.944 102.566 116.548C105.734 115.117 108.475 114.442 110.79 114.525C113.149 114.573 114.909 115.337 116.071 116.817C117.266 118.34 117.631 120.059 117.163 121.973C116.739 123.853 115.461 125.63 113.328 127.304C111.152 129.012 108.875 129.92 106.497 130.027C104.163 130.1 102.347 129.31 101.049 127.656C100.605 127.09 100.265 126.477 100.029 125.818C99.0747 126.215 98.2928 126.653 97.6834 127.131C96.5952 127.985 95.886 128.964 95.5559 130.067C95.2694 131.136 95.5236 132.132 96.3187 133.056C97.2068 134.188 98.5243 134.701 100.271 134.596C102.018 134.492 104.614 134.037 108.062 133.231C110.99 132.48 113.475 131.972 115.517 131.706C117.568 131.362 119.551 131.424 121.465 131.891C123.422 132.324 125.05 133.368 126.348 135.022C126.622 135.37 127.047 136.092 127.625 137.186C129.217 140.649 129.09 144.476 127.245 148.668C125.399 152.859 121.887 156.987 116.707 161.052C110.874 165.63 105.623 168.484 100.954 169.616C96.329 170.713 92.9404 169.891 90.7883 167.148C89.3194 165.277 88.775 163.418 89.1553 161.572C89.5355 159.726 90.6616 158.069 92.5334 156.6C94.7098 154.892 97.0894 154.115 99.6719 154.269C102.298 154.388 104.431 155.493 106.07 157.582C106.515 158.148 106.91 158.787 107.258 159.499C108.508 158.94 109.611 158.285 110.569 157.534C111.701 156.646 112.398 155.606 112.659 154.416C112.921 153.226 112.625 152.087 111.771 150.999C110.942 150.032 109.775 149.576 108.271 149.631C106.732 149.642 104.526 149.967 101.651 150.606C98.9744 151.229 96.6977 151.644 94.8204 151.851C92.909 152.015 91.018 151.846 89.1474 151.344C87.3203 150.809 85.7577 149.714 84.4596 148.06C81.6585 144.49 80.9181 140.499 82.2384 136.087C83.5681 131.597 86.9753 127.2 92.4601 122.896Z" fill="#A10035"/>
<path d="M156.766 82.5505C159.511 80.9965 162.138 80.5266 164.647 81.1405C167.178 81.6791 169.056 83.0318 170.283 85.1986C171.592 87.5099 171.916 89.7109 171.255 91.8016C170.595 93.8922 169.133 95.5782 166.87 96.8595C164.848 98.0045 162.997 98.3849 161.317 98.0007C159.609 97.5684 158.412 96.6886 157.724 95.3612C157.188 95.5375 156.888 95.9618 156.823 96.6342C156.759 97.3065 156.929 98.45 157.335 100.064C157.612 101.116 157.631 102.217 157.393 103.369C160.804 101.756 163.658 101.126 165.956 101.478C168.254 101.831 169.962 102.994 171.079 104.968C171.625 105.931 172.001 106.99 172.209 108.143L172.899 110.71C172.939 111.005 173.068 111.345 173.286 111.73C173.668 112.405 174.172 112.564 174.798 112.21C175.376 111.883 175.721 111.369 175.834 110.67C175.967 109.895 176.106 109.466 176.25 109.385C176.491 109.248 176.779 109.308 177.115 109.563C177.423 109.77 177.699 110.09 177.945 110.524C178.783 111.893 179.127 113.511 178.975 115.377C178.845 117.168 178.11 119.014 176.771 120.917C175.453 122.744 173.517 124.38 170.965 125.825C167.884 127.57 164.871 128.258 161.929 127.889C159.034 127.494 156.878 126.044 155.46 123.54C154.942 122.625 154.549 121.481 154.279 120.107L153.607 115.719C153.357 114.716 153.123 114.021 152.905 113.636C152.551 113.01 152.075 112.675 151.478 112.632C150.929 112.561 150.222 112.771 149.355 113.262L147.91 114.08L150.671 126.537C150.854 127.197 151.068 127.743 151.313 128.177C151.668 128.803 152.074 129.24 152.533 129.489C152.965 129.69 153.493 129.836 154.117 129.928C154.645 130.074 155.049 130.226 155.33 130.385C155.583 130.496 155.757 130.747 155.852 131.139C155.966 131.901 155.743 132.631 155.184 133.329C154.626 134.027 153.6 134.799 152.107 135.644L135.639 144.967C134.387 145.676 133.363 146.001 132.567 145.943C131.744 145.837 131.238 145.392 131.049 144.609C130.915 143.922 131.134 143.13 131.707 142.234C132.211 141.439 132.554 140.641 132.736 139.839C132.918 139.037 132.85 137.962 132.533 136.616L123.106 94.3586C123.005 93.8434 122.873 93.4414 122.709 93.1525C122.409 92.6228 122.02 92.2712 121.54 92.0977C121.108 91.897 120.58 91.7507 119.956 91.659C119.257 91.5464 118.705 91.4138 118.3 91.2612C117.944 91.0814 117.702 90.7098 117.574 90.1465C117.236 88.8754 118.207 87.0537 120.488 84.6812C122.77 82.3087 125.403 80.2773 128.388 78.5871C131.181 77.006 133.527 76.377 135.427 76.7003C137.3 76.9754 138.754 78.0279 139.79 79.8576C140.417 80.9651 140.848 82.1199 141.084 83.3219L146.413 107.392L148.797 106.043C149.76 105.497 150.367 104.772 150.617 103.867C150.916 102.935 150.921 101.82 150.631 100.522C149.817 96.2769 149.842 92.6703 150.705 89.7019C151.568 86.7335 153.588 84.3497 156.766 82.5505Z" fill="#A10035"/>
<path d="M215.865 59.2665C221.94 57.3709 227.154 56.99 231.507 58.124C235.844 59.2051 238.729 62.0433 240.164 66.6388C240.708 68.3819 241.009 70.4616 241.067 72.8778L241.231 84.8256C241.244 85.0533 241.3 85.3257 241.399 85.6426C241.663 86.4877 242.138 86.8032 242.824 86.5889C243.458 86.3911 243.904 85.9621 244.162 85.302C244.456 84.5727 244.682 84.1832 244.841 84.1338C245.105 84.0514 245.374 84.1703 245.648 84.4906C245.974 84.7944 246.212 85.184 246.36 85.6594C246.858 87.0691 246.757 88.6947 246.056 90.5364C245.408 92.3615 244.282 94.0462 242.677 95.5904C241.073 97.1346 239.134 98.2611 236.863 98.9699C234.116 99.827 231.609 100.059 229.342 99.6651C227.074 99.2714 225.266 98.2127 223.916 96.4891C222.925 98.8852 221.511 100.949 219.675 102.682C217.823 104.361 215.655 105.588 213.173 106.363C210.373 107.237 207.858 107.442 205.627 106.979C203.379 106.463 201.516 105.508 200.038 104.115C198.596 102.652 197.578 100.97 196.985 99.0681C196.721 98.2229 196.545 97.3795 196.456 96.5377C196.164 92.6293 197.129 89.314 199.352 86.5916C201.627 83.8527 204.719 81.8734 208.628 80.6536C213.012 79.2854 217.531 78.6287 222.185 78.6833L222.534 72.8359C222.529 70.4031 222.336 68.5793 221.957 67.3644C221.509 66.1132 220.789 65.2943 219.799 64.9077C218.809 64.5211 217.495 64.5833 215.858 65.0943C216.439 65.8405 216.869 66.6626 217.149 67.5606C217.759 69.515 217.547 71.436 216.513 73.3237C215.479 75.2114 213.589 76.5839 210.842 77.441C208.254 78.2487 206.047 78.3287 204.222 77.681C202.433 76.964 201.275 75.7604 200.748 74.0701C199.924 71.4291 200.718 68.7754 203.132 66.1093C205.547 63.4431 209.791 61.1622 215.865 59.2665ZM218.92 84.6583C217.441 85.1199 216.408 86.08 215.819 87.5388C215.268 88.9283 215.198 90.2833 215.61 91.6038C215.874 92.4489 216.273 93.0779 216.807 93.4907C217.395 93.8871 218.058 93.9699 218.798 93.7391C219.484 93.5248 220.141 93.0299 220.769 92.2545C221.433 91.4097 221.776 90.375 221.8 89.1504L222.005 83.9565C221.058 84.0782 220.029 84.3122 218.92 84.6583Z" fill="#A10035"/>
<path d="M316.494 85.848C316.195 87.4856 316.073 88.6075 316.127 89.2138C316.191 89.9303 316.4 90.4116 316.755 90.6578C317.166 90.899 317.784 90.9829 318.611 90.9094C319.327 90.8457 320.172 90.6595 321.144 90.3508C322.177 90.0923 322.831 89.9508 323.107 89.9263C323.768 89.8675 324.138 90.279 324.216 91.1608C324.339 92.5387 323.642 94.0728 322.126 95.7631C320.609 97.4534 318.573 98.9122 316.015 100.14C313.463 101.422 310.836 102.183 308.136 102.424C304.167 102.777 301.035 102.222 298.738 100.759C296.447 99.3523 295.171 97.1881 294.911 94.267C294.779 92.7789 294.872 91.3263 295.19 89.9091L296.775 82.4353C293.677 86.3218 289.785 88.4733 285.1 88.8899C282.62 89.1105 280.281 88.7352 278.084 87.764C275.937 86.7329 274.154 85.1138 272.736 82.9067C271.367 80.6397 270.539 77.8802 270.25 74.6284C270.009 71.9277 270.11 69.3079 270.551 66.7688C271.301 62.0913 272.752 58.1014 274.902 54.7993C277.103 51.4371 279.736 48.8698 282.8 47.0974C285.915 45.265 289.208 44.1943 292.68 43.8855C295.932 43.5963 298.702 43.8222 300.99 44.5631C303.333 45.2991 305.472 46.5532 307.408 48.3254L309.629 46.128C310.698 45.033 311.737 44.2185 312.745 43.6844C313.748 43.0952 314.993 42.7345 316.481 42.6021L320.202 42.2713C321.58 42.1487 322.654 42.3587 323.424 42.9013C324.245 43.3838 324.702 44.1487 324.795 45.1959C324.819 45.4715 324.761 46.06 324.618 46.9614L316.494 85.848ZM301.827 58.6544L302.183 57.0395C302.38 56.1331 302.437 55.2115 302.354 54.2745C302.192 52.4557 301.284 51.6198 299.631 51.7668C298.253 51.8894 297.034 52.8588 295.973 54.6753C294.913 56.4917 293.892 59.6934 292.911 64.2803C292.189 67.3999 291.928 70.0896 292.129 72.3493C292.281 74.0579 292.669 75.3011 293.294 76.0788C293.973 76.8516 294.782 77.1963 295.719 77.113C296.435 77.0493 297.042 76.6898 297.539 76.0345C298.032 75.3241 298.465 74.2579 298.838 72.8359L301.827 58.6544Z" fill="#A10035"/>
<path d="M373.056 76.6191C372.916 77.0536 372.839 77.3812 372.825 77.6021C372.799 77.9886 372.862 78.2977 373.013 78.5294C373.22 78.7648 373.488 78.8934 373.82 78.9151C374.482 78.9586 375.053 78.7188 375.531 78.1957C376.067 77.621 376.419 77.3391 376.584 77.3499C376.86 77.3681 377.068 77.5758 377.209 77.9732C377.408 78.319 377.491 78.7404 377.458 79.2373C377.412 80.7869 376.758 82.2967 375.497 83.7665C374.24 85.1811 372.53 86.3165 370.366 87.1725C368.203 88.0286 365.823 88.3714 363.228 88.2009C359.971 87.987 357.419 87.1539 355.574 85.7019C353.728 84.2498 352.6 82.429 352.189 80.2393C350.057 82.3173 347.737 83.8563 345.232 84.8563C342.785 85.8046 340.319 86.1972 337.835 86.034C333.97 85.7801 330.774 84.6275 328.247 82.5762C325.779 80.4732 324.657 77.7101 324.882 74.2868C324.983 72.7408 325.365 71.1577 326.026 69.5376L332.463 52.576C332.661 52.0899 332.771 51.6813 332.793 51.35C332.833 50.7426 332.726 50.2642 332.471 49.9148C332.221 49.5102 331.832 49.0965 331.305 48.6737C330.782 48.1957 330.421 47.7839 330.222 47.4381C330.023 47.0923 330.024 46.6487 330.226 46.1075C330.641 44.8593 332.453 43.8693 335.662 43.1373C338.874 42.3502 342.192 42.069 345.615 42.2939C348.818 42.5042 351.124 43.2657 352.535 44.5783C353.946 45.891 354.583 47.5963 354.445 49.6945C354.362 50.9644 354.089 52.1664 353.626 53.3006L347.277 70.1847C347.016 70.7776 346.868 71.3501 346.831 71.9022C346.781 72.6752 346.963 73.2695 347.38 73.685C347.796 74.1005 348.363 74.3318 349.081 74.379C350.13 74.4479 351.006 74.2004 351.708 73.6366C352.411 73.0727 353.14 72.0948 353.897 70.7027L360.043 54.3874C360.241 53.9014 360.351 53.4927 360.373 53.1614C360.413 52.5541 360.305 52.0757 360.051 51.7263C359.8 51.3216 359.439 50.9097 358.968 50.4906C358.445 50.0126 358.083 49.6007 357.884 49.255C357.685 48.9092 357.687 48.4656 357.889 47.9244C358.248 46.6726 360.032 45.6807 363.241 44.9488C366.454 44.1616 369.771 43.8805 373.195 44.1053C376.397 44.3156 378.704 45.0771 380.115 46.3898C381.581 47.706 382.247 49.3856 382.113 51.4286C382.044 52.4776 381.742 53.7054 381.206 55.112L373.056 76.6191Z" fill="#A10035"/>
<path d="M413.394 50.7137C420.271 52.1619 425.018 54.321 427.637 57.1909C430.267 60.0067 431.223 63.1202 430.505 66.5314C430.288 67.5601 429.98 68.4849 429.581 69.3056C428.016 72.7082 425.201 74.8012 421.134 75.5846C417.133 76.3252 412.614 76.1653 407.579 75.1048C405.034 74.5689 402.686 73.9047 400.534 73.1123C399.887 75.9165 400.229 78.0524 401.56 79.5202C402.89 80.9879 404.964 82.0183 407.779 82.6112C409.079 82.8849 410.353 83.0118 411.601 82.992C412.86 82.918 414.473 82.777 416.44 82.5691C418.07 82.3469 419.156 82.2929 419.697 82.4069C420.293 82.5323 420.516 82.947 420.368 83.6509C420.023 85.5574 418.897 87.4125 416.991 89.2163C415.096 90.966 412.559 92.2696 409.381 93.1272C406.204 93.9847 402.585 93.9859 398.524 93.1306C392.514 91.8649 387.906 89.3111 384.7 85.4694C381.494 81.6276 380.501 76.8099 381.721 71.0163C382.063 69.392 382.679 67.5425 383.568 65.4679C386.325 59.093 390.33 54.706 395.586 52.3069C400.906 49.865 406.843 49.3339 413.394 50.7137ZM402.129 68.3589C402.334 68.4587 402.626 68.5485 403.005 68.6283C405.279 69.1072 407.235 68.4163 408.87 66.5555C410.506 64.6947 411.571 62.4591 412.064 59.8487C412.329 58.3212 412.056 57.4719 411.244 57.3009C410.648 57.1754 409.841 57.5145 408.824 58.3181C407.818 59.0675 406.709 60.3043 405.498 62.0283C404.341 63.7638 403.218 65.874 402.129 68.3589Z" fill="#A10035"/>
<path d="M462.507 64.6751C466.831 66.2238 470.416 67.9486 473.261 69.8495C476.159 71.769 478.19 73.7306 479.353 75.7341C480.568 77.7564 480.858 79.6531 480.224 81.4242C479.571 83.2475 478.31 84.4709 476.441 85.0945C474.624 85.7367 472.439 85.6007 469.887 84.6865C467.282 83.7535 465.301 82.3094 463.944 80.354C462.64 78.4173 462.342 76.4592 463.051 74.4797C463.294 73.8025 463.631 73.1887 464.063 72.6382C463.219 72.0419 462.432 71.6131 461.703 71.3519C460.4 70.8854 459.195 70.8061 458.085 71.1141C457.028 71.4406 456.32 72.1863 455.961 73.351C455.476 74.7054 455.743 76.094 456.762 77.5168C457.78 78.9395 459.548 80.8953 462.066 83.384C464.26 85.4629 466.013 87.2958 467.326 88.8827C468.709 90.4361 469.712 92.1473 470.336 94.0164C471.012 95.9041 470.995 97.8377 470.286 99.8173C470.137 100.234 469.753 100.978 469.134 102.049C467.05 105.241 463.743 107.172 459.213 107.841C454.682 108.511 449.317 107.735 443.118 105.515C436.138 103.015 430.926 100.09 427.482 96.7407C424.091 93.41 422.983 90.1037 424.158 86.8219C424.961 84.5819 426.244 83.1315 428.009 82.4705C429.774 81.8096 431.776 81.8803 434.016 82.6826C436.621 83.6156 438.546 85.216 439.791 87.4839C441.088 89.7705 441.288 92.164 440.393 94.6644C440.15 95.3416 439.82 96.0169 439.403 96.6902C440.541 97.4506 441.683 98.036 442.829 98.4465C444.183 98.9316 445.434 98.9681 446.581 98.556C447.728 98.1439 448.534 97.2867 449.001 95.9844C449.378 94.7676 449.143 93.5372 448.295 92.2933C447.466 90.9972 446.016 89.3023 443.945 87.2086C441.992 85.275 440.429 83.5688 439.254 82.0901C438.098 80.5592 437.234 78.8686 436.663 77.0181C436.143 75.1864 436.238 73.2807 436.947 71.3012C438.477 67.0296 441.461 64.278 445.899 63.0463C450.407 61.7812 455.944 62.3242 462.507 64.6751Z" fill="#A10035"/>
<path d="M516.912 91.0673C517.854 91.5337 518.475 92.088 518.775 92.7303C519.124 93.397 519.126 94.0775 518.783 94.7718C518.684 94.9701 518.463 95.2927 518.118 95.7395C516.393 97.6023 514.366 97.9567 512.035 96.8029L507.721 94.6671L493.046 110.278C492.43 110.899 491.926 111.606 491.533 112.4C491.091 113.292 491.032 114.035 491.356 114.628C491.68 115.22 492.288 115.737 493.181 116.179C493.974 116.572 495.015 116.964 496.304 117.355C496.972 117.501 497.53 117.684 497.976 117.905C498.323 118.077 498.51 118.324 498.536 118.645C498.636 118.942 498.6 119.264 498.428 119.611C497.987 120.627 496.642 121.474 494.392 122.151C492.217 122.803 489.583 123.011 486.488 122.776C483.419 122.491 480.322 121.575 477.198 120.029C473.826 118.359 471.504 116.253 470.232 113.709C468.96 111.165 468.986 108.554 470.312 105.876C470.926 104.637 471.713 103.545 472.675 102.601L484.727 90.2295C485.392 89.5092 485.847 88.9011 486.093 88.4052C486.584 87.4135 486.753 86.4477 486.601 85.508C486.498 84.5928 486.21 83.5546 485.735 82.3934C485.335 81.3309 485.096 80.5028 485.02 79.9092C484.968 79.266 485.176 78.6589 485.644 78.0879C486.161 77.5415 486.828 77.2543 487.645 77.2263C488.461 77.1983 489.564 77.528 490.952 78.2154L495.118 80.2776L502.124 77.9114C504.57 77.0851 506.623 76.681 508.281 76.6992C509.988 76.742 511.933 77.3034 514.115 78.3836C517.239 79.9303 518.212 81.8937 517.034 84.274C516.665 85.0178 516.223 85.663 515.705 86.2095L512.97 89.1156L516.912 91.0673Z" fill="#A10035"/>
<path d="M537.002 102.236C539.735 103.918 541.418 105.67 542.052 107.49C542.686 109.31 542.451 111.115 541.349 112.905C540.682 113.989 539.878 114.924 538.939 115.71L519.424 132.838C518.934 133.316 518.559 133.767 518.298 134.191C517.921 134.804 517.734 135.371 517.737 135.893C517.77 136.368 517.897 136.901 518.117 137.492C518.244 138.025 518.306 138.453 518.302 138.775C518.327 139.051 518.191 139.324 517.894 139.596C517.281 140.064 516.534 140.221 515.653 140.068C514.773 139.916 513.602 139.39 512.141 138.49L496.028 128.567C494.803 127.813 494.024 127.073 493.69 126.348C493.386 125.576 493.531 124.918 494.126 124.374C494.663 123.925 495.462 123.735 496.524 123.804C497.463 123.863 498.327 123.778 499.118 123.549C499.908 123.321 500.816 122.743 501.843 121.816L520.569 105.178C520.972 104.841 521.26 104.531 521.434 104.248C521.753 103.73 521.882 103.257 521.821 102.829C521.788 102.354 521.638 101.807 521.37 101.187C521.131 100.52 521.004 99.9866 520.99 99.5879C520.975 99.1891 521.184 98.7977 521.615 98.4136C522.565 97.504 524.63 97.4757 527.809 98.3286C531.017 99.1343 534.081 100.437 537.002 102.236ZM551.356 89.5327C553.193 90.6643 554.347 92.2198 554.818 94.1992C555.318 96.1315 555.031 97.9693 553.957 99.7125C553.203 100.938 552.133 101.936 550.748 102.708C549.41 103.508 547.92 103.923 546.278 103.951C544.712 103.962 543.222 103.532 541.809 102.661C540.018 101.559 538.873 100.041 538.374 98.109C537.95 96.1586 538.266 94.2737 539.322 92.4543C540.047 91.2764 541.064 90.3106 542.373 89.557C543.711 88.7563 545.177 88.3272 546.772 88.2697C548.367 88.2122 549.895 88.6332 551.356 89.5327Z" fill="#A10035"/>
<path d="M572.39 127.705C578.293 132.373 581.69 136.998 582.58 141.582C583.514 146.2 582.454 150.44 579.399 154.304C578.37 155.606 577.046 156.922 575.429 158.254C571.79 161.161 567.779 163.068 563.394 163.974C559.043 164.838 554.635 164.703 550.17 163.571C545.782 162.429 541.678 160.348 537.858 157.328C531.825 152.558 528.298 147.829 527.277 143.143C526.334 138.447 527.442 134.103 530.599 130.109C531.663 128.764 533.02 127.403 534.672 126.029C538.173 123.295 542.104 121.536 546.464 120.75C550.901 119.956 555.357 120.164 559.832 121.374C564.384 122.575 568.57 124.685 572.39 127.705ZM567.613 133.346C566.701 132.625 565.073 132.677 562.727 133.503C560.459 134.32 556.846 136.436 551.888 139.852C546.929 143.268 543.73 145.887 542.288 147.71C541.533 148.665 541.17 149.437 541.2 150.024C541.263 150.568 541.556 151.046 542.076 151.458C542.919 152.265 544.47 152.222 546.729 151.328C549.032 150.467 552.808 148.234 558.059 144.626C562.734 141.479 565.826 138.951 567.336 137.041C568.057 136.13 568.402 135.38 568.373 134.793C568.387 134.24 568.134 133.757 567.613 133.346Z" fill="#A10035"/>
<path d="M604.037 203.81C603.8 203.878 603.518 204.063 603.193 204.363C602.908 204.626 602.741 204.893 602.691 205.165C602.678 205.478 602.785 205.757 603.01 206C603.46 206.488 604.039 206.707 604.746 206.657C605.531 206.61 605.98 206.648 606.092 206.77C606.28 206.973 606.288 207.267 606.116 207.652C605.984 207.999 605.736 208.341 605.37 208.679C604.228 209.808 602.713 210.492 600.824 210.729C598.975 210.93 596.953 210.575 594.758 209.665C592.64 208.758 590.568 207.206 588.542 205.011C586.064 202.327 584.704 199.63 584.46 196.918C584.257 194.169 585.173 191.817 587.209 189.862C588.713 188.473 590.739 187.282 593.284 186.287L605.163 181.535C605.879 181.25 606.4 180.958 606.725 180.657C607.254 180.169 607.492 179.611 607.438 178.982C607.463 178.357 607.251 177.8 606.8 177.312C605.975 176.418 604.76 175.958 603.155 175.933C601.591 175.871 600.031 176.219 598.473 176.979L582.541 184.683C581.944 184.933 581.442 185.246 581.035 185.621C580.547 186.071 580.234 186.548 580.097 187.052C580 187.518 579.958 188.084 579.97 188.75C579.989 189.26 579.953 189.67 579.862 189.979C579.772 190.289 579.546 190.535 579.187 190.716C578.508 191.041 577.765 191.012 576.958 190.627C576.151 190.242 575.147 189.399 573.946 188.098L561.11 174.193C560.135 173.136 559.603 172.233 559.515 171.486C559.431 170.66 559.73 170.046 560.411 169.642C561.049 169.354 561.87 169.387 562.874 169.741C563.763 170.05 564.618 170.202 565.441 170.196C566.263 170.189 567.294 169.878 568.532 169.262L591.168 158.42C591.447 158.314 591.769 158.092 592.135 157.754C592.582 157.341 592.834 156.92 592.89 156.492C592.984 156.104 593.026 155.538 593.017 154.794C592.967 154.087 592.989 153.539 593.082 153.152C593.176 152.764 593.483 152.443 594.002 152.19C595.162 151.57 597.158 152.101 599.988 153.78C602.859 155.422 605.458 157.503 607.785 160.024C609.662 162.057 610.575 164.189 610.525 166.419C610.516 168.611 609.459 170.566 607.354 172.283C611.292 171.736 614.571 171.984 617.192 173.029C619.854 174.036 622.198 175.637 624.224 177.833C626.514 180.313 627.601 183 627.485 185.893C627.407 188.826 626.168 191.401 623.769 193.615C622.509 194.778 621.081 195.72 619.486 196.439L604.037 203.81Z" fill="#A10035"/>
</svg>
