<svg width="64" height="64" viewBox="0 0 64 64" fill="none" xmlns="http://www.w3.org/2000/svg">
<circle cx="32" cy="32" r="32" fill="#FF869E"/>
<circle cx="32.0003" cy="32" r="28.3402" fill="#FFC4C4"/>
<circle cx="32.0004" cy="32" r="24.4457" fill="#FFE7BF"/>
<path d="M3.65918 19.951C5.76887 19.951 5.76887 18.779 5.76887 17.5483C5.76887 18.8376 5.76887 19.951 7.96645 19.951C5.76887 19.951 5.76887 21.504 5.76887 24.6099C5.76887 21.422 5.76887 19.951 3.65918 19.951Z" fill="#A10035"/>
<path d="M9.61816 16.6568C11.3073 16.6568 11.3073 15.7184 11.3073 14.7331C11.3073 15.7654 11.3073 16.6568 13.0668 16.6568C11.3073 16.6568 11.3073 17.9002 11.3073 20.3871C11.3073 17.8346 11.3073 16.6568 9.61816 16.6568Z" fill="#FF869E"/>
<path d="M5.91113 14.7004C7.1981 14.7004 7.1981 13.9839 7.1981 13.2316C7.1981 14.0197 7.1981 14.7004 8.5387 14.7004C7.1981 14.7004 7.1981 15.6497 7.1981 17.5483C7.1981 15.5996 7.1981 14.7004 5.91113 14.7004Z" fill="#FFC4C4"/>
<path d="M2.62793 44.303C4.73762 44.303 4.73762 43.1309 4.73762 41.9003C4.73762 43.1895 4.73762 44.303 6.9352 44.303C4.73762 44.303 4.73762 45.8559 4.73762 48.9619C4.73762 45.7739 4.73762 44.303 2.62793 44.303Z" fill="#A10035"/>
<path d="M0.868164 50.956C2.55731 50.956 2.55731 50.0176 2.55731 49.0323C2.55731 50.0645 2.55731 50.956 4.31684 50.956C2.55731 50.956 2.55731 52.1994 2.55731 54.6862C2.55731 52.1338 2.55731 50.956 0.868164 50.956Z" fill="#FF869E"/>
<path d="M6.14648 49.2811C7.43346 49.2811 7.43346 48.5646 7.43346 47.8123C7.43346 48.6004 7.43346 49.2811 8.77405 49.2811C7.43346 49.2811 7.43346 50.2304 7.43346 52.129C7.43346 50.1802 7.43346 49.2811 6.14648 49.2811Z" fill="#FFC4C4"/>
<path d="M57.29 45.5132C58.9792 45.5132 58.9792 44.5748 58.9792 43.5894C58.9792 44.6217 58.9792 45.5132 60.7387 45.5132C58.9792 45.5132 58.9792 46.7566 58.9792 49.2434C58.9792 46.6909 58.9792 45.5132 57.29 45.5132Z" fill="#A10035"/>
<path d="M58.6982 50.7214C60.3874 50.7214 60.3874 49.783 60.3874 48.7977C60.3874 49.8299 60.3874 50.7214 62.1469 50.7214C60.3874 50.7214 60.3874 51.9648 60.3874 54.4516C60.3874 51.8991 60.3874 50.7214 58.6982 50.7214Z" fill="#FF869E"/>
<path d="M55.8828 49.1444C57.0112 49.1444 57.0112 48.5175 57.0112 47.8593C57.0112 48.5489 57.0112 49.1444 58.1867 49.1444C57.0112 49.1444 57.0112 49.9751 57.0112 51.6364C57.0112 49.9312 57.0112 49.1444 55.8828 49.1444Z" fill="#FFC4C4"/>
<path d="M59.2139 13.654C60.903 13.654 60.903 12.7156 60.903 11.7302C60.903 12.7625 60.903 13.654 62.6625 13.654C60.903 13.654 60.903 14.8974 60.903 17.3842C60.903 14.8317 60.903 13.654 59.2139 13.654Z" fill="#FF869E"/>
<path d="M58.6514 19.6501C59.92 19.6501 59.92 18.9453 59.92 18.2053C59.92 18.9805 59.92 19.6501 61.2415 19.6501C59.92 19.6501 59.92 20.5839 59.92 22.4516C59.92 20.5346 59.92 19.6501 58.6514 19.6501Z" fill="#FFC4C4"/>
<path d="M54.8975 16.6666C57.0071 16.6666 57.0071 15.4946 57.0071 14.2639C57.0071 15.5532 57.0071 16.6666 59.2047 16.6666C57.0071 16.6666 57.0071 18.2196 57.0071 21.3255C57.0071 18.1375 57.0071 16.6666 54.8975 16.6666Z" fill="#A10035"/>
</svg>
