<svg width="669" height="862" viewBox="0 0 669 862" fill="none" xmlns="http://www.w3.org/2000/svg">
<path d="M61.51 709.025C58.2115 705.751 55.851 702.199 54.4285 698.369C53.006 694.54 52.6789 690.668 53.4472 686.752C54.2938 682.836 56.3934 679.19 59.746 675.813C62.0851 673.457 65.0314 671.314 68.5849 669.384C76.2389 665.287 83.1783 663.755 89.4032 664.789C95.6672 665.783 100.88 668.347 105.043 672.479C107.281 674.701 108.933 677.004 109.998 679.387C111.063 681.769 111.698 684.31 111.904 687.009L114.722 687.351C116.601 687.579 118.05 687.887 119.068 688.274C120.126 688.701 121.107 689.363 122.01 690.259C122.992 691.234 123.563 692.23 123.723 693.246C123.883 694.263 123.554 695.184 122.735 696.008C122.307 696.44 121.799 696.794 121.213 697.07L108.792 702.984C107.386 703.694 106.214 704.011 105.274 703.936C104.374 703.9 103.434 703.395 102.452 702.421C101.431 701.407 100.937 700.215 100.972 698.846C101.084 697.476 101.605 695.498 102.535 692.912C103.424 690.131 103.867 688.154 103.863 686.98C103.859 685.806 103.287 684.654 102.148 683.523C100.538 681.925 97.9932 681.386 94.5128 681.908C91.0714 682.39 86.7733 684.01 81.6186 686.767C77.284 689.091 74.0056 691.373 71.7835 693.611C69.8343 695.574 68.7454 697.417 68.5169 699.14C68.3274 700.823 68.861 702.288 70.1175 703.536C71.9632 705.368 73.8843 706.457 75.8811 706.801C77.917 707.185 80.2651 707.294 82.9251 707.128C84.5681 707.044 85.8201 707.039 86.6812 707.114C87.6205 707.189 88.3651 707.499 88.9148 708.045C89.6216 708.747 90.0169 709.841 90.1005 711.328C90.1842 712.814 89.8555 713.891 89.1146 714.559C88.2962 715.462 86.2639 716.095 83.0177 716.459C79.8107 716.862 76.2098 716.523 72.215 715.442C68.2984 714.361 64.73 712.222 61.51 709.025Z" fill="#FF869E"/>
<path d="M143.5 698.139C146.032 700.111 147.514 702.037 147.944 703.915C148.418 705.827 148.01 707.613 146.718 709.272C145.969 710.232 145.086 711.052 144.066 711.731L107.774 737.119C107.235 737.541 106.813 737.948 106.507 738.341C106.065 738.908 105.817 739.452 105.763 739.971C105.744 740.447 105.811 740.99 105.966 741.602C106.034 742.145 106.048 742.577 106.009 742.898C106.004 743.174 105.839 743.431 105.513 743.669C104.853 744.066 104.093 744.141 103.235 743.893C102.376 743.645 101.27 742.994 99.9164 741.94L84.9867 730.311C83.8517 729.427 83.1583 728.607 82.9065 727.849C82.6886 727.048 82.905 726.41 83.5557 725.935C84.1383 725.547 84.9537 725.446 86.0018 725.631C86.9286 725.792 87.7973 725.802 88.6079 725.662C89.4184 725.522 90.3845 725.047 91.5061 724.237L126.909 699.314C127.346 699.024 127.667 698.747 127.871 698.485C128.245 698.005 128.42 697.51 128.396 697.001C128.416 696.525 128.348 695.981 128.193 695.37C128.029 694.681 127.939 694.12 127.925 693.688C127.954 693.29 128.205 692.924 128.676 692.589C129.72 691.789 131.775 691.987 134.841 693.183C137.907 694.379 140.794 696.031 143.5 698.139Z" fill="#FF869E"/>
<path d="M153.142 725.564C155.831 727.316 157.469 729.11 158.055 730.946C158.642 732.782 158.362 734.58 157.213 736.342C156.518 737.408 155.691 738.322 154.732 739.084L134.784 755.704C134.282 756.17 133.895 756.611 133.623 757.028C133.23 757.631 133.029 758.193 133.019 758.715C133.039 759.191 133.152 759.727 133.358 760.323C133.471 760.859 133.521 761.288 133.509 761.611C133.528 761.887 133.385 762.157 133.08 762.421C132.456 762.872 131.705 763.011 130.829 762.836C129.952 762.66 128.795 762.105 127.358 761.168L111.505 750.834C110.3 750.048 109.54 749.289 109.225 748.556C108.941 747.776 109.103 747.122 109.711 746.594C110.259 746.158 111.063 745.989 112.123 746.085C113.06 746.168 113.927 746.105 114.723 745.897C115.519 745.69 116.442 745.135 117.491 744.234L136.639 728.082C137.05 727.756 137.346 727.454 137.528 727.175C137.86 726.666 138.001 726.196 137.95 725.767C137.93 725.291 137.794 724.74 137.542 724.113C137.32 723.44 137.207 722.904 137.203 722.505C137.199 722.106 137.417 721.721 137.859 721.348C138.832 720.463 140.896 720.487 144.052 721.422C147.238 722.31 150.268 723.69 153.142 725.564ZM167.818 713.234C169.625 714.412 170.739 715.997 171.159 717.988C171.609 719.932 171.274 721.762 170.157 723.477C169.371 724.682 168.276 725.653 166.872 726.389C165.514 727.155 164.013 727.531 162.371 727.517C160.805 727.487 159.327 727.019 157.936 726.113C156.175 724.964 155.069 723.418 154.619 721.474C154.246 719.513 154.61 717.637 155.712 715.845C156.468 714.686 157.509 713.747 158.837 713.027C160.195 712.261 161.672 711.87 163.268 711.853C164.864 711.837 166.381 712.297 167.818 713.234Z" fill="#FF869E"/>
<path d="M185.495 743.112C188.498 744.655 190.903 746.45 192.712 748.499C194.547 750.499 195.687 752.578 196.134 754.736C196.655 756.869 196.448 758.847 195.513 760.668C194.501 762.637 192.978 763.907 190.943 764.479C188.956 765.076 186.806 764.781 184.493 763.592C182.131 762.379 180.588 760.84 179.866 758.976C179.169 757.063 179.352 755.073 180.414 753.006C180.919 752.021 181.598 751.063 182.449 750.132C180.104 749.612 177.702 749.747 175.243 750.537C172.859 751.303 170.727 752.851 168.845 755.181C167.792 756.506 166.961 757.759 166.354 758.941C164.989 761.598 164.691 763.996 165.46 766.132C166.228 768.269 167.991 770.045 170.747 771.461C172.322 772.27 173.752 772.818 175.035 773.104C176.344 773.341 177.729 773.492 179.188 773.557C180.425 773.571 181.265 773.691 181.708 773.919C182.004 774.07 182.162 774.245 182.185 774.444C182.233 774.593 182.156 774.864 181.953 775.258C181.067 777.104 179.318 778.632 176.707 779.841C174.17 781.026 171.169 781.6 167.705 781.562C164.315 781.5 160.922 780.597 157.526 778.853C153.982 777.033 151.161 774.775 149.062 772.079C147.037 769.36 145.882 766.402 145.595 763.207C145.382 759.987 146.11 756.753 147.779 753.505C148.563 751.979 149.632 750.382 150.986 748.714C155.45 743.293 160.743 740.195 166.864 739.421C173.034 738.671 179.244 739.902 185.495 743.112Z" fill="#FF869E"/>
<path d="M241.756 765.621C244.737 766.651 246.827 768.31 248.027 770.598C249.298 772.852 249.526 775.155 248.713 777.509C247.846 780.019 246.41 781.719 244.405 782.607C242.401 783.495 240.169 783.514 237.711 782.665C235.515 781.906 234.005 780.77 233.181 779.256C232.376 777.689 232.243 776.209 232.784 774.815C232.297 774.53 231.78 774.586 231.233 774.982C230.686 775.379 229.942 776.263 228.999 777.635C228.394 778.538 227.581 779.282 226.56 779.866C230.026 781.356 232.387 783.079 233.643 785.035C234.899 786.991 235.157 789.042 234.416 791.186C234.055 792.232 233.51 793.215 232.783 794.134L231.315 796.349C231.12 796.575 230.95 796.897 230.806 797.315C230.553 798.047 230.766 798.531 231.446 798.766C232.074 798.982 232.687 798.902 233.286 798.523C233.956 798.11 234.369 797.931 234.526 797.985C234.787 798.076 234.933 798.331 234.964 798.751C235.012 799.119 234.955 799.539 234.792 800.009C234.321 801.544 233.335 802.872 231.835 803.993C230.406 805.08 228.535 805.751 226.222 806.006C223.98 806.226 221.473 805.858 218.701 804.9C215.354 803.743 212.845 801.94 211.174 799.489C209.556 797.057 209.217 794.481 210.156 791.761C210.5 790.768 211.097 789.715 211.949 788.605L214.795 785.197C215.382 784.346 215.748 783.711 215.892 783.293C216.127 782.613 216.063 782.035 215.701 781.559C215.391 781.1 214.765 780.708 213.824 780.383L212.255 779.841L204.74 790.154C204.367 790.727 204.098 791.249 203.936 791.72C203.701 792.4 203.642 792.994 203.759 793.503C203.894 793.959 204.134 794.452 204.478 794.98C204.717 795.473 204.87 795.877 204.937 796.193C205.022 796.456 204.948 796.753 204.717 797.083C204.221 797.672 203.526 797.989 202.633 798.031C201.74 798.074 200.483 797.815 198.862 797.255L180.975 791.075C179.616 790.606 178.694 790.053 178.211 789.418C177.746 788.73 177.745 788.057 178.207 787.397C178.633 786.841 179.372 786.482 180.424 786.318C181.353 786.171 182.178 785.9 182.9 785.506C183.622 785.111 184.382 784.349 185.182 783.221L210.631 748.194C210.951 747.777 211.165 747.412 211.273 747.099C211.472 746.523 211.478 745.998 211.291 745.524C211.156 745.067 210.916 744.575 210.572 744.046C210.193 743.447 209.928 742.945 209.774 742.541C209.674 742.155 209.792 741.728 210.13 741.259C210.859 740.164 212.868 739.688 216.156 739.828C219.444 739.969 222.71 740.6 225.952 741.72C228.986 742.768 231.01 744.111 232.024 745.75C233.057 747.336 233.23 749.123 232.543 751.11C232.128 752.313 231.547 753.401 230.802 754.372L216.279 774.294L218.868 775.188C219.914 775.55 220.859 775.525 221.703 775.114C222.6 774.722 223.439 773.987 224.221 772.911C226.866 769.492 229.586 767.125 232.383 765.808C235.18 764.491 238.304 764.429 241.756 765.621Z" fill="#FF869E"/>
<path d="M306.159 778.661C307.2 778.81 307.962 779.143 308.447 779.66C308.987 780.185 309.202 780.83 309.092 781.597C309.06 781.816 308.95 782.192 308.762 782.724C307.704 785.032 305.888 786.001 303.314 785.631L298.549 784.948L289.475 804.357C289.083 805.139 288.825 805.968 288.699 806.845C288.557 807.83 288.733 808.554 289.226 809.016C289.718 809.478 290.458 809.78 291.444 809.922C292.32 810.047 293.431 810.095 294.777 810.065C295.458 809.995 296.045 809.995 296.538 810.066C296.921 810.121 297.175 810.297 297.3 810.594C297.488 810.845 297.554 811.162 297.499 811.545C297.397 812.649 296.383 813.873 294.457 815.217C292.594 816.515 290.156 817.535 287.142 818.276C284.137 818.963 280.909 819.059 277.458 818.564C273.734 818.029 270.871 816.752 268.869 814.732C266.867 812.712 266.078 810.223 266.502 807.265C266.699 805.896 267.106 804.613 267.725 803.416L275.318 787.903C275.725 787.011 275.968 786.291 276.047 785.744C276.204 784.648 276.064 783.678 275.626 782.832C275.243 781.995 274.645 781.098 273.832 780.143C273.12 779.259 272.635 778.546 272.377 778.006C272.127 777.411 272.136 776.769 272.402 776.081C272.723 775.4 273.267 774.919 274.035 774.638C274.802 774.357 275.952 774.326 277.486 774.546L282.086 775.207L288.005 770.773C290.072 769.225 291.896 768.201 293.477 767.701C295.113 767.209 297.136 767.136 299.546 767.482C302.996 767.977 304.533 769.539 304.156 772.168C304.038 772.99 303.818 773.741 303.497 774.422L301.804 778.036L306.159 778.661Z" fill="#FF869E"/>
<path d="M334.92 778.484C342.444 778.629 347.947 780.257 351.428 783.369C354.966 786.481 356.687 790.499 356.592 795.422C356.56 797.082 356.303 798.931 355.821 800.97C354.682 805.486 352.641 809.431 349.698 812.806C346.756 816.125 343.165 818.684 338.924 820.484C334.739 822.23 330.213 823.056 325.345 822.962C317.655 822.813 311.986 821.182 308.338 818.067C304.746 814.899 303 810.77 303.098 805.68C303.131 803.965 303.389 802.061 303.872 799.967C305.007 795.672 307.072 791.893 310.068 788.63C313.121 785.313 316.795 782.783 321.09 781.04C325.441 779.242 330.051 778.39 334.92 778.484ZM334.528 785.865C333.366 785.842 332.101 786.87 330.733 788.946C329.421 790.969 327.824 794.839 325.943 800.559C324.062 806.278 323.098 810.3 323.054 812.623C323.03 813.841 323.208 814.674 323.586 815.124C323.966 815.519 324.488 815.723 325.152 815.735C326.312 815.869 327.52 814.896 328.778 812.817C330.091 810.739 331.747 806.676 333.745 800.626C335.564 795.293 336.496 791.41 336.543 788.975C336.566 787.814 336.388 787.008 336.009 786.558C335.686 786.109 335.192 785.878 334.528 785.865Z" fill="#FF869E"/>
<path d="M403.776 771.401C408.29 770.558 412.256 770.24 415.672 770.446C419.142 770.642 421.885 771.312 423.899 772.456C425.969 773.589 427.176 775.08 427.521 776.93C427.877 778.833 427.405 780.526 426.106 782.007C424.861 783.478 422.905 784.462 420.24 784.96C417.52 785.468 415.082 785.22 412.924 784.216C410.821 783.201 409.576 781.661 409.19 779.594C409.058 778.886 409.04 778.186 409.135 777.493C408.105 777.404 407.21 777.43 406.448 777.573C405.088 777.827 404.007 778.366 403.204 779.192C402.456 780.007 402.221 781.008 402.499 782.194C402.763 783.609 403.693 784.673 405.291 785.388C406.888 786.103 409.401 786.9 412.83 787.779C415.773 788.468 418.211 789.167 420.145 789.875C422.123 790.519 423.852 791.49 425.333 792.79C426.869 794.079 427.83 795.757 428.216 797.824C428.297 798.26 428.34 799.096 428.346 800.333C428.157 804.14 426.275 807.475 422.7 810.338C419.126 813.201 414.102 815.237 407.63 816.446C400.341 817.807 394.365 817.91 389.702 816.754C385.094 815.589 382.47 813.292 381.83 809.866C381.393 807.527 381.77 805.627 382.961 804.166C384.151 802.705 385.916 801.756 388.255 801.32C390.975 800.812 393.444 801.223 395.663 802.554C397.936 803.874 399.316 805.84 399.804 808.451C399.936 809.158 399.991 809.907 399.97 810.699C401.337 810.782 402.618 810.711 403.815 810.488C405.229 810.224 406.327 809.624 407.11 808.69C407.892 807.756 408.156 806.609 407.902 805.249C407.614 804.008 406.791 803.064 405.432 802.418C404.062 801.716 401.955 800.984 399.111 800.221C396.45 799.536 394.239 798.851 392.479 798.167C390.709 797.428 389.11 796.403 387.683 795.094C386.311 793.774 385.432 792.081 385.046 790.014C384.213 785.553 385.402 781.673 388.613 778.371C391.868 775.005 396.922 772.681 403.776 771.401Z" fill="#FF869E"/>
<path d="M481.134 783.424C481.102 783.669 481.158 784.001 481.302 784.419C481.429 784.785 481.607 785.046 481.836 785.201C482.117 785.338 482.415 785.352 482.729 785.244C483.356 785.027 483.789 784.585 484.027 783.917C484.299 783.179 484.513 782.783 484.67 782.729C484.931 782.638 485.204 782.749 485.487 783.061C485.753 783.321 485.967 783.686 486.129 784.157C486.705 785.655 486.724 787.317 486.184 789.143C485.625 790.917 484.489 792.626 482.775 794.273C481.094 795.848 478.842 797.124 476.018 798.1C472.566 799.292 469.55 799.457 466.968 798.592C464.368 797.676 462.581 795.893 461.607 793.244C460.939 791.308 460.659 788.975 460.77 786.244L461.181 773.457C461.208 772.687 461.149 772.092 461.004 771.674C460.77 770.994 460.354 770.552 459.756 770.349C459.193 770.075 458.598 770.046 457.97 770.263C456.977 770.607 456.12 771.43 455.399 772.732C454.712 773.965 454.408 775.709 454.485 777.966L454.431 777.809L454.99 795.442C455.05 796.124 455.162 796.7 455.324 797.171C455.559 797.85 455.88 798.354 456.286 798.683C456.674 798.958 457.166 799.198 457.763 799.401C458.256 799.641 458.626 799.864 458.873 800.072C459.102 800.227 459.228 800.505 459.25 800.908C459.223 801.678 458.872 802.355 458.196 802.94C457.52 803.525 456.371 804.098 454.75 804.658L436.863 810.837C435.503 811.307 434.437 811.441 433.665 811.24C432.875 810.986 432.458 810.457 432.414 809.652C432.407 808.952 432.766 808.214 433.492 807.436C434.132 806.746 434.614 806.023 434.939 805.267C435.263 804.511 435.391 803.443 435.324 802.061L433.723 758.795C433.717 758.27 433.66 757.85 433.552 757.537C433.353 756.961 433.034 756.545 432.593 756.287C432.205 756.011 431.713 755.772 431.116 755.568C430.448 755.331 429.929 755.1 429.559 754.877C429.242 754.635 429.071 754.226 429.047 753.649C428.945 752.337 430.231 750.722 432.905 748.803C435.579 746.884 438.538 745.364 441.78 744.244C444.814 743.196 447.235 743.003 449.045 743.666C450.907 744.311 452.181 745.627 452.867 747.614C453.265 748.765 453.47 749.952 453.484 751.177L454.018 766.448C455.136 763.076 456.639 760.478 458.526 758.655C460.466 756.814 462.77 755.433 465.437 754.512C468.627 753.409 471.524 753.491 474.128 754.758C476.784 756.006 478.645 758.173 479.711 761.259C480.271 762.88 480.561 764.566 480.58 766.316L481.134 783.424Z" fill="#FF869E"/>
<path d="M501.859 737.183C507.476 734.192 512.528 732.85 517.017 733.155C521.479 733.412 524.841 735.665 527.104 739.914C527.962 741.526 528.645 743.513 529.151 745.877L531.531 757.586C531.586 757.807 531.692 758.065 531.848 758.358C532.264 759.139 532.789 759.361 533.424 759.023C534.01 758.711 534.369 758.206 534.499 757.51C534.653 756.739 534.803 756.314 534.949 756.236C535.194 756.106 535.48 756.173 535.809 756.437C536.186 756.674 536.492 757.013 536.726 757.453C537.477 758.745 537.679 760.362 537.333 762.301C537.036 764.215 536.242 766.079 534.952 767.895C533.662 769.71 531.966 771.177 529.866 772.296C527.327 773.648 524.906 774.341 522.605 774.376C520.304 774.41 518.33 773.706 516.684 772.263C516.155 774.801 515.149 777.092 513.667 779.135C512.159 781.129 510.257 782.738 507.962 783.96C505.373 785.339 502.94 786.007 500.661 785.967C498.357 785.878 496.349 785.286 494.637 784.191C492.949 783.021 491.636 781.557 490.7 779.799C490.284 779.018 489.954 778.222 489.711 777.411C488.697 773.625 489.03 770.188 490.708 767.1C492.435 763.986 495.106 761.467 498.72 759.542C502.774 757.384 507.093 755.899 511.676 755.088L510.933 749.278C510.475 746.888 509.947 745.132 509.349 744.009C508.676 742.863 507.817 742.191 506.773 741.995C505.728 741.8 504.449 742.105 502.935 742.911C503.644 743.536 504.219 744.264 504.662 745.094C505.624 746.902 505.772 748.829 505.107 750.875C504.442 752.922 502.839 754.622 500.299 755.974C497.906 757.249 495.753 757.737 493.839 757.44C491.948 757.068 490.587 756.1 489.755 754.537C488.454 752.095 488.742 749.34 490.619 746.272C492.496 743.204 496.243 740.174 501.859 737.183ZM509.577 761.566C508.21 762.294 507.373 763.429 507.066 764.972C506.781 766.44 506.964 767.784 507.615 769.005C508.031 769.787 508.54 770.331 509.142 770.637C509.793 770.917 510.46 770.875 511.144 770.511C511.779 770.173 512.332 769.565 512.805 768.686C513.3 767.733 513.446 766.652 513.241 765.445L512.478 760.303C511.57 760.599 510.603 761.02 509.577 761.566Z" fill="#FF869E"/>
<path d="M560.687 697.894C563.21 696.001 565.756 695.199 568.323 695.487C570.902 695.697 572.938 696.798 574.432 698.79C576.026 700.915 576.629 703.056 576.241 705.214C575.854 707.372 574.62 709.232 572.54 710.792C570.68 712.186 568.893 712.801 567.178 712.635C565.429 712.424 564.129 711.705 563.277 710.476C562.768 710.72 562.524 711.179 562.546 711.854C562.568 712.529 562.884 713.642 563.493 715.191C563.902 716.198 564.062 717.288 563.974 718.461C567.15 716.425 569.9 715.434 572.224 715.49C574.548 715.545 576.391 716.48 577.752 718.295C578.416 719.181 578.925 720.182 579.279 721.3L580.292 723.757C580.369 724.044 580.541 724.365 580.806 724.719C581.271 725.339 581.791 725.433 582.367 725.002C582.898 724.603 583.175 724.05 583.197 723.342C583.23 722.556 583.313 722.113 583.446 722.014C583.667 721.848 583.96 721.87 584.325 722.08C584.657 722.246 584.973 722.528 585.272 722.927C586.279 724.177 586.827 725.738 586.915 727.608C587.015 729.401 586.522 731.326 585.438 733.385C584.364 735.366 582.654 737.236 580.308 738.995C577.475 741.12 574.576 742.188 571.61 742.199C568.688 742.177 566.364 741.015 564.638 738.713C564.007 737.872 563.47 736.787 563.028 735.459L561.799 731.193C561.423 730.23 561.102 729.572 560.836 729.218C560.405 728.642 559.89 728.371 559.293 728.404C558.739 728.404 558.064 728.703 557.267 729.301L555.939 730.297L560.272 742.299C560.538 742.929 560.82 743.444 561.119 743.842C561.55 744.418 562.009 744.8 562.496 744.988C562.95 745.132 563.492 745.209 564.123 745.22C564.665 745.298 565.086 745.397 565.385 745.519C565.65 745.597 565.855 745.823 565.999 746.2C566.209 746.941 566.082 747.694 565.617 748.457C565.152 749.221 564.234 750.117 562.862 751.146L547.722 762.501C546.571 763.364 545.597 763.818 544.801 763.862C543.971 763.862 543.412 763.486 543.124 762.733C542.903 762.069 543.019 761.256 543.473 760.293C543.871 759.441 544.109 758.605 544.186 757.786C544.264 756.967 544.059 755.911 543.572 754.616L528.815 713.912C528.649 713.414 528.467 713.033 528.267 712.767C527.902 712.28 527.471 711.981 526.973 711.871C526.519 711.727 525.977 711.649 525.346 711.638C524.637 711.616 524.073 711.555 523.653 711.456C523.276 711.323 522.989 710.985 522.789 710.443C522.291 709.226 523.022 707.295 524.981 704.65C526.939 702.005 529.291 699.653 532.036 697.595C534.603 695.669 536.85 694.745 538.775 694.823C540.668 694.856 542.245 695.713 543.506 697.396C544.27 698.414 544.845 699.504 545.233 700.666L553.599 723.856L555.79 722.213C556.675 721.549 557.184 720.752 557.317 719.822C557.494 718.859 557.356 717.753 556.902 716.502C555.552 712.397 555.115 708.816 555.591 705.762C556.067 702.708 557.766 700.085 560.687 697.894Z" fill="#FF869E"/>
<path d="M586.629 672.517C591.58 667.53 595.971 664.716 599.804 664.076C603.596 663.397 606.73 664.286 609.204 666.742C609.95 667.483 610.559 668.243 611.031 669.024C613.038 672.186 613.266 675.687 611.715 679.527C610.164 683.289 607.575 686.996 603.95 690.648C602.118 692.494 600.284 694.104 598.45 695.481C600.453 697.547 602.432 698.42 604.388 698.1C606.343 697.78 608.334 696.599 610.361 694.557C611.297 693.614 612.095 692.614 612.757 691.555C613.379 690.457 614.136 689.026 615.03 687.262C615.729 685.773 616.273 684.832 616.663 684.439C617.092 684.007 617.561 684.045 618.072 684.552C619.485 685.877 620.431 687.83 620.91 690.41C621.35 692.952 621.067 695.79 620.061 698.923C619.055 702.057 617.09 705.097 614.166 708.042C609.839 712.401 605.192 714.883 600.225 715.487C595.258 716.092 590.674 714.309 586.472 710.138C585.294 708.968 584.076 707.447 582.817 705.573C578.961 699.797 577.454 694.05 578.294 688.335C579.133 682.541 581.912 677.268 586.629 672.517ZM595.326 691.56C595.521 691.442 595.755 691.245 596.028 690.97C597.665 689.321 598.147 687.304 597.473 684.92C596.799 682.536 595.5 680.427 593.576 678.595C592.438 677.543 591.576 677.312 590.992 677.901C590.563 678.333 590.409 679.194 590.531 680.485C590.614 681.736 591.05 683.339 591.84 685.292C592.669 687.207 593.831 689.296 595.326 691.56Z" fill="#FF869E"/>
<path d="M56.51 704.025C53.2115 700.751 50.851 697.199 49.4285 693.369C48.006 689.54 47.6789 685.668 48.4472 681.752C49.2938 677.836 51.3934 674.19 54.746 670.813C57.0851 668.457 60.0314 666.314 63.5849 664.384C71.2389 660.287 78.1783 658.755 84.4032 659.789C90.6672 660.783 95.8803 663.347 100.043 667.479C102.281 669.701 103.933 672.004 104.998 674.387C106.063 676.769 106.698 679.31 106.904 682.009L109.722 682.351C111.601 682.579 113.05 682.887 114.068 683.274C115.126 683.701 116.107 684.363 117.01 685.259C117.992 686.234 118.563 687.23 118.723 688.246C118.883 689.263 118.554 690.184 117.735 691.008C117.307 691.44 116.799 691.794 116.213 692.07L103.792 697.984C102.386 698.694 101.214 699.011 100.274 698.936C99.3744 698.9 98.4335 698.395 97.4518 697.421C96.4308 696.407 95.9374 695.215 95.9716 693.846C96.084 692.476 96.605 690.498 97.5347 687.912C98.4245 685.131 98.8672 683.154 98.863 681.98C98.8587 680.806 98.2872 679.654 97.1484 678.523C95.5384 676.925 92.9932 676.386 89.5128 676.908C86.0714 677.39 81.7733 679.01 76.6186 681.767C72.284 684.091 69.0056 686.373 66.7835 688.611C64.8343 690.574 63.7454 692.417 63.5169 694.14C63.3274 695.823 63.861 697.288 65.1175 698.536C66.9632 700.368 68.8843 701.457 70.8811 701.801C72.917 702.185 75.2651 702.294 77.9251 702.128C79.5681 702.044 80.8201 702.039 81.6812 702.114C82.6205 702.189 83.3651 702.499 83.9148 703.045C84.6216 703.747 85.0169 704.841 85.1005 706.328C85.1842 707.814 84.8555 708.891 84.1146 709.559C83.2962 710.462 81.2639 711.095 78.0177 711.459C74.8107 711.862 71.2098 711.523 67.215 710.442C63.2984 709.361 59.73 707.222 56.51 704.025Z" fill="#A10035"/>
<path d="M138.5 693.139C141.032 695.111 142.514 697.037 142.944 698.915C143.418 700.827 143.01 702.613 141.718 704.272C140.969 705.232 140.086 706.052 139.066 706.731L102.774 732.119C102.235 732.541 101.813 732.948 101.507 733.341C101.065 733.908 100.817 734.452 100.763 734.971C100.744 735.447 100.811 735.99 100.966 736.602C101.034 737.145 101.048 737.577 101.009 737.898C101.004 738.174 100.839 738.431 100.513 738.669C99.853 739.066 99.0934 739.141 98.2346 738.893C97.3758 738.645 96.2697 737.994 94.9164 736.94L79.9867 725.311C78.8517 724.427 78.1583 723.607 77.9065 722.849C77.6886 722.048 77.905 721.41 78.5557 720.935C79.1383 720.547 79.9537 720.446 81.0018 720.631C81.9286 720.792 82.7973 720.802 83.6079 720.662C84.4184 720.522 85.3845 720.047 86.5061 719.237L121.909 694.314C122.346 694.024 122.667 693.747 122.871 693.485C123.245 693.005 123.42 692.51 123.396 692.001C123.416 691.525 123.348 690.981 123.193 690.37C123.029 689.681 122.939 689.12 122.925 688.688C122.954 688.29 123.205 687.924 123.676 687.589C124.72 686.789 126.775 686.987 129.841 688.183C132.907 689.379 135.794 691.031 138.5 693.139Z" fill="#A10035"/>
<path d="M148.142 720.564C150.831 722.316 152.469 724.11 153.055 725.946C153.642 727.782 153.362 729.58 152.213 731.342C151.518 732.408 150.691 733.322 149.732 734.084L129.784 750.704C129.282 751.17 128.895 751.611 128.623 752.028C128.23 752.631 128.029 753.193 128.019 753.715C128.039 754.191 128.152 754.727 128.358 755.323C128.471 755.859 128.521 756.288 128.509 756.611C128.528 756.887 128.385 757.157 128.08 757.421C127.456 757.872 126.705 758.011 125.829 757.836C124.952 757.66 123.795 757.105 122.358 756.168L106.505 745.834C105.3 745.048 104.54 744.289 104.225 743.556C103.941 742.776 104.103 742.122 104.711 741.594C105.259 741.158 106.063 740.989 107.123 741.085C108.06 741.168 108.927 741.105 109.723 740.897C110.519 740.69 111.442 740.135 112.491 739.234L131.639 723.082C132.05 722.756 132.346 722.454 132.528 722.175C132.86 721.666 133.001 721.196 132.95 720.767C132.93 720.291 132.794 719.74 132.542 719.113C132.32 718.44 132.207 717.904 132.203 717.505C132.199 717.106 132.417 716.721 132.859 716.348C133.832 715.463 135.896 715.487 139.052 716.422C142.238 717.31 145.268 718.69 148.142 720.564ZM162.818 708.234C164.625 709.412 165.739 710.997 166.159 712.988C166.609 714.932 166.274 716.762 165.157 718.477C164.371 719.682 163.276 720.653 161.872 721.389C160.514 722.155 159.013 722.531 157.371 722.517C155.805 722.487 154.327 722.019 152.936 721.113C151.175 719.964 150.069 718.418 149.619 716.474C149.246 714.513 149.61 712.637 150.712 710.845C151.468 709.686 152.509 708.747 153.837 708.027C155.195 707.261 156.672 706.87 158.268 706.853C159.864 706.837 161.381 707.297 162.818 708.234Z" fill="#A10035"/>
<path d="M180.495 738.112C183.498 739.655 185.903 741.45 187.712 743.499C189.547 745.499 190.687 747.578 191.134 749.736C191.655 751.869 191.448 753.847 190.513 755.668C189.501 757.637 187.978 758.907 185.943 759.479C183.956 760.076 181.806 759.781 179.493 758.592C177.131 757.379 175.588 755.84 174.866 753.976C174.169 752.063 174.352 750.073 175.414 748.006C175.919 747.021 176.598 746.063 177.449 745.132C175.104 744.612 172.702 744.747 170.243 745.537C167.859 746.303 165.727 747.851 163.845 750.181C162.792 751.506 161.961 752.759 161.354 753.941C159.989 756.598 159.691 758.996 160.46 761.132C161.228 763.269 162.991 765.045 165.747 766.461C167.322 767.27 168.752 767.818 170.035 768.104C171.344 768.341 172.729 768.492 174.188 768.557C175.425 768.571 176.265 768.691 176.708 768.919C177.004 769.07 177.162 769.245 177.185 769.444C177.233 769.593 177.156 769.864 176.953 770.258C176.067 772.104 174.318 773.632 171.707 774.841C169.17 776.026 166.169 776.6 162.705 776.562C159.315 776.5 155.922 775.597 152.526 773.853C148.982 772.033 146.161 769.775 144.062 767.079C142.037 764.36 140.882 761.402 140.595 758.207C140.382 754.987 141.11 751.753 142.779 748.505C143.563 746.979 144.632 745.382 145.986 743.714C150.45 738.293 155.743 735.195 161.864 734.421C168.034 733.671 174.244 734.902 180.495 738.112Z" fill="#A10035"/>
<path d="M236.756 760.621C239.737 761.651 241.827 763.31 243.027 765.598C244.298 767.852 244.526 770.155 243.713 772.509C242.846 775.019 241.41 776.719 239.405 777.607C237.401 778.495 235.169 778.514 232.711 777.665C230.515 776.906 229.005 775.77 228.181 774.256C227.376 772.689 227.243 771.209 227.784 769.815C227.297 769.53 226.78 769.586 226.233 769.982C225.686 770.379 224.942 771.263 223.999 772.635C223.394 773.538 222.581 774.282 221.56 774.866C225.026 776.356 227.387 778.079 228.643 780.035C229.899 781.991 230.157 784.042 229.416 786.186C229.055 787.232 228.51 788.215 227.783 789.134L226.315 791.349C226.12 791.575 225.95 791.897 225.806 792.315C225.553 793.047 225.766 793.531 226.446 793.766C227.074 793.982 227.687 793.902 228.286 793.523C228.956 793.11 229.369 792.931 229.526 792.985C229.787 793.076 229.933 793.331 229.964 793.751C230.012 794.119 229.955 794.539 229.792 795.009C229.321 796.544 228.335 797.872 226.835 798.993C225.406 800.08 223.535 800.751 221.222 801.006C218.98 801.226 216.473 800.858 213.701 799.9C210.354 798.743 207.845 796.94 206.174 794.489C204.556 792.057 204.217 789.481 205.156 786.761C205.5 785.768 206.097 784.715 206.949 783.605L209.795 780.197C210.382 779.346 210.748 778.711 210.892 778.293C211.127 777.613 211.063 777.035 210.701 776.559C210.391 776.1 209.765 775.708 208.824 775.383L207.255 774.841L199.74 785.154C199.367 785.727 199.098 786.249 198.936 786.72C198.701 787.4 198.642 787.994 198.759 788.503C198.894 788.959 199.134 789.452 199.478 789.98C199.717 790.473 199.87 790.877 199.937 791.193C200.022 791.456 199.948 791.753 199.717 792.083C199.221 792.672 198.526 792.989 197.633 793.031C196.74 793.074 195.483 792.815 193.862 792.255L175.975 786.075C174.616 785.606 173.694 785.053 173.211 784.418C172.746 783.73 172.745 783.057 173.207 782.397C173.633 781.841 174.372 781.482 175.424 781.318C176.353 781.171 177.178 780.9 177.9 780.506C178.622 780.111 179.382 779.349 180.182 778.221L205.631 743.194C205.951 742.777 206.165 742.412 206.273 742.099C206.472 741.523 206.478 740.998 206.291 740.524C206.156 740.067 205.916 739.575 205.572 739.046C205.193 738.447 204.928 737.945 204.774 737.541C204.674 737.155 204.792 736.728 205.13 736.259C205.859 735.164 207.868 734.688 211.156 734.828C214.444 734.969 217.71 735.6 220.952 736.72C223.986 737.768 226.01 739.111 227.024 740.75C228.057 742.336 228.23 744.123 227.543 746.11C227.128 747.313 226.547 748.401 225.802 749.372L211.279 769.294L213.868 770.188C214.914 770.55 215.859 770.525 216.703 770.114C217.6 769.722 218.439 768.987 219.221 767.911C221.866 764.492 224.586 762.125 227.383 760.808C230.18 759.491 233.304 759.429 236.756 760.621Z" fill="#A10035"/>
<path d="M301.159 773.661C302.2 773.81 302.962 774.143 303.447 774.66C303.987 775.185 304.202 775.83 304.092 776.597C304.06 776.816 303.95 777.192 303.762 777.724C302.704 780.032 300.888 781.001 298.314 780.631L293.549 779.948L284.475 799.357C284.083 800.139 283.825 800.968 283.699 801.845C283.557 802.83 283.733 803.554 284.226 804.016C284.718 804.478 285.458 804.78 286.444 804.922C287.32 805.047 288.431 805.095 289.777 805.065C290.458 804.995 291.045 804.995 291.538 805.066C291.921 805.121 292.175 805.297 292.3 805.594C292.488 805.845 292.554 806.162 292.499 806.545C292.397 807.649 291.383 808.873 289.457 810.217C287.594 811.515 285.156 812.535 282.142 813.276C279.137 813.963 275.909 814.059 272.458 813.564C268.734 813.029 265.871 811.752 263.869 809.732C261.867 807.712 261.078 805.223 261.502 802.265C261.699 800.896 262.106 799.613 262.725 798.416L270.318 782.903C270.725 782.011 270.968 781.291 271.047 780.744C271.204 779.648 271.064 778.678 270.626 777.832C270.243 776.995 269.645 776.098 268.832 775.143C268.12 774.259 267.635 773.546 267.377 773.006C267.127 772.411 267.136 771.769 267.402 771.081C267.723 770.4 268.267 769.919 269.035 769.638C269.802 769.357 270.952 769.326 272.486 769.546L277.086 770.207L283.005 765.773C285.072 764.225 286.896 763.201 288.477 762.701C290.113 762.209 292.136 762.136 294.546 762.482C297.996 762.977 299.533 764.539 299.156 767.168C299.038 767.99 298.818 768.741 298.497 769.422L296.804 773.036L301.159 773.661Z" fill="#A10035"/>
<path d="M329.92 773.484C337.444 773.629 342.947 775.257 346.428 778.369C349.966 781.481 351.687 785.499 351.592 790.422C351.56 792.082 351.303 793.931 350.821 795.97C349.682 800.486 347.641 804.431 344.698 807.806C341.756 811.125 338.165 813.684 333.924 815.484C329.739 817.23 325.213 818.056 320.345 817.962C312.655 817.813 306.986 816.182 303.338 813.067C299.746 809.899 298 805.77 298.098 800.68C298.131 798.965 298.389 797.061 298.872 794.967C300.007 790.672 302.072 786.893 305.068 783.63C308.121 780.313 311.795 777.783 316.09 776.04C320.441 774.242 325.051 773.39 329.92 773.484ZM329.528 780.865C328.366 780.842 327.101 781.87 325.733 783.946C324.421 785.969 322.824 789.839 320.943 795.559C319.062 801.278 318.098 805.3 318.054 807.623C318.03 808.841 318.208 809.674 318.586 810.124C318.966 810.519 319.488 810.723 320.152 810.735C321.312 810.869 322.52 809.896 323.778 807.817C325.091 805.739 326.747 801.676 328.745 795.626C330.564 790.293 331.496 786.41 331.543 783.975C331.566 782.814 331.388 782.008 331.009 781.558C330.686 781.109 330.192 780.878 329.528 780.865Z" fill="#A10035"/>
<path d="M398.776 766.401C403.29 765.558 407.256 765.24 410.672 765.446C414.142 765.642 416.885 766.312 418.899 767.456C420.969 768.589 422.176 770.08 422.521 771.93C422.877 773.833 422.405 775.526 421.106 777.007C419.861 778.478 417.905 779.462 415.24 779.96C412.52 780.468 410.082 780.22 407.924 779.216C405.821 778.201 404.576 776.661 404.19 774.594C404.058 773.886 404.04 773.186 404.135 772.493C403.105 772.404 402.21 772.43 401.448 772.573C400.088 772.827 399.007 773.366 398.204 774.192C397.456 775.007 397.221 776.008 397.499 777.194C397.763 778.609 398.693 779.673 400.291 780.388C401.888 781.103 404.401 781.9 407.83 782.779C410.773 783.468 413.211 784.167 415.145 784.875C417.123 785.519 418.852 786.49 420.333 787.79C421.869 789.079 422.83 790.757 423.216 792.824C423.297 793.26 423.34 794.096 423.346 795.333C423.157 799.14 421.275 802.475 417.7 805.338C414.126 808.201 409.102 810.237 402.63 811.446C395.341 812.807 389.365 812.91 384.702 811.754C380.094 810.589 377.47 808.292 376.83 804.866C376.393 802.527 376.77 800.627 377.961 799.166C379.151 797.705 380.916 796.756 383.255 796.32C385.975 795.812 388.444 796.223 390.663 797.554C392.936 798.874 394.316 800.84 394.804 803.451C394.936 804.158 394.991 804.907 394.97 805.699C396.337 805.782 397.618 805.711 398.815 805.488C400.229 805.224 401.327 804.624 402.11 803.69C402.892 802.756 403.156 801.609 402.902 800.249C402.614 799.008 401.791 798.064 400.432 797.418C399.062 796.716 396.955 795.984 394.111 795.221C391.45 794.536 389.239 793.851 387.479 793.167C385.709 792.428 384.11 791.403 382.683 790.094C381.311 788.774 380.432 787.081 380.046 785.014C379.213 780.553 380.402 776.673 383.613 773.371C386.868 770.005 391.922 767.681 398.776 766.401Z" fill="#A10035"/>
<path d="M476.134 778.424C476.102 778.669 476.158 779.001 476.302 779.419C476.429 779.785 476.607 780.046 476.836 780.201C477.117 780.338 477.415 780.352 477.729 780.244C478.356 780.027 478.789 779.585 479.027 778.917C479.299 778.179 479.513 777.783 479.67 777.729C479.931 777.638 480.204 777.749 480.487 778.061C480.753 778.321 480.967 778.686 481.129 779.157C481.705 780.655 481.724 782.317 481.184 784.143C480.625 785.917 479.489 787.626 477.775 789.273C476.094 790.848 473.842 792.124 471.018 793.1C467.566 794.292 464.55 794.457 461.968 793.592C459.368 792.676 457.581 790.893 456.607 788.244C455.939 786.308 455.659 783.975 455.77 781.244L456.181 768.457C456.208 767.687 456.149 767.092 456.004 766.674C455.77 765.994 455.354 765.552 454.756 765.349C454.193 765.075 453.598 765.046 452.97 765.263C451.977 765.607 451.12 766.43 450.399 767.732C449.712 768.965 449.408 770.709 449.485 772.966L449.431 772.809L449.99 790.442C450.05 791.124 450.162 791.7 450.324 792.171C450.559 792.85 450.88 793.354 451.286 793.683C451.674 793.958 452.166 794.198 452.763 794.401C453.256 794.641 453.626 794.864 453.873 795.072C454.102 795.227 454.228 795.505 454.25 795.908C454.223 796.678 453.872 797.355 453.196 797.94C452.52 798.525 451.371 799.098 449.75 799.658L431.863 805.837C430.503 806.307 429.437 806.441 428.665 806.24C427.875 805.986 427.458 805.457 427.414 804.652C427.407 803.952 427.766 803.214 428.492 802.436C429.132 801.746 429.614 801.023 429.939 800.267C430.263 799.511 430.391 798.443 430.324 797.061L428.723 753.795C428.717 753.27 428.66 752.85 428.552 752.537C428.353 751.961 428.034 751.545 427.593 751.287C427.205 751.011 426.713 750.772 426.116 750.568C425.448 750.331 424.929 750.1 424.559 749.877C424.242 749.635 424.071 749.226 424.047 748.649C423.945 747.337 425.231 745.722 427.905 743.803C430.579 741.884 433.538 740.364 436.78 739.244C439.814 738.196 442.235 738.003 444.045 738.666C445.907 739.311 447.181 740.627 447.867 742.614C448.265 743.765 448.47 744.952 448.484 746.177L449.018 761.448C450.136 758.076 451.639 755.478 453.526 753.655C455.466 751.814 457.77 750.433 460.437 749.512C463.627 748.409 466.524 748.491 469.128 749.758C471.784 751.006 473.645 753.173 474.711 756.259C475.271 757.88 475.561 759.566 475.58 761.316L476.134 778.424Z" fill="#A10035"/>
<path d="M496.859 732.183C502.476 729.192 507.528 727.85 512.017 728.155C516.479 728.412 519.841 730.665 522.104 734.914C522.962 736.526 523.645 738.513 524.151 740.877L526.531 752.586C526.586 752.807 526.692 753.065 526.848 753.358C527.264 754.139 527.789 754.361 528.424 754.023C529.01 753.711 529.369 753.206 529.499 752.51C529.653 751.739 529.803 751.314 529.949 751.236C530.194 751.106 530.48 751.173 530.809 751.437C531.186 751.674 531.492 752.013 531.726 752.453C532.477 753.745 532.679 755.362 532.333 757.301C532.036 759.215 531.242 761.079 529.952 762.895C528.662 764.71 526.966 766.177 524.866 767.296C522.327 768.648 519.906 769.341 517.605 769.376C515.304 769.41 513.33 768.706 511.684 767.263C511.155 769.801 510.149 772.092 508.667 774.135C507.159 776.129 505.257 777.738 502.962 778.96C500.373 780.339 497.94 781.007 495.661 780.967C493.357 780.878 491.349 780.286 489.637 779.191C487.949 778.021 486.636 776.557 485.7 774.799C485.284 774.018 484.954 773.222 484.711 772.411C483.697 768.625 484.03 765.188 485.708 762.1C487.435 758.986 490.106 756.467 493.72 754.542C497.774 752.384 502.093 750.899 506.676 750.088L505.933 744.278C505.475 741.888 504.947 740.132 504.349 739.009C503.676 737.863 502.817 737.191 501.773 736.995C500.728 736.8 499.449 737.105 497.935 737.911C498.644 738.536 499.219 739.264 499.662 740.094C500.624 741.902 500.772 743.829 500.107 745.875C499.442 747.922 497.839 749.622 495.299 750.974C492.906 752.249 490.753 752.737 488.839 752.44C486.948 752.068 485.587 751.1 484.755 749.537C483.454 747.095 483.742 744.34 485.619 741.272C487.496 738.204 491.243 735.174 496.859 732.183ZM504.577 756.566C503.21 757.294 502.373 758.429 502.066 759.972C501.781 761.44 501.964 762.784 502.615 764.005C503.031 764.787 503.54 765.331 504.142 765.637C504.793 765.917 505.46 765.875 506.144 765.511C506.779 765.173 507.332 764.565 507.805 763.686C508.3 762.733 508.446 761.652 508.241 760.445L507.478 755.303C506.57 755.599 505.603 756.02 504.577 756.566Z" fill="#A10035"/>
<path d="M555.687 692.894C558.21 691.001 560.756 690.199 563.323 690.487C565.902 690.697 567.938 691.798 569.432 693.79C571.026 695.915 571.629 698.056 571.241 700.214C570.854 702.372 569.62 704.232 567.54 705.792C565.68 707.186 563.893 707.801 562.178 707.635C560.429 707.424 559.129 706.705 558.277 705.476C557.768 705.72 557.524 706.179 557.546 706.854C557.568 707.529 557.884 708.642 558.493 710.191C558.902 711.198 559.062 712.288 558.974 713.461C562.15 711.425 564.9 710.434 567.224 710.49C569.548 710.545 571.391 711.48 572.752 713.295C573.416 714.181 573.925 715.182 574.279 716.3L575.292 718.757C575.369 719.044 575.541 719.365 575.806 719.719C576.271 720.339 576.791 720.433 577.367 720.002C577.898 719.603 578.175 719.05 578.197 718.342C578.23 717.556 578.313 717.113 578.446 717.014C578.667 716.848 578.96 716.87 579.325 717.08C579.657 717.246 579.973 717.528 580.272 717.927C581.279 719.177 581.827 720.738 581.915 722.608C582.015 724.401 581.522 726.326 580.438 728.385C579.364 730.366 577.654 732.236 575.308 733.995C572.475 736.12 569.576 737.188 566.61 737.199C563.688 737.177 561.364 736.015 559.638 733.713C559.007 732.872 558.47 731.787 558.028 730.459L556.799 726.193C556.423 725.23 556.102 724.572 555.836 724.218C555.405 723.642 554.89 723.371 554.293 723.404C553.739 723.404 553.064 723.703 552.267 724.301L550.939 725.297L555.272 737.299C555.538 737.929 555.82 738.444 556.119 738.842C556.55 739.418 557.009 739.8 557.496 739.988C557.95 740.132 558.492 740.209 559.123 740.22C559.665 740.298 560.086 740.397 560.385 740.519C560.65 740.597 560.855 740.823 560.999 741.2C561.209 741.941 561.082 742.694 560.617 743.457C560.152 744.221 559.234 745.117 557.862 746.146L542.722 757.501C541.571 758.364 540.597 758.818 539.801 758.862C538.971 758.862 538.412 758.486 538.124 757.733C537.903 757.069 538.019 756.256 538.473 755.293C538.871 754.441 539.109 753.605 539.186 752.786C539.264 751.967 539.059 750.911 538.572 749.616L523.815 708.912C523.649 708.414 523.467 708.033 523.267 707.767C522.902 707.28 522.471 706.981 521.973 706.871C521.519 706.727 520.977 706.649 520.346 706.638C519.637 706.616 519.073 706.555 518.653 706.456C518.276 706.323 517.989 705.985 517.789 705.443C517.291 704.226 518.022 702.295 519.981 699.65C521.939 697.005 524.291 694.653 527.036 692.595C529.603 690.669 531.85 689.745 533.775 689.823C535.668 689.856 537.245 690.713 538.506 692.396C539.27 693.414 539.845 694.504 540.233 695.666L548.599 718.856L550.79 717.213C551.675 716.549 552.184 715.752 552.317 714.822C552.494 713.859 552.356 712.753 551.902 711.502C550.552 707.397 550.115 703.816 550.591 700.762C551.067 697.708 552.766 695.085 555.687 692.894Z" fill="#A10035"/>
<path d="M581.629 667.517C586.58 662.53 590.971 659.716 594.804 659.076C598.596 658.397 601.73 659.286 604.204 661.742C604.95 662.483 605.559 663.243 606.031 664.024C608.038 667.186 608.266 670.687 606.715 674.527C605.164 678.289 602.575 681.996 598.95 685.648C597.118 687.494 595.284 689.104 593.45 690.481C595.453 692.547 597.432 693.42 599.388 693.1C601.343 692.78 603.334 691.599 605.361 689.557C606.297 688.614 607.095 687.614 607.757 686.555C608.379 685.457 609.136 684.026 610.03 682.262C610.729 680.773 611.273 679.832 611.663 679.439C612.092 679.007 612.561 679.045 613.072 679.552C614.485 680.877 615.431 682.83 615.91 685.41C616.35 687.952 616.067 690.79 615.061 693.923C614.055 697.057 612.09 700.097 609.166 703.042C604.839 707.401 600.192 709.883 595.225 710.487C590.258 711.092 585.674 709.309 581.472 705.138C580.294 703.968 579.076 702.447 577.817 700.573C573.961 694.797 572.454 689.05 573.294 683.335C574.133 677.541 576.912 672.268 581.629 667.517ZM590.326 686.56C590.521 686.442 590.755 686.245 591.028 685.97C592.665 684.321 593.147 682.304 592.473 679.92C591.799 677.536 590.5 675.427 588.576 673.595C587.438 672.543 586.576 672.312 585.992 672.901C585.563 673.333 585.409 674.194 585.531 675.485C585.614 676.736 586.05 678.339 586.84 680.292C587.669 682.207 588.831 684.296 590.326 686.56Z" fill="#A10035"/>
</svg>
