<svg width="987" height="965" viewBox="0 0 987 965" fill="none" xmlns="http://www.w3.org/2000/svg">
<path d="M6.81108 782.896C-41.8915 686.426 187.504 590.23 159.912 520.746C122.267 425.944 243.279 367.548 356.756 401.168C726.584 510.74 710.301 366.654 805.942 431.168C859.801 467.5 776.292 515.575 859.801 576.778C909.676 613.331 906.995 649.398 889.626 694.846C863.318 763.684 765.356 756.881 859.801 832.925C954.247 908.968 835.942 965 728.572 965C658.669 965 597.343 934.014 529.74 876.95C385.128 754.88 402.487 956.995 287.164 876.95C171.842 796.904 70.8522 909.748 6.81108 782.896Z" fill="url(#paint0_linear_110_117)" fill-opacity="0.49"/>
<defs>
<linearGradient id="paint0_linear_110_117" x1="450.5" y1="368" x2="450.5" y2="965" gradientUnits="userSpaceOnUse">
<stop stop-color="#9D33CF"/>
<stop offset="1" stop-color="#B22DF0" stop-opacity="0"/>
</linearGradient>
</defs>
</svg>
